<?xml version="1.0" encoding="utf-8"?>
<!-- Generator: Adobe Illustrator 18.1.1, SVG Export Plug-In . SVG Version: 6.00 Build 0)  -->
<!DOCTYPE svg PUBLIC "-//W3C//DTD SVG 1.1//EN" "http://www.w3.org/Graphics/SVG/1.1/DTD/svg11.dtd">
<?xml-stylesheet type="text/css" href="../style.css" ?>
<svg version="1.1" id="Livello_1" xmlns="http://www.w3.org/2000/svg" xmlns:xlink="http://www.w3.org/1999/xlink" x="0px" y="0px" preserveAspectRatio="xMinYMin meet" viewBox="0 0 1280 1410" enable-background="new 0 0 1280 1410" xml:space="preserve">
<rect x="-1" y="0" fill="#FCEE21" width="1281" height="1410"/>
<path fill="none" stroke="#000000" stroke-miterlimit="10" d="M1026.9,869.4c-84.8-133.9-234.3-222.7-404.5-222.7
	c-168.6,0-316.9,87.2-402.1,219"/>
<path fill="none" stroke="#000000" stroke-width="0.5" stroke-miterlimit="10" d="M115.4,797.8c53.7-83,127.6-152.3,214-200.3
	c89.2-49.6,190.5-75.9,293.1-75.9c103.5,0,205.7,26.7,295.5,77.2c86.9,48.9,161.1,119.3,214.5,203.6"/>
<path fill="none" stroke="#000000" stroke-miterlimit="10" d="M1026.9,869.4c-84.8-133.9-234.3-222.7-404.5-222.7
	c-168.6,0-316.9,87.2-402.1,219"/>
<path fill="none" stroke="#000000" stroke-miterlimit="10" d="M1228.6,739c-127.6-200-351.4-332.6-606.2-332.6
	c-233.3,0-440.6,111.2-571.9,283.4"/>
<g>
	<g>
		<circle stroke="#FFFFFF" stroke-width="4" stroke-miterlimit="10" cx="519.4" cy="416.5" r="87.7"/>
		<circle stroke="#FFFFFF" stroke-width="4" stroke-miterlimit="10" cx="279.4" cy="508.5" r="87.7"/>
		<circle stroke="#FFFFFF" stroke-width="4" stroke-miterlimit="10" cx="760.6" cy="416.5" r="87.7"/>
		<circle stroke="#FFFFFF" stroke-width="4" stroke-miterlimit="10" cx="1001.7" cy="506.5" r="87.7"/>
		<circle stroke="#FFFFFF" stroke-width="4" stroke-miterlimit="10" cx="638" cy="641.8" r="87.7"/>
		<circle stroke="#FFFFFF" stroke-width="4" stroke-miterlimit="10" cx="882.1" cy="719.8" r="87.7"/>
		<g>
			<rect x="461.7" y="407.5" fill="none" width="115.4" height="29.9"/>
			<text transform="matrix(1 0 0 1 474.9451 423.1901)" fill="#FFFFFF" font-family="'FedraSerifAStd-Medium'" font-size="20.5242">MADLIB</text>
		</g>
		<g>
			<rect x="551.1" y="636.2" fill="none" width="172.7" height="58.6"/>
			<text transform="matrix(1 0 0 1 565.8459 651.9147)" fill="#FFFFFF" font-family="'FedraSerifAStd-Medium'" font-size="20.5242">MADVILLAIN</text>
		</g>
		<g>
			<rect x="825.8" y="705.2" fill="none" width="115.4" height="58.6"/>
			<text transform="matrix(1 0 0 1 836.5872 720.925)"><tspan x="0" y="0" fill="#FFFFFF" font-family="'FedraSerifAStd-Medium'" font-size="20.5242">DANGER</tspan><tspan x="10.8" y="24.6" fill="#FFFFFF" font-family="'FedraSerifAStd-Medium'" font-size="20.5242">DOOM</tspan></text>
		</g>
		<g>
			<rect x="702.9" y="407.5" fill="none" width="115.4" height="29.9"/>
			<text transform="matrix(1 0 0 1 704.5393 423.1901)" fill="#FFFFFF" font-family="'FedraSerifAStd-Medium'" font-size="20.5242">MF DOOM</text>
		</g>
		<g>
			<rect x="944" y="489" fill="none" width="115.4" height="55.2"/>
			<text transform="matrix(1 0 0 1 954.8 504.6384)"><tspan x="0" y="0" fill="#FFFFFF" font-family="'FedraSerifAStd-Medium'" font-size="20.5242">DANGER</tspan><tspan x="6.1" y="24.6" fill="#FFFFFF" font-family="'FedraSerifAStd-Medium'" font-size="20.5242">MOUSE</tspan></text>
		</g>
		<circle stroke="#FFFFFF" stroke-width="4" stroke-miterlimit="10" cx="389.8" cy="719.8" r="87.7"/>
		<g>
			<rect x="332.1" y="711.7" fill="none" width="115.4" height="29.9"/>
			<text transform="matrix(1 0 0 1 353.4592 727.3493)" fill="#FFFFFF" font-family="'FedraSerifAStd-Medium'" font-size="20.5242">JAYLIB</text>
		</g>
		<line fill="none" stroke="#999999" x1="238.5" y1="473.4" x2="238.5" y2="343.4"/>
		<rect x="253.8" y="337.2" fill="none" width="167.7" height="78.7"/>
		<text transform="matrix(1 0 0 1 253.8362 347.0309)"><tspan x="0" y="0" font-family="'FedraSerifAStd-Bold'" font-size="12.8276">JAMES DEWITT YANCEY</tspan><tspan x="0" y="17" font-family="'FedraSerifAStd-BookItalic'" font-size="11">Probably the most famous and </tspan><tspan x="0" y="30.2" font-family="'FedraSerifAStd-BookItalic'" font-size="11">prolific beats producer,</tspan><tspan x="0" y="43.4" font-family="'FedraSerifAStd-BookItalic'" font-size="11">(deceased in 2006) at the age of 32.</tspan></text>
		<line fill="none" stroke="#999999" x1="421.5" y1="763.4" x2="421.5" y2="894.4"/>
		<rect x="253.8" y="836.2" fill="none" width="154.5" height="78.7"/>
		<text transform="matrix(1 0 0 1 344.0994 845.9731)"><tspan x="0" y="0" font-family="'FedraSerifAStd-Bold'" font-size="12.8276">J DILLA &amp; </tspan><tspan x="7.2" y="15.4" font-family="'FedraSerifAStd-Bold'" font-size="12.8276">MADLIB</tspan><tspan x="-22.8" y="32.4" font-family="'FedraSerifAStd-BookItalic'" font-size="11">“Champion Sound” </tspan><tspan x="-49.2" y="45.6" font-family="'FedraSerifAStd-BookItalic'" font-size="11">is the name of the album,</tspan><tspan x="-14.8" y="58.8" font-family="'FedraSerifAStd-BookItalic'" font-size="11">the rest is history.</tspan></text>
		<line fill="none" stroke="#999999" x1="683.5" y1="685.4" x2="683.5" y2="816.4"/>
		<rect x="512.8" y="762.9" fill="none" width="156.7" height="78.7"/>
		<text transform="matrix(1 0 0 1 598.845 772.7214)"><tspan x="0" y="0" font-family="'FedraSerifAStd-Bold'" font-size="12.8276">MADLIB &amp; </tspan><tspan x="-0.9" y="15.4" font-family="'FedraSerifAStd-Bold'" font-size="12.8276">MF DOOM</tspan><tspan x="-45.5" y="32.4" font-family="'FedraSerifAStd-BookItalic'" font-size="11"> Top quality collaboration </tspan><tspan x="-38" y="45.6" font-family="'FedraSerifAStd-BookItalic'" font-size="11">gave birth to a definitive </tspan><tspan x="-44.6" y="58.8" font-family="'FedraSerifAStd-BookItalic'" font-size="11">masterpiece: Madvillany.</tspan></text>
		<line fill="none" stroke="#999999" x1="931.5" y1="763.4" x2="931.5" y2="894.4"/>
		<rect x="750.6" y="840.9" fill="none" width="165.2" height="105.1"/>
		<text transform="matrix(1 0 0 1 830.5481 850.7214)"><tspan x="0" y="0" font-family="'FedraSerifAStd-Bold'" font-size="12.8276">MF DOOM &amp; </tspan><tspan x="-30.5" y="15.4" font-family="'FedraSerifAStd-Bold'" font-size="12.8276">DANGER MOUSE</tspan><tspan x="-71.7" y="32.4" font-family="'FedraSerifAStd-BookItalic'" font-size="11">They mixed Doom flow and Danger </tspan><tspan x="-14.5" y="45.6" font-family="'FedraSerifAStd-BookItalic'" font-size="11">Mouse taste for beats,</tspan><tspan x="-70.9" y="58.8" font-family="'FedraSerifAStd-BookItalic'" font-size="11">the results was a masked mouse on </tspan><tspan x="17.2" y="72" font-family="'FedraSerifAStd-BookItalic'" font-size="11">the front cover.</tspan></text>
		<line fill="none" stroke="#999999" x1="473.5" y1="383.4" x2="473.5" y2="253.4"/>
		<rect x="487.9" y="247.2" fill="none" width="134.5" height="78.7"/>
		<text transform="matrix(1 0 0 1 487.9124 257.0309)"><tspan x="0" y="0" font-family="'FedraSerifAStd-Bold'" font-size="12.8276">OTIS JACKSON JR.</tspan><tspan x="0" y="17" font-family="'FedraSerifAStd-BookItalic'" font-size="11">Known as Madlib, is a DJ, </tspan><tspan x="0" y="30.2" font-family="'FedraSerifAStd-BookItalic'" font-size="11">multi-instrumentalist, </tspan><tspan x="0" y="43.4" font-family="'FedraSerifAStd-BookItalic'" font-size="11">rapper, and music producer.</tspan></text>
		<line fill="none" stroke="#999999" x1="707.5" y1="383.4" x2="707.5" y2="253.4"/>
		<rect x="722" y="247.2" fill="none" width="137.7" height="78.7"/>
		<text transform="matrix(1 0 0 1 721.9885 257.0309)"><tspan x="0" y="0" font-family="'FedraSerifAStd-Bold'" font-size="12.8276">DANIEL DUMILE</tspan><tspan x="0" y="17" font-family="'FedraSerifAStd-BookItalic'" font-size="11">The famous“super villain” </tspan><tspan x="0" y="30.2" font-family="'FedraSerifAStd-BookItalic'" font-size="11">masked hip-hop artist and </tspan><tspan x="0" y="43.4" font-family="'FedraSerifAStd-BookItalic'" font-size="11">charismatic producer.</tspan></text>
		<line fill="none" stroke="#999999" x1="954.5" y1="473.4" x2="954.5" y2="343.4"/>
		<g>
			<rect x="220.3" y="498.2" fill="none" width="115.4" height="29.9"/>
			<text transform="matrix(1 0 0 1 238.7994 513.914)" fill="#FFFFFF" font-family="'FedraSerifAStd-Medium'" font-size="20.5242">J DILLA</text>
		</g>
	</g>
	<circle cx="954" cy="343.2" r="1.6"/>
	<circle cx="683.8" cy="816.3" r="1.6"/>
	<circle cx="421.8" cy="894.3" r="1.6"/>
	<circle cx="932" cy="894.3" r="1.6"/>
	<circle cx="238.4" cy="342.2" r="1.6"/>
	<circle cx="473.4" cy="253.2" r="1.6"/>
	<circle cx="707.5" cy="253.2" r="1.6"/>
</g>
<g>
	<rect x="50.1" y="169.3" fill="none" width="524.1" height="162.6"/>
	<text transform="matrix(1 0 0 1 50.1389 186.7982)" font-family="'FedraSerifAStd-BookItalic'" font-size="23">Top 4 producers and their collaboration projects.</text>
</g>
<g>
	<rect x="50.4" y="998.1" fill="none" width="345.7" height="242"/>
	<text transform="matrix(1 0 0 1 50.3619 1030.5747)" font-family="'FedraSerifAStd-Book'" font-size="15">The “</text>
	<text transform="matrix(1 0 0 1 88.7613 1030.5747)" font-family="'FedraSerifAStd-Bold'" font-size="15">art of sampling</text>
	<text transform="matrix(1 0 0 1 212.1676 1030.5747)" font-family="'FedraSerifAStd-Book'" font-size="15">” is one of the most </text>
	<text transform="matrix(1 0 0 1 50.3619 1051.5747)" font-family="'FedraSerifAStd-Book'" font-size="15">interesting approach to music production of </text>
	<text transform="matrix(1 0 0 1 50.3619 1072.5747)" font-family="'FedraSerifAStd-Book'" font-size="15">the last thirty years.</text>
	<text transform="matrix(1 0 0 1 50.3619 1093.5747)" font-family="'FedraSerifAStd-Book'" font-size="15">On February 10</text>
	<text transform="matrix(0.583 0 0 0.583 163.7311 1088.5796)" font-family="'FedraSerifAStd-Book'" font-size="15">th</text>
	<text transform="matrix(1 0 0 1 173.6832 1093.5747)" font-family="'FedraSerifAStd-Book'" font-size="15"> 2006,</text>
	<text transform="matrix(1 0 0 1 219.7467 1093.5747)" font-family="'FedraSerifAStd-Bold'" font-size="15"> J Dilla</text>
	<text transform="matrix(1 0 0 1 272.3961 1093.5747)" font-family="'FedraSerifAStd-Book'" font-size="15"> died at the age </text>
	<text transform="matrix(1 0 0 1 50.3619 1114.5747)" font-family="'FedraSerifAStd-Book'" font-size="15">of </text>
	<text transform="matrix(1 0 0 1 69.0065 1114.5747)" font-family="'FedraSerifAStd-Bold'" font-size="15">32 years</text>
	<text transform="matrix(1 0 0 1 131.2574 1114.5747)" font-family="'FedraSerifAStd-Book'" font-size="15">. He can be considered one of the </text>
	<text transform="matrix(1 0 0 1 50.3619 1135.5747)" font-family="'FedraSerifAStd-Book'" font-size="15">most talented and prolific beats and music </text>
	<text transform="matrix(1 0 0 1 50.3619 1156.5747)" font-family="'FedraSerifAStd-Book'" font-size="15">producer.</text>
	<text transform="matrix(1 0 0 1 50.3619 1177.5747)" font-family="'FedraSerifAStd-Book'" font-size="15">This project is a tribute to </text>
	<text transform="matrix(1 0 0 1 244.7613 1177.5747)" font-family="'FedraSerifAStd-Bold'" font-size="15">Dilla</text>
	<text transform="matrix(1 0 0 1 283.0406 1177.5747)" font-family="'FedraSerifAStd-Book'" font-size="15">, and all other </text>
	<text transform="matrix(1 0 0 1 50.3619 1198.5747)" font-family="'FedraSerifAStd-Book'" font-size="15">artists and producers that contributed gave </text>
	<text transform="matrix(1 0 0 1 50.3619 1219.5747)" font-family="'FedraSerifAStd-Book'" font-size="15">birth to the “beats scene”.</text>
</g>
<circle cx="637.5" cy="1108.7" r="189.1"/>
<circle fill="none" stroke="#FCEE21" stroke-miterlimit="10" cx="637.5" cy="1108.7" r="178"/>
<circle fill="none" stroke="#FCEE21" stroke-miterlimit="10" cx="637.5" cy="1108.7" r="66.6"/>
<g>
	<path id="SVGID_x5F_1_x5F_" fill="none" d="M523.1,1177.9c23.4,38.7,65.9,64.5,114.4,64.5c46.1,0,86.7-23.3,110.8-58.8"/>
	<text>	<textPath  xlink:href="#SVGID_x5F_1_x5F_" startOffset="0.9765%">
<tspan  fill="#FFFFFF" font-family="'FedraSerifAStd-BookItalic'" font-size="14">a Tuxtax project</tspan>	</textPath>
</text>
</g>
<circle fill="#FCEE21" cx="637.5" cy="1108.7" r="16.8"/>
<rect x="464.2" y="1003.1" fill="none" width="349.6" height="40"/>
<text transform="matrix(1 0 0 1 508.8065 1022.8564)" fill="#FFFFFF" font-family="'Grumpy-Black88'" font-size="26">BEHIND THE BEATS</text>
<rect x="43.1" y="62.4" fill="none" width="865" height="92.9"/>
<text transform="matrix(1 0 0 1 43.139 137.6331)" font-family="'Grumpy-Black88'" font-size="99">THE PRODUCERS</text>
<g>
	<path id="SVGID_x5F_2_x5F_" fill="none" d="M54.9,665.6c0,0,57.9-70.8,103.2-103.6"/>
	<text>	<textPath  xlink:href="#SVGID_x5F_2_x5F_" startOffset="40.43%">
<tspan  font-family="'FedraSerifAStd-MediumItalic'" font-size="16">The artists</tspan>	</textPath>
</text>
</g>
<g>
	<path id="SVGID_x5F_3_x5F_" fill="none" d="M197.1,875.5c0,0,51.8-75.5,94.1-111.9l19.3-17.2"/>
	<text>	<textPath  xlink:href="#SVGID_x5F_3_x5F_" startOffset="20.215%">
<tspan  font-family="'FedraSerifAStd-BookItalic'" font-size="16">Collaborations</tspan>	</textPath>
</text>
</g>
<path fill="none" stroke="#FFFFFF" stroke-miterlimit="10" d="M724.8,1204.8c-8.8,8-18.8,14.9-29.6,20.3"/>
<path fill="none" stroke="#FFFFFF" stroke-miterlimit="10" d="M576.8,1223.5c-9.5-5-18.3-11.2-26.2-18.4"/>
<line fill="none" stroke="#000000" stroke-width="3" stroke-miterlimit="10" x1="43" y1="154.9" x2="860" y2="154.9"/>
<g opacity="0.7">
	<g opacity="0.34">
		<path fill="#FCEE21" d="M1108.8,340.4c79.3-27.3,121.5-113.8,94.1-193.1c-27.3-79.3-113.8-121.4-193.1-94
			c-79.3,27.3-121.5,113.8-94.1,193.1C943,325.6,1029.5,367.7,1108.8,340.4z"/>
		<path fill="#FCEE21" stroke="#000000" stroke-width="2" d="M1108.8,340.4c79.3-27.3,121.5-113.8,94.1-193.1
			c-27.3-79.3-113.8-121.4-193.1-94c-79.3,27.3-121.5,113.8-94.1,193.1C943,325.6,1029.5,367.7,1108.8,340.4z"/>
		<path fill="#FCEE21" stroke="#000000" stroke-width="2" d="M1111.3,294.8c0.9-5,4.1-6.1,6.8-7.9c40.4-26.3,59.3-77.5,42.9-125.1
			c-19.4-56.1-80.6-85.9-136.7-66.6c-56.1,19.4-86,80.6-66.6,136.7c17.8,51.6,71,81,123.1,70.3"/>
		<path fill="#FCEE21" d="M982.9,147.1c0,0-5.7,9.4-6.8,16.5c-1,6.1-1.5,15.4-1.5,15.4l47.1,14.5"/>
		<path fill="#FCEE21" stroke="#000000" stroke-width="2" d="M982.9,147.1c0,0-5.7,9.4-6.8,16.5c-1,6.1-1.5,15.4-1.5,15.4l47.1,14.5
			"/>
		<path fill="#FCEE21" stroke="#000000" stroke-width="2" d="M1106.8,272c1.6-1,5.2-2.8,6.7-4c29.9-22.8,43.4-63,30.4-100.4
			c-16.1-46.7-67.1-71.5-113.8-55.4c-46.7,16.1-71.6,67.1-55.5,113.8c15.5,44.9,63.1,69.5,108.2,57.1 M1088.3,312.5c0,0,2.7-5.6,4-5
			 M1085.9,292.6c0,0-3.6,2.3-5.2,3.9c-1.5,1.6-1.4,1.3-0.7,3.3c0.7,2.1,4.4,9.9,6,11.4c1.6,1.5,1,1.4,4.1,1.3
			c3.1,0,6.5-0.7,6.5-0.7 M1113.8,267.7c0,0,3.8,4,4.7,8.6c0.8,4.6,0.5,8.5-0.4,10.4 M1135.6,200.9l8.4,24.4l-16.4,5.6
			 M1090.8,243.6l36.8-12.7l-8.3-24.1 M1003,168.9l18.4,6.6 M1008.4,210.2l16.1-5.5 M1073.1,260.4c0,0-11.6,4-18.9,6.5
			c-7.3,2.5-19.8,5.5-26.6-5.2 M993.7,205.4c-0.2-2,2.6-4.4,5.6-4.9c4.4-0.7,7.5,5.6,7.5,5.6c4.3,12.6,13.2,22.3,24.2,27.9
			c0,0,8.9-5.7,14.7-2.8c5.8,2.8,11.2,8.6,11.7,11.9 M1056.7,254.7l-2.7,11.8c-31.4-0.2-59.9-19.8-70.7-51.2
			c-2.7-7.9-4.1-14.5-4.2-22.4c0,0,1-4.1,5.2-4.8c6.7-1,7.5,5.9,7.5,5.9c0.4,5.4,1.4,10.8,3.3,16.1c5.6,16.2,17.3,28.7,31.6,35.7
			c0,0,5.7-9.3,16.5-6.3c4.8,1.3,6.6,3.4,7.4,7.1 M1030.9,178.5c-2.5,6.2-2.8,13.4-0.5,20.2c4.4,12.7,16.7,20.4,29.5,19.5
			 M1023.9,176.3c-3,7.7-3.3,16.5-0.4,24.9c5.7,16.6,22.3,26.4,39.1,24.2"/>
		<path fill="#FCEE21" d="M1004.5,105.8l-14.4-59c-1.4-6,15.9-15.3,38.7-20.8c22.8-5.6,42.5-5.2,43.9,0.7l14.4,59"/>
		<path fill="#FCEE21" stroke="#000000" stroke-width="2" d="M1004.5,105.8l-14.4-59c-1.4-6,15.9-15.3,38.7-20.8
			c22.8-5.6,42.5-5.2,43.9,0.7l14.4,59"/>
		<path fill="#FCEE21" stroke="#000000" stroke-width="2" d="M1083.6,71.2c-1.4-6-21.1-6.3-43.9-0.7c-22.8,5.6-40.1,14.9-38.7,20.8
			 M1077.2,45c-1.5-5.9-21.1-6.3-43.9-0.7c-22.8,5.6-40.1,14.9-38.7,20.8"/>
		<path fill="#FCEE21" d="M1048.4,106.5c22.8-5.6,40.1-14.9,38.7-20.8c-1.5-5.9-21.1-6.3-43.9-0.7c-22.8,5.6-40.1,14.9-38.7,20.8
			C1005.9,111.7,1025.6,112,1048.4,106.5z"/>
		<path fill="#FCEE21" stroke="#000000" stroke-width="2" d="M1048.4,106.5c22.8-5.6,40.1-14.9,38.7-20.8
			c-1.5-5.9-21.1-6.3-43.9-0.7c-22.8,5.6-40.1,14.9-38.7,20.8C1005.9,111.7,1025.6,112,1048.4,106.5z"/>
		<path fill="#FCEE21" d="M1034.9,141l-7.7-31.6c-0.7-3,7.9-7.6,19.3-10.4c11.4-2.8,21.2-2.6,22,0.4l15.3,59.9"/>
		<path fill="#FCEE21" stroke="#000000" stroke-width="2" d="M1034.9,141l-7.7-31.6c-0.7-3,7.9-7.6,19.3-10.4
			c11.4-2.8,21.2-2.6,22,0.4l15.3,59.9"/>
		<path fill="#FCEE21" stroke="#000000" stroke-width="2" d="M1034,137.2c-0.7-3,7.9-7.6,19.3-10.4c11.4-2.8,21.2-2.6,22,0.4
			 M1032.9,132.7c-0.7-3,7.9-7.6,19.3-10.4c11.4-2.8,21.2-2.6,22,0.4"/>
		<path fill="#FCEE21" d="M1099.6,132.5c0,0,5.6-11.8,7.2-15.2c1.6-3.3,12.9,1.3,11.7,5.8c-1.2,4.6-6.7,15.6-6.7,15.6"/>
		<path fill="#FCEE21" stroke="#000000" stroke-width="2" d="M1099.6,132.5c0,0,5.6-11.8,7.2-15.2c1.6-3.3,12.9,1.3,11.7,5.8
			c-1.2,4.6-6.7,15.6-6.7,15.6"/>
		<path fill="#FCEE21" d="M1104.9,158.1c6.8-2.3,10.3-9.7,8-16.4c-2.3-6.8-9.7-10.3-16.5-8c-6.8,2.3-10.3,9.7-8,16.4
			C1090.8,156.8,1098.2,160.4,1104.9,158.1z"/>
		<path fill="#FCEE21" stroke="#000000" stroke-width="2" d="M1104.9,158.1c6.8-2.3,10.3-9.7,8-16.4c-2.3-6.8-9.7-10.3-16.5-8
			c-6.8,2.3-10.3,9.7-8,16.4C1090.8,156.8,1098.2,160.4,1104.9,158.1z"/>
		<polyline fill="#FCEE21" points="1092.4,216.1 1166.1,190.7 1139.4,147.7 1093.9,163.4 		"/>
		<polyline fill="#FCEE21" stroke="#000000" stroke-width="2" points="1092.4,216.1 1166.1,190.7 1139.4,147.7 1093.9,163.4 		"/>
		<path fill="#FCEE21" d="M1170.6,190.1c14.5-5,22.2-20.8,17.2-35.2c-5-14.5-20.8-22.2-35.3-17.2c-14.5,5-22.2,20.8-17.2,35.2
			C1140.3,187.4,1156.1,195.1,1170.6,190.1z"/>
		<path fill="#FCEE21" stroke="#000000" stroke-width="2" d="M1170.6,190.1c14.5-5,22.2-20.8,17.2-35.2c-5-14.5-20.8-22.2-35.3-17.2
			c-14.5,5-22.2,20.8-17.2,35.2C1140.3,187.4,1156.1,195.1,1170.6,190.1z"/>
		<path fill="#FCEE21" d="M1165.2,174.4c5.8-2,8.9-8.3,6.9-14.1c-2-5.8-8.3-8.9-14.1-6.9c-5.8,2-8.9,8.3-6.9,14.1
			C1153.1,173.3,1159.4,176.4,1165.2,174.4z"/>
		<path fill="#FCEE21" stroke="#000000" stroke-width="2" d="M1165.2,174.4c5.8-2,8.9-8.3,6.9-14.1c-2-5.8-8.3-8.9-14.1-6.9
			c-5.8,2-8.9,8.3-6.9,14.1C1153.1,173.3,1159.4,176.4,1165.2,174.4z"/>
		<path fill="#FCEE21" stroke="#000000" stroke-width="2" d="M1078.5,156.3c0,0,33.5,16.1,36.4,18.6c2.9,2.5,3.9,2.9,4.1,5.6
			c0.2,2.7-0.6,4.3-3,7.3c-2.5,2.9-5.7,1.9-8.2,0.6c-2.5-1.2-35.1-15.5-35.1-15.5 M1095.9,196.5l-5.5,11.2 M1099.7,197.8l-1.1,2.9
			c0,0,10.9,4,12.4,4c1.5,0,4.9-13.6,4.9-13.6l-3.5-1.4 M1094.7,195.8c0,0,2.5,1.3,4.2,1.7c1.6,0.4,4.1-8.4,4.1-8.4l-5-1.7
			 M1084.8,194l9.4,2.8l4.1-11.7 M1025.1,164.1c-2.9,1-4.1,3.3-4.9,7c-0.8,3.7,3.9,6.1,7.6,6.9c3.7,0.8,20.4,6.1,20.4,6.1l19.8,56.2
			c0,0-24.7,8.4-27.7,9.5c-5.7,2-3.1,11.4,2.6,9.5c3.1-1.1,45.7-15.1,48.8-16.1c3.1-1.1,4.9-4.9,4.5-6.2c-0.4-1.2-3.5-20.6-4.8-27
			c-0.8-3.9-2.6-8-3.3-9.8c-0.6-1.9-12.9-21.7-12.9-21.7 M1108.9,188.6l-35.1-10.7c0,0-8.9,4.9-15.5,1.7c-6.6-3.2-10.8-9.9-10.8-9.9
			l-44.2-11.1c0,0-2.5-0.4-3.3,1.2c-0.8,1.6-3,5.3-3.2,8.9c-0.2,3.5-0.2,7.9,2.2,8.8c2.4,0.9,22.9,7.1,22.9,7.1"/>
		<path fill="#FCEE21" d="M1050.1,164.5c0.1,0.5,0.3,1,0.4,1.4c2.7,7.7,11.1,11.8,18.8,9.2c7.7-2.7,11.8-11.1,9.2-18.8
			c-2.7-7.7-11.1-11.8-18.8-9.2c-1.4,0.5-2.7,1.1-3.8,2l-0.5-0.3c0,0-48.1-17.1-51.8-17.9c-3.7-0.8-9.1-2.4-13.2,1.8
			c-4.1,4.2-7.5,14.3-7.5,14.3l66.1,17.3L1050.1,164.5z"/>
		<path fill="#FCEE21" stroke="#000000" stroke-width="2" d="M1050.1,164.5c0.1,0.5,0.3,1,0.4,1.4c2.7,7.7,11.1,11.8,18.8,9.2
			c7.7-2.7,11.8-11.1,9.2-18.8c-2.7-7.7-11.1-11.8-18.8-9.2c-1.4,0.5-2.7,1.1-3.8,2l-0.5-0.3c0,0-48.1-17.1-51.8-17.9
			c-3.7-0.8-9.1-2.4-13.2,1.8c-4.1,4.2-7.5,14.3-7.5,14.3l66.1,17.3L1050.1,164.5z"/>
		<path fill="#FCEE21" d="M1066.9,168.1c3.9-1.3,5.9-5.5,4.6-9.4c-1.3-3.9-5.5-5.9-9.4-4.6c-3.9,1.3-5.9,5.5-4.6,9.4
			C1058.8,167.4,1063,169.4,1066.9,168.1z"/>
		<path fill="#FCEE21" stroke="#000000" stroke-width="2" d="M1066.9,168.1c3.9-1.3,5.9-5.5,4.6-9.4c-1.3-3.9-5.5-5.9-9.4-4.6
			c-3.9,1.3-5.9,5.5-4.6,9.4C1058.8,167.4,1063,169.4,1066.9,168.1z"/>
		<path fill="#FCEE21" d="M1157.2,258.2c0,0-15.9-12.6-19.4-15.8c-1.7-1.5-4-3.1-6-6.8c-3.7-7.1-9.6-18.3-10.6-21.2
			c-1.3-3.6,6.4-5.6,7.6-1.9s7.4,17.2,8.7,19.3c1.3,2.2,2.6,4.8,4.9,6.7c3.4,2.8,18,15.9,18,15.9"/>
		<path fill="#FCEE21" stroke="#000000" stroke-width="2" d="M1157.2,258.2c0,0-15.9-12.6-19.4-15.8c-1.7-1.5-4-3.1-6-6.8
			c-3.7-7.1-9.6-18.3-10.6-21.2c-1.3-3.6,6.4-5.6,7.6-1.9s7.4,17.2,8.7,19.3c1.3,2.2,2.6,4.8,4.9,6.7c3.4,2.8,18,15.9,18,15.9"/>
		<path fill="#FCEE21" d="M1160.5,265.4c-7.3-5.6,0.7-14.6,8-11c7.6,3.7,10.6,6.5,10.6,6.5s19.4,21.3,26.5,31.7
			c7.8,11.5-4.3,19.2-12.4,9.1c-7.2-8.9-24.4-29.4-24.4-29.4S1166.6,270.1,1160.5,265.4z"/>
		<path fill="#FCEE21" stroke="#000000" stroke-width="2" d="M1160.5,265.4c-7.3-5.6,0.7-14.6,8-11c7.6,3.7,10.6,6.5,10.6,6.5
			s19.4,21.3,26.5,31.7c7.8,11.5-4.3,19.2-12.4,9.1c-7.2-8.9-24.4-29.4-24.4-29.4S1166.6,270.1,1160.5,265.4z"/>
		<path fill="#FCEE21" stroke="#000000" stroke-width="2" d="M1173.6,277.4c0,0-2.9-7.3,0.5-10.5c3.4-3.2,7-2.8,9.8-0.6"/>
		<path fill="#FCEE21" d="M1201.1,590.5c0,0,9.4-37.9,13.3-62.8c3.9-24.8,0.7-53.3-14.9-82.5c-15.6-29.2-31-56.7-59.9-103.4
			c-30.4-49.1-39.6-69.5-48.3-98.5l-20.7,6.6c9,30.1,20.5,54.1,46.2,96.4c25.6,42.3,45.9,75.4,61.5,104.6
			c15.6,29.2,16.8,52.2,13,77.1c-3.9,24.8-12.4,56.8-12.4,56.8"/>
		<path fill="#FCEE21" stroke="#000000" stroke-width="2" d="M1201.1,590.5c0,0,9.4-37.9,13.3-62.8c3.9-24.8,0.7-53.3-14.9-82.5
			c-15.6-29.2-31-56.7-59.9-103.4c-30.4-49.1-39.6-69.5-48.3-98.5l-20.7,6.6c9,30.1,20.5,54.1,46.2,96.4
			c25.6,42.3,45.9,75.4,61.5,104.6c15.6,29.2,16.8,52.2,13,77.1c-3.9,24.8-12.4,56.8-12.4,56.8"/>
		<path fill="#FCEE21" d="M1167.2,621.4l26.1,6.7c0,0,3.8,0.4,4.3-1.5c0.5-1.9-2.9-3.7-2.9-3.7l-26.4-7.1c0,0-3.2-0.5-3.9,2
			C1163.7,620.4,1167.2,621.4,1167.2,621.4z"/>
		<path fill="#FCEE21" stroke="#000000" stroke-width="2" d="M1167.2,621.4l26.1,6.7c0,0,3.8,0.4,4.3-1.5c0.5-1.9-2.9-3.7-2.9-3.7
			l-26.4-7.1c0,0-3.2-0.5-3.9,2C1163.7,620.4,1167.2,621.4,1167.2,621.4z"/>
		<path fill="#FCEE21" d="M1175.7,589.6l26.1,6.7c0,0,3.7,0.6,4.3-1.5c0.6-2.1-2.9-3.7-2.9-3.7l-26.4-7.1c0,0-3.4,0.1-3.9,2
			C1172.3,587.9,1175.7,589.6,1175.7,589.6z"/>
		<path fill="#FCEE21" stroke="#000000" stroke-width="2" d="M1175.7,589.6l26.1,6.7c0,0,3.7,0.6,4.3-1.5c0.6-2.1-2.9-3.7-2.9-3.7
			l-26.4-7.1c0,0-3.4,0.1-3.9,2C1172.3,587.9,1175.7,589.6,1175.7,589.6z"/>
		<path fill="#FCEE21" d="M1204.2,601.8c-0.8,2.9-1.4,3.9-4.3,3.1l-26.9-7c-2.9-0.8-2.8-2-2.1-4.9l0.1-0.2c0.7-2.9,1.3-4,4.2-3.3
			l26.8,7.2c2.9,0.7,2.9,1.9,2.2,4.8L1204.2,601.8z"/>
		<path fill="#FCEE21" stroke="#000000" stroke-width="2" d="M1204.2,601.8c-0.8,2.9-1.4,3.9-4.3,3.1l-26.9-7
			c-2.9-0.8-2.8-2-2.1-4.9l0.1-0.2c0.7-2.9,1.3-4,4.2-3.3l26.8,7.2c2.9,0.7,2.9,1.9,2.2,4.8L1204.2,601.8z"/>
		<path fill="#FCEE21" d="M1199.7,618.6c-0.8,2.9-1.7,5.1-4.6,4.3l-26.9-7c-2.9-0.8-2.5-3.2-1.7-6.1l2-7.5c0.7-2.9,1.6-5.2,4.5-4.5
			l26.8,7.2c2.9,0.7,2.6,3.1,1.9,6.1L1199.7,618.6z"/>
		<path fill="#FCEE21" stroke="#000000" stroke-width="2" d="M1167,696.2c3.8-1.2,5.9-5.3,4.6-9.1c-1.2-3.8-5.3-5.9-9.1-4.6
			c-3.8,1.2-5.9,5.3-4.6,9.1C1159.1,695.3,1163.2,697.4,1167,696.2z M1172.4,672.9c3.8-1.2,5.9-5.3,4.6-9.1
			c-1.2-3.8-5.3-5.9-9.1-4.6c-3.8,1.2-5.9,5.3-4.6,9.1C1164.5,672.1,1168.6,674.1,1172.4,672.9z M1177.8,649.7
			c3.8-1.2,5.9-5.3,4.6-9.1c-1.2-3.8-5.3-5.9-9.1-4.6c-3.8,1.2-5.9,5.3-4.6,9.1C1169.9,648.8,1174,650.9,1177.8,649.7z"/>
		<path fill="#FCEE21" d="M1195.6,634.5c0.7-2.9-1-5.9-3.9-6.6l-22.7-6.1c-2.9-0.7-5.9,1-6.6,3.9l-18.5,66.1l-2.7,0.3
			c-3.6,0.1-5.9,0.8-6.8,3.7l-12.4,41.6c-0.9,2.9,0.8,5.9,3.7,6.8l41.7,12.4c2.9,0.9,5.9-0.8,6.8-3.7l12.4-41.6
			c0.9-2.9-0.8-4.9-3.7-6.8l-2.8-1.9c0,0-2.2-2.4-1.3-4.5c0.9-2.1,5.6-1.9,5.6-1.9l40.3,8.4c0,0,1.3,2.6,3.4,3.2
			c2.4,0.7,4.3-1.9,4.3-1.9l1.1-4.2l-50.1-14.9L1195.6,634.5z"/>
		<path fill="#FCEE21" d="M1110.8,276c0,0-15.4,9.2-17.7,10.5c-2.4,1.3-0.9,5.5,2.7,3.8c2.6-1.3,13-6.9,17.1-9
			c1.5-0.8,5.1-1.4,5.1-1.4"/>
		<path fill="#FCEE21" stroke="#000000" stroke-width="2" d="M1110.8,276c0,0-15.4,9.2-17.7,10.5c-2.4,1.3-0.9,5.5,2.7,3.8
			c2.6-1.3,13-6.9,17.1-9c1.5-0.8,5.1-1.4,5.1-1.4"/>
		<path fill="#FCEE21" stroke="#000000" stroke-width="2" d="M1107.3,272c0.8,0.8,2.6,1.4,4.4,5.7c1.7,4.3,1.1,9.7,1.1,9.7"/>
	</g>
	<path fill="#FCEE21" stroke="#000000" stroke-width="2" stroke-opacity="0.3" d="M1199.7,618.6c-0.8,2.9-1.7,5.1-4.6,4.3l-26.9-7
		c-2.9-0.8-2.5-3.2-1.7-6.1l2-7.5c0.7-2.9,1.6-5.2,4.5-4.5l26.8,7.2c2.9,0.7,2.6,3.1,1.9,6.1L1199.7,618.6z"/>
</g>
<rect x="969.5" y="337.2" fill="none" width="183.2" height="78.7"/>
<text transform="matrix(1 0 0 1 969.4661 347.0309)"><tspan x="0" y="0" font-family="'FedraSerifAStd-Bold'" font-size="12.8276">BRIAN JOSEPH BURTON</tspan><tspan x="0" y="17" font-family="'FedraSerifAStd-BookItalic'" font-size="11">Musician, songwriter </tspan><tspan x="0" y="30.2" font-family="'FedraSerifAStd-BookItalic'" font-size="11">and producer, best known as half-part </tspan><tspan x="0" y="43.4" font-family="'FedraSerifAStd-BookItalic'" font-size="11">of Gnarls Barkley project.</tspan></text>
<path fill="#FCEE21" stroke="#000000" stroke-width="2" stroke-opacity="0.3" d="M1195.6,634.5c0.7-2.9-1-5.9-3.9-6.6l-22.7-6.1
	c-2.9-0.7-5.9,1-6.6,3.9l-18.5,66.1l-2.7,0.3c-3.6,0.1-5.9,0.8-6.8,3.7l-12.4,41.6c-0.9,2.9,0.8,5.9,3.7,6.8l41.7,12.4
	c2.9,0.9,5.9-0.8,6.8-3.7l12.4-41.6c0.9-2.9-0.8-4.9-3.7-6.8l-2.8-1.9c0,0-2.2-2.4-1.3-4.5c0.9-2.1,5.6-1.9,5.6-1.9l40.3,8.4
	c0,0,1.3,2.6,3.4,3.2c2.4,0.7,4.3-1.9,4.3-1.9l1.1-4.2l-50.1-14.9L1195.6,634.5z"/>
<path fill="#FCEE21" stroke="#000000" stroke-width="2" stroke-opacity="0.3" d="M1148.8,710.6c0.7-2.3-0.6-4.6-2.9-5.3
	c-2.3-0.7-4.6,0.6-5.3,2.9l-4.8,16.4c-0.7,2.3,0.6,4.6,2.9,5.3c2.3,0.7,4.6-0.7,5.3-2.9L1148.8,710.6z M1176.6,717.5
	c0.7-2.3-0.6-4.6-2.9-5.3c-2.3-0.7-4.6,0.6-5.3,2.9l-4.8,16.4c-0.7,2.3,0.6,4.6,2.9,5.3c2.3,0.7,4.6-0.6,5.3-2.9L1176.6,717.5z"/>
<rect x="48" y="1258.2" width="341.8" height="6.5"/>
<rect x="901.4" y="1143.5" fill="none" width="323.3" height="154.8"/>
<text transform="matrix(1 0 0 1 961.0228 1154.9226)" opacity="0.6"><tspan x="0" y="0" font-family="'FedraSerifAStd-BookItalic'" font-size="15">Data source: </tspan><tspan x="80.6" y="0" font-family="'FedraSerifAStd-BoldItalic'" font-size="15">WhoSampled.com</tspan><tspan x="6.3" y="22" font-family="'FedraSerifAStd-BookItalic'" font-size="15">Data Scraping Tool:</tspan><tspan x="129.8" y="22" font-family="'ACaslonPro-Bold'" font-size="15"> </tspan><tspan x="132.8" y="22" font-family="'FedraSerifAStd-BoldItalic'" font-size="15">Import.io</tspan><tspan x="-56.3" y="44" font-family="'FedraSerifAStd-BookItalic'" font-size="15">Visualization sketching:</tspan><tspan x="92.2" y="44" font-family="'FedraSerifAStd-BoldItalic'" font-size="15"> RAW by Density Design</tspan><tspan x="-5.8" y="66" font-family="'FedraSerifAStd-BookItalic'" font-size="15">Network Analysis Software:</tspan><tspan x="167.4" y="66" font-family="'ACaslonPro-Bold'" font-size="15"> </tspan><tspan x="170.4" y="66" font-family="'FedraSerifAStd-BoldItalic'" font-size="15">Gephi</tspan><tspan x="-53.4" y="110" font-family="'FedraSerifAStd-BookItalic'" font-size="15">Data analysis and visualization:</tspan><tspan x="145" y="110" font-family="'FedraSerifAStd-BoldItalic'" font-size="15"> Emanuele Conti</tspan></text>
<g opacity="0.6">
	<g>
		<path d="M1108.8,1112.8h-91.5c-1.2,0-2.1-1-2.1-2.1v-91.5c0-1.2,1-2.1,2.1-2.1h91.5c1.2,0,2.1,1,2.1,2.1v91.5
			C1111,1111.8,1110,1112.8,1108.8,1112.8L1108.8,1112.8z M1019.4,1108.5h87.2v-87.2h-87.2V1108.5L1019.4,1108.5z"/>
	</g>
	<path d="M1045.3,1041.8h-10.2c-0.9,0-1.6,0.7-1.6,1.6c0,0.9,0.7,1.6,1.6,1.6h3.5v12.5c0,0.9,0.7,1.6,1.6,1.6c0.9,0,1.6-0.7,1.6-1.6
		v-12.5h3.5c0.9,0,1.6-0.7,1.6-1.6C1046.9,1042.6,1046.2,1041.8,1045.3,1041.8z"/>
	<path d="M1045.3,1070.2h-10.2c-0.9,0-1.6,0.7-1.6,1.6c0,0.9,0.7,1.6,1.6,1.6h3.5v12.5c0,0.9,0.7,1.6,1.6,1.6c0.9,0,1.6-0.7,1.6-1.6
		v-12.5h3.5c0.9,0,1.6-0.7,1.6-1.6C1046.9,1070.9,1046.2,1070.2,1045.3,1070.2z"/>
	<path d="M1068.7,1041.8c-0.9,0-1.6,0.7-1.6,1.6v8.5c0,2.2-1.8,4-4,4c-2.2,0-4-1.8-4-4v-8.5c0-0.9-0.7-1.6-1.6-1.6
		c-0.9,0-1.6,0.7-1.6,1.6v8.5c0,4,3.2,7.2,7.2,7.2c4,0,7.2-3.2,7.2-7.2v-8.5C1070.3,1042.5,1069.6,1041.8,1068.7,1041.8z"/>
	<path d="M1088.7,1050.4l4.5-6.2c0.5-0.8,0.4-1.7-0.3-2.2c-0.7-0.5-1.7-0.4-2.3,0.4l-3.9,5.3l-3.9-5.3c-0.3-0.4-0.8-0.7-1.3-0.7
		c-0.3,0-0.7,0.1-1,0.3c-0.7,0.5-0.9,1.5-0.4,2.2l4.5,6.2l-4.5,6.2c-0.2,0.4-0.3,0.8-0.3,1.2c0.1,0.4,0.3,0.8,0.6,1
		c0.7,0.5,1.7,0.4,2.2-0.3l3.9-5.4l3.9,5.4c0.3,0.4,0.8,0.7,1.3,0.7c0.3,0,0.6-0.1,0.9-0.3c0.3-0.2,0.6-0.6,0.6-1
		c0.1-0.4,0-0.9-0.3-1.2L1088.7,1050.4z"/>
	<path d="M1088.7,1078.9l4.5-6.2c0.5-0.8,0.4-1.7-0.3-2.2c-0.7-0.5-1.7-0.4-2.3,0.3l-3.9,5.3l-3.9-5.3c-0.3-0.4-0.8-0.7-1.3-0.7
		c-0.3,0-0.7,0.1-1,0.3c-0.7,0.5-0.9,1.5-0.4,2.2l4.5,6.2l-4.5,6.2c-0.2,0.3-0.3,0.8-0.3,1.2c0.1,0.4,0.3,0.8,0.6,1
		c0.7,0.5,1.7,0.4,2.2-0.3l3.9-5.4l3.9,5.4c0.3,0.4,0.8,0.7,1.3,0.7c0.3,0,0.6-0.1,0.9-0.3c0.3-0.2,0.6-0.6,0.6-1
		c0.1-0.4,0-0.9-0.3-1.2L1088.7,1078.9z"/>
	<path d="M1066.1,1083.5h-6l-1.2,3.2c-0.2,0.5-0.7,0.9-1.3,0.9c-0.2,0-0.3,0-0.5-0.1c-0.7-0.3-1.1-1.1-0.8-1.8l5.4-14.5
		c0.2-0.5,0.8-0.9,1.3-0.9c0.6,0,1.1,0.3,1.3,0.9l5.4,14.5c0.2,0.7-0.1,1.5-0.8,1.8c-0.1,0-0.3,0.1-0.5,0.1c-0.5,0-1.1-0.3-1.3-0.9
		L1066.1,1083.5z M1065.1,1080.8l-2-5.3l-2,5.3H1065.1z"/>
</g>
</svg>
