<?xml version="1.0" encoding="utf-8"?>
<!-- Generator: Adobe Illustrator 18.1.1, SVG Export Plug-In . SVG Version: 6.00 Build 0)  -->
<!DOCTYPE svg PUBLIC "-//W3C//DTD SVG 1.1//EN" "http://www.w3.org/Graphics/SVG/1.1/DTD/svg11.dtd">
<?xml-stylesheet type="text/css" href="../style.css" ?>
<svg version="1.1" id="Livello_1" xmlns="http://www.w3.org/2000/svg" xmlns:xlink="http://www.w3.org/1999/xlink" x="0px" y="0px"
	 viewBox="0 0 2560 668" enable-background="new 0 0 2560 668" xml:space="preserve">
<defs>
      <clipPath id="clipPath">
          <rect x="0" y="0" width="1280" height="668" />
      </clipPath>
</defs>
<g clip-path="url(#clipPath)">
<g id="maing">
<rect x="1279.5" y="-2.7" fill="#FCEE21" width="1281" height="670.4"/>
<rect x="-0.5" y="0.4" fill="#FCEE21" width="1281" height="667.3"/>
<polyline class="right" fill="none" stroke="#000000" stroke-width="2" stroke-miterlimit="10" points="1220.9,323.8 1246.3,298.4 1222.3,274.3 
	"/>
<rect x="-0.5" y="652.8" width="1280" height="14.8"/>
<g>
	<path d="M57.4,63.4c0-2.1-0.6-3.6-1.8-4.6c-1.2-0.9-2.6-1.4-4.1-1.4h-2v-0.7h39.1v0.7h-2c-1.5,0-2.9,0.5-4.1,1.4
		c-1.2,1-1.8,2.5-1.8,4.5v44.1c0,2.3-0.4,4.6-1.2,6.8c-0.8,2.2-2.3,4.2-4.3,5.9c-2,1.7-4.8,3.2-8.1,4.3c-3.4,1.1-7.6,1.6-12.8,1.6
		c-4,0-7.4-0.5-10.2-1.5c-2.8-1-5.1-2.2-6.8-3.8c-1.7-1.5-3-3.2-3.8-5.1c-0.8-1.9-1.2-3.7-1.2-5.5c0-2.2,0.7-4.1,2.2-5.8
		c1.5-1.7,3.5-2.6,6.2-2.6c1.2,0,2.3,0.2,3.2,0.7c1,0.5,1.7,1.1,2.4,1.8c0.6,0.7,1.1,1.5,1.4,2.3c0.3,0.8,0.5,1.6,0.5,2.2
		c-0.3,0.9-0.5,1.9-0.8,3.1c-0.3,1.1-0.4,2.8-0.4,5c0,2.7,0.5,4.8,1.6,6.1c1.1,1.4,2.4,2.1,3.8,2.1c1.5,0,2.7-0.5,3.6-1.4
		c1-1,1.4-2.6,1.4-5V63.4z"/>
	<path d="M111.9,124.1v-0.6h2c1.5,0,2.9-0.5,4.1-1.5c1.2-1,1.8-2.5,1.8-4.5V63.4c0-1.9-0.6-3.4-1.8-4.4c-1.2-1-2.6-1.5-4.1-1.5h-2
		v-0.7H152c5.4,0,10.2,0.8,14.4,2.5c4.2,1.7,7.6,4,10.4,6.9c2.8,3,4.9,6.5,6.3,10.6c1.4,4.1,2.1,8.7,2.1,13.6c0,5-0.8,9.5-2.3,13.6
		c-1.5,4.1-3.7,7.7-6.6,10.6c-2.9,3-6.5,5.3-10.7,6.9c-4.3,1.7-9.1,2.5-14.5,2.5H111.9z M143.1,57.6v60.3c0,1.6,0.3,2.9,1,3.9
		c0.7,1,2,1.5,3.9,1.5c1.6,0,3.2-0.6,4.8-1.7c1.6-1.1,3.1-3,4.5-5.5c1.4-2.6,2.4-6,3.3-10.1c0.8-4.2,1.2-9.4,1.2-15.5
		c0-5.9-0.4-11-1.1-15.1c-0.7-4.2-1.7-7.5-3-10.1c-1.3-2.6-2.7-4.5-4.3-5.7c-1.6-1.2-3.3-1.8-5.1-1.8H143.1z"/>
	<path d="M183.2,124.1v-0.6h2c1.5,0,2.9-0.5,4.1-1.5c1.2-1,1.8-2.5,1.8-4.4V63.4c0-2-0.6-3.5-1.8-4.5c-1.2-1-2.6-1.5-4.1-1.5h-2
		v-0.7h39.1v0.7h-2c-1.5,0-2.9,0.5-4.1,1.5c-1.2,1-1.8,2.5-1.8,4.5v54.2c0,2.1,0.6,3.6,1.8,4.6c1.2,0.9,2.6,1.4,4.1,1.4h2v0.6H183.2
		z"/>
	<path d="M224.2,124.1v-0.6h2c1.5,0,2.9-0.5,4.1-1.4c1.2-0.9,1.8-2.4,1.8-4.6V63.4c0-2-0.6-3.5-1.8-4.5c-1.2-1-2.6-1.5-4.1-1.5h-2
		v-0.7h39.1v0.7h-2c-1.5,0-2.9,0.5-4.1,1.4c-1.2,1-1.8,2.5-1.8,4.5v54.5c0,1.7,0.5,3.1,1.4,4c0.9,1,2.3,1.4,4.3,1.4
		c2.2,0,4.4-0.5,6.7-1.6c2.3-1.1,4.5-2.5,6.7-4.3c2.2-1.8,4.2-3.9,6.2-6.4c1.9-2.4,3.7-5,5.2-7.8h0.8l-5.9,20.9H224.2z"/>
	<path d="M284.1,124.1v-0.6h2c1.5,0,2.9-0.5,4.1-1.4c1.2-0.9,1.8-2.4,1.8-4.6V63.4c0-2-0.6-3.5-1.8-4.5c-1.2-1-2.6-1.5-4.1-1.5h-2
		v-0.7h39.1v0.7h-2c-1.5,0-2.9,0.5-4.1,1.4c-1.2,1-1.8,2.5-1.8,4.5v54.5c0,1.7,0.5,3.1,1.4,4c0.9,1,2.3,1.4,4.3,1.4
		c2.2,0,4.4-0.5,6.7-1.6c2.3-1.1,4.5-2.5,6.7-4.3c2.2-1.8,4.2-3.9,6.2-6.4c1.9-2.4,3.7-5,5.2-7.8h0.8l-5.9,20.9H284.1z"/>
	<path d="M378.1,124.1v-0.6h2c2.3,0,3.9-0.4,4.9-1.2c1-0.8,1.4-2,1.4-3.5c0-0.9-0.2-1.9-0.5-3.2c-0.3-1.3-0.7-2.7-1.2-4.1
		c-0.5-1.5-1-2.9-1.5-4.4c-0.5-1.5-1-2.9-1.4-4.2h-22.6l-1.6,3.9c-0.7,1.6-1.3,3.4-2,5.6c-0.7,2.1-1,4.1-1.1,5.8
		c0,1.6,0.4,2.9,1.3,3.9c0.9,1,2.5,1.5,4.8,1.5h1.3v0.6h-19.4v-0.6h1.5c1.5,0,3.1-0.5,4.8-1.4c1.6-1,3-2.8,4.1-5.5l17.9-46.8
		l-1.8-5.4c1.2-0.5,2.7-1.2,4.4-2c1.7-0.8,3.5-1.7,5.4-2.7c1.8-1,3.6-1.9,5.4-2.8c1.7-0.9,3.2-1.7,4.4-2.5l21.2,62.3
		c0.9,2.6,2,4.5,3.3,5.4c1.3,1,2.7,1.5,4.2,1.5h1.5v0.6H378.1z M371.2,71.1l-11.7,31h22L371.2,71.1z"/>
</g>
<g opacity="0.52">
	<circle cx="564.2" cy="605.5" r="6.6"/>
	<circle fill="#666666" cx="589.6" cy="605.5" r="6.6"/>
	<circle fill="#666666" cx="615.1" cy="605.5" r="6.6"/>
	<circle fill="#666666" cx="640.5" cy="605.5" r="6.6"/>
	<circle fill="#666666" cx="665.9" cy="605.5" r="6.6"/>
	<circle fill="#666666" cx="691.4" cy="605.5" r="6.6"/>
	<circle fill="#666666" cx="716.8" cy="605.5" r="6.6"/>
</g>
<rect x="945.2" y="435.6" fill="none" width="230.3" height="224.6"/>
<text transform="matrix(1 0 0 1 945.1755 452.1544)"><tspan x="0" y="0" font-family="'FedraSerifAStd-Bold'" font-size="21.6692">JAMES DEWITT </tspan><tspan x="0" y="26" font-family="'FedraSerifAStd-Bold'" font-size="21.6692">YANCEY</tspan><tspan x="0" y="54.7" font-family="'FedraSerifAStd-BookItalic'" font-size="18.5819">Probably the most famous </tspan><tspan x="0" y="77" font-family="'FedraSerifAStd-BookItalic'" font-size="18.5819">and prolific beats producer </tspan><tspan x="0" y="99.3" font-family="'FedraSerifAStd-BookItalic'" font-size="18.5819">(deceased in 2006) at 32.</tspan></text>
<g transform="translate(0,560)">
	<line fill="none" stroke="#666666" stroke-width="0.5" x1="78.5" y1="-259.6" x2="392.8" y2="-259.6"/>
</g>
<g transform="translate(0,560)">
	<line fill="none" stroke="#666666" stroke-width="0.5" x1="212.2" y1="-91.2" x2="212.2" y2="-143.1"/>
</g>
<path opacity="0.74" fill="#999999" fill-opacity="0.9" stroke="#FFFFFF" stroke-miterlimit="10" d="M390.8,297.4l16.5-0.4
	c16.5-0.4,49.5-1.3,74.2-1.6s41.2,0.2,57.7,0.9s33,1.6,49.5,0s33-5.5,49.5-6.5c16.5-1,33,1,49.5-0.9c16.5-1.9,24.1-7.7,40.5-7.2
	c16.5,0.4,25,7.1,41.5-1c16.5-8.1,33-31,49.5-40.3c16.5-9.3,33-5.1,49.5,4.8c16.5,9.9,49.8,25.4,66.3,35.2s33,5.8,49.5,4.1
	c16.5-1.7,33-9,49.5-9c16.5,0,33,15.3,57.7,18.8c24.7,3.4,57.7,3,82.5,3.1c24.7,0.1,41.2,0.8,49.5,1.1l8.2,0.3v4l-8.2,0.3
	c-8.2,0.3-24.7,1-49.5,1.1c-24.7,0.1-57.7-0.3-82.5,3.1c-24.7,3.4-41.2,18.8-57.7,18.8c-16.5,0-33-7.3-49.5-9
	c-16.5-1.7-33-5.7-49.5,4.1c-16.5,9.8-49.8,25.3-66.3,35.2c-16.5,9.9-33,14.1-49.5,4.8c-16.5-9.3-33-32.2-49.5-40.3
	c-16.5-8.1-25-1.4-41.5-1c-16.5,0.4-24.1-5.3-40.5-7.2c-16.5-1.9-33,0.1-49.5-0.9c-16.5-1-33-5-49.5-6.5c-16.5-1.6-33-0.7-49.5,0
	s-33,1.1-57.7,0.9c-24.7-0.2-57.7-1.1-74.2-1.6l-16.5-0.4"/>
<g>
	<circle fill="#BF6969" fill-opacity="0.9" cx="672" cy="300.6" r="7"/>
</g>
<g>
	<circle fill="#BF6969" fill-opacity="0.9" cx="672" cy="300.6" r="5.8"/>
</g>
<g>
	<circle fill="#BF6969" fill-opacity="0.9" cx="672" cy="300.6" r="4.1"/>
</g>
<g>
	<circle fill="#BF6969" fill-opacity="0.9" cx="905.8" cy="300.6" r="4.1"/>
</g>
<g>
	<circle fill="#BF6969" fill-opacity="0.9" cx="485" cy="300.6" r="4.1"/>
</g>
<g>
	<circle fill="#BF6969" fill-opacity="0.9" cx="485" cy="300.6" r="10.7"/>
</g>
<g>
	<circle fill="#BF6969" fill-opacity="0.9" cx="718.8" cy="300.6" r="9"/>
</g>
<g>
	<circle fill="#BF6969" fill-opacity="0.9" cx="812.3" cy="300.6" r="30.7"/>
</g>
<g>
	<circle fill="#BF6969" fill-opacity="0.9" cx="812.3" cy="300.6" r="17"/>
</g>
<g>
	<circle fill="#BF6969" fill-opacity="0.9" cx="812.3" cy="300.6" r="19.7"/>
</g>
<g>
	<circle fill="#BF6969" fill-opacity="0.9" cx="812.3" cy="300.6" r="4.1"/>
</g>
<g>
	<circle fill="#BF6969" fill-opacity="0.9" cx="672" cy="300.6" r="4.1"/>
</g>
<g>
	<circle fill="#BF6969" fill-opacity="0.9" cx="765.6" cy="300.6" r="4.1"/>
</g>
<g>
	<circle fill="#BF6969" fill-opacity="0.9" cx="578.5" cy="300.6" r="4.1"/>
</g>
<g>
	<circle fill="#BF6969" fill-opacity="0.9" cx="672" cy="300.6" r="5.8"/>
</g>
<g>
	<circle fill="#BF6969" fill-opacity="0.9" cx="1046.1" cy="300.6" r="5.8"/>
</g>
<g>
	<circle fill="#BF6969" fill-opacity="0.9" cx="859.1" cy="300.6" r="34.3"/>
</g>
<g>
	<circle fill="#BF6969" fill-opacity="0.9" cx="859.1" cy="300.6" r="5.8"/>
</g>
<g>
	<circle fill="#BF6969" fill-opacity="0.9" cx="905.8" cy="300.6" r="5.8"/>
</g>
<g>
	<circle fill="#BF6969" fill-opacity="0.9" cx="859.1" cy="300.6" r="4.1"/>
</g>
<g>
	<circle fill="#BF6969" fill-opacity="0.9" cx="1139.6" cy="300.6" r="5.8"/>
</g>
<g>
	<circle fill="#BF6969" fill-opacity="0.9" cx="905.8" cy="300.6" r="13.9"/>
</g>
<g>
	<g>
		<g>
			<circle opacity="0.9" fill="#BF6969" cx="999.3" cy="300.6" r="24.4"/>
		</g>
	</g>
</g>
<g>
	<circle fill="#BF6969" fill-opacity="0.9" cx="905.8" cy="300.6" r="4.1"/>
</g>
<g>
	<circle fill="#BF6969" fill-opacity="0.9" cx="531.8" cy="300.6" r="4.1"/>
</g>
<g>
	<circle fill="#BF6969" fill-opacity="0.9" cx="672" cy="300.6" r="5.8"/>
</g>
<g>
	<circle fill="#BF6969" fill-opacity="0.9" cx="578.5" cy="300.6" r="4.1"/>
</g>
<g>
	<circle fill="#BF6969" fill-opacity="0.9" cx="952.6" cy="300.6" r="8.1"/>
</g>
<g>
	<circle fill="#BF6969" fill-opacity="0.9" cx="1139.6" cy="300.6" r="8.1"/>
</g>
<g>
	<circle fill="#BF6969" fill-opacity="0.9" cx="718.8" cy="300.6" r="19.3"/>
</g>
<g>
	<circle fill="#BF6969" fill-opacity="0.9" cx="905.8" cy="300.6" r="9.9"/>
</g>
<g>
	<circle fill="#BF6969" fill-opacity="0.9" cx="578.5" cy="300.6" r="4.1"/>
</g>
<g>
	<circle fill="#BF6969" fill-opacity="0.9" cx="765.6" cy="300.6" r="4.1"/>
</g>
<g>
	<circle fill="#BF6969" fill-opacity="0.9" cx="391.5" cy="300.6" r="9"/>
</g>
<g>
	<circle fill="#BF6969" fill-opacity="0.9" cx="765.6" cy="300.6" r="7"/>
</g>
<g>
	<circle fill="#BF6969" fill-opacity="0.9" cx="1186.4" cy="300.6" r="4.1"/>
</g>
<g>
	<circle fill="#BF6969" fill-opacity="0.9" cx="531.8" cy="300.6" r="9.9"/>
</g>
<g>
	<circle fill="#BF6969" fill-opacity="0.9" cx="718.8" cy="300.6" r="5.8"/>
</g>
<g>
	<circle fill="#BF6969" fill-opacity="0.9" cx="718.8" cy="300.6" r="11.4"/>
</g>
<g>
	<circle fill="#BF6969" fill-opacity="0.9" cx="765.6" cy="300.6" r="7"/>
</g>
<g>
	<circle fill="#BF6969" fill-opacity="0.9" cx="859.1" cy="300.6" r="16.1"/>
</g>
<g>
	<circle fill="#BF6969" fill-opacity="0.9" cx="1186.4" cy="300.6" r="5.8"/>
</g>
<g>
	<circle fill="#BF6969" fill-opacity="0.9" cx="672" cy="300.6" r="4.1"/>
</g>
<g>
	<circle fill="#BF6969" fill-opacity="0.9" cx="1046.1" cy="300.6" r="4.1"/>
</g>
<g>
	<circle fill="#BF6969" fill-opacity="0.9" cx="485" cy="300.6" r="4.1"/>
</g>
<g>
	<circle fill="#BF6969" fill-opacity="0.9" cx="625.3" cy="300.6" r="5.8"/>
</g>
<g>
	<circle fill="#BF6969" fill-opacity="0.9" cx="1046.1" cy="300.6" r="4.1"/>
</g>
<g>
	<circle fill="#BF6969" fill-opacity="0.9" cx="625.3" cy="300.6" r="17.5"/>
</g>
<g>
	<circle cx="672" cy="300.6" r="1.9"/>
</g>
<g>
	<circle cx="672" cy="300.6" r="1.9"/>
</g>
<g>
	<circle cx="672" cy="300.6" r="1.9"/>
</g>
<g>
	<circle cx="905.8" cy="300.6" r="1.9"/>
</g>
<g>
	<circle cx="485" cy="300.6" r="1.9"/>
</g>
<g>
	<circle cx="485" cy="300.6" r="1.9"/>
</g>
<g>
	<circle cx="718.8" cy="300.6" r="1.9"/>
</g>
<g>
	<circle cx="812.3" cy="300.6" r="1.9"/>
</g>
<g>
	<circle cx="812.3" cy="300.6" r="1.9"/>
</g>
<g>
	<circle cx="812.3" cy="300.6" r="1.9"/>
</g>
<g>
	<circle cx="812.3" cy="300.6" r="1.9"/>
</g>
<g>
	<circle cx="672" cy="300.6" r="1.9"/>
</g>
<g>
	<circle cx="765.6" cy="300.6" r="1.9"/>
</g>
<g>
	<circle cx="578.5" cy="300.6" r="1.9"/>
</g>
<g>
	<circle cx="672" cy="300.6" r="1.9"/>
</g>
<g>
	<circle cx="1046.1" cy="300.6" r="1.9"/>
</g>
<g>
	<circle cx="859.1" cy="300.6" r="1.9"/>
</g>
<g>
	<circle cx="859.1" cy="300.6" r="1.9"/>
</g>
<g>
	<circle cx="905.8" cy="300.6" r="1.9"/>
</g>
<g>
	<circle cx="859.1" cy="300.6" r="1.9"/>
</g>
<g>
	<circle cx="1139.6" cy="300.6" r="1.9"/>
</g>
<g>
	<circle cx="905.8" cy="300.6" r="1.9"/>
</g>
<g>
	<circle cx="999.3" cy="300.6" r="1.9"/>
</g>
<g>
	<circle cx="905.8" cy="300.6" r="1.9"/>
</g>
<g>
	<circle cx="531.8" cy="300.6" r="1.9"/>
</g>
<g>
	<circle cx="672" cy="300.6" r="1.9"/>
</g>
<g>
	<circle cx="578.5" cy="300.6" r="1.9"/>
</g>
<g>
	<circle cx="952.6" cy="300.6" r="1.9"/>
</g>
<g>
	<circle cx="1139.6" cy="300.6" r="1.9"/>
</g>
<g>
	<circle cx="718.8" cy="300.6" r="1.9"/>
</g>
<g>
	<circle cx="905.8" cy="300.6" r="1.9"/>
</g>
<g>
	<circle cx="578.5" cy="300.6" r="1.9"/>
</g>
<g>
	<circle cx="765.6" cy="300.6" r="1.9"/>
</g>
<g>
	<circle cx="391.5" cy="300.6" r="1.9"/>
</g>
<g>
	<circle cx="765.6" cy="300.6" r="1.9"/>
</g>
<g>
	<circle cx="1186.4" cy="300.6" r="1.9"/>
</g>
<g>
	<circle cx="531.8" cy="300.6" r="1.9"/>
</g>
<g>
	<circle cx="718.8" cy="300.6" r="1.9"/>
</g>
<g>
	<circle cx="718.8" cy="300.6" r="1.9"/>
</g>
<g>
	<circle cx="765.6" cy="300.6" r="1.9"/>
</g>
<g>
	<circle cx="859.1" cy="300.6" r="1.9"/>
</g>
<g>
	<circle cx="1186.4" cy="300.6" r="1.9"/>
</g>
<g>
	<circle cx="672" cy="300.6" r="1.9"/>
</g>
<g>
	<circle cx="1046.1" cy="300.6" r="1.9"/>
</g>
<g>
	<circle cx="485" cy="300.6" r="1.9"/>
</g>
<g>
	<circle cx="625.3" cy="300.6" r="1.9"/>
</g>
<g>
	<circle cx="1046.1" cy="300.6" r="1.9"/>
</g>
<g>
	<circle cx="625.3" cy="300.6" r="1.9"/>
</g>
<line fill="none" stroke="#999999" x1="1139" y1="287.1" x2="1139" y2="173.1"/>
<rect x="1016.5" y="169.4" fill="none" width="112.1" height="78.7"/>
<text transform="matrix(1 0 0 1 1042.5244 179.1758)"><tspan x="0" y="0" font-family="'FedraSerifAStd-Bold'" font-size="12.8276">REBIRTH OF </tspan><tspan x="22.9" y="15.4" font-family="'FedraSerifAStd-Bold'" font-size="12.8276">DETROIT</tspan><tspan x="57.7" y="30.8" font-family="'FedraSerifAStd-Bold'" font-size="12.8276">2012</tspan><tspan x="34.2" y="44" font-family="'FedraSerifAStd-BookItalic'" font-size="11">(4 samples)</tspan></text>
<circle cx="1139.1" cy="172.2" r="2.2"/>
<line fill="none" stroke="#999999" x1="625" y1="284.1" x2="625" y2="173.1"/>
<rect x="501.5" y="169.4" fill="none" width="112.1" height="78.7"/>
<text transform="matrix(1 0 0 1 516.8394 179.1765)"><tspan x="0" y="0" font-family="'FedraSerifAStd-Bold'" font-size="12.8276">WELCOME TO </tspan><tspan x="33.6" y="15.4" font-family="'FedraSerifAStd-Bold'" font-size="12.8276">DETROIT</tspan><tspan x="66.5" y="30.8" font-family="'FedraSerifAStd-Bold'" font-size="12.8276">2001</tspan><tspan x="41.2" y="44" font-family="'FedraSerifAStd-BookItalic'" font-size="11">(19 samples)</tspan></text>
<circle cx="625.1" cy="172.2" r="2.2"/>
<line fill="none" stroke="#999999" x1="719" y1="284.1" x2="719" y2="173.1"/>
<rect x="596.3" y="171.2" fill="none" width="112.1" height="78.7"/>
<text transform="matrix(1 0 0 1 671.4995 180.9719)"><tspan x="0" y="0" font-family="'FedraSerifAStd-Bold'" font-size="12.8276">RUFF </tspan><tspan x="-10.7" y="15.4" font-family="'FedraSerifAStd-Bold'" font-size="12.8276">DRAFT</tspan><tspan x="6.4" y="30.8" font-family="'FedraSerifAStd-Bold'" font-size="12.8276">2003</tspan><tspan x="-18.4" y="44" font-family="'FedraSerifAStd-BookItalic'" font-size="11">(23 samples)</tspan></text>
<circle cx="719.1" cy="172.2" r="2.2"/>
<line fill="none" stroke="#999999" x1="858" y1="273.1" x2="858" y2="173.1"/>
<rect x="734.3" y="171.2" fill="none" width="112.1" height="78.7"/>
<text transform="matrix(1 0 0 1 786.2686 180.9719)"><tspan x="0" y="0" font-family="'FedraSerifAStd-Bold'" font-size="12.8276">DONUTS</tspan><tspan x="28.4" y="15.4" font-family="'FedraSerifAStd-Bold'" font-size="12.8276">2006</tspan><tspan x="5" y="28.6" font-family="'FedraSerifAStd-BookItalic'" font-size="11">(73 samples)</tspan></text>
<circle cx="858.1" cy="172.2" r="2.2"/>
<line fill="none" stroke="#999999" x1="997" y1="287.1" x2="997" y2="173.1"/>
<rect x="874.3" y="171.2" fill="none" width="112.1" height="78.7"/>
<text transform="matrix(1 0 0 1 883.6047 180.9721)"><tspan x="0" y="0" font-family="'FedraSerifAStd-Bold'" font-size="12.8276">JAY STAY PAID</tspan><tspan x="71.1" y="15.4" font-family="'FedraSerifAStd-Bold'" font-size="12.8276">2009</tspan><tspan x="47.6" y="28.6" font-family="'FedraSerifAStd-BookItalic'" font-size="11">(37 samples)</tspan></text>
<circle cx="997.1" cy="172.2" r="2.2"/>
<circle stroke="#FFFFFF" stroke-width="4" stroke-miterlimit="10" cx="212.2" cy="301.8" r="115.4"/>
<rect x="158.7" y="281.1" fill="none" width="106.9" height="75"/>
<text transform="matrix(1 0 0 1 196.5464 296.9055)"><tspan x="0" y="0" fill="#FFFFFF" font-family="'FeSaDisHeavyCond'" font-size="20.9787">382</tspan><tspan x="-14.4" y="18.1" fill="#FFFFFF" font-family="'FedraSerifAStd-BookItalic'" font-size="18">samples</tspan></text>
<g>
	<line fill="none" stroke="#999999" x1="130" y1="469.1" x2="130" y2="456.1"/>
	<circle cx="130.1" cy="455.2" r="2.2"/>
</g>
<g>
	<line fill="none" stroke="#999999" x1="438" y1="469.1" x2="438" y2="456.1"/>
	<circle cx="438.1" cy="455.2" r="2.2"/>
</g>
<g>
	<line fill="none" stroke="#999999" x1="747" y1="469.1" x2="747" y2="456.1"/>
	<circle cx="747.1" cy="455.2" r="2.2"/>
</g>
<g>
	<line fill="none" stroke="#999999" x1="735" y1="503.1" x2="735" y2="516.1"/>
	<circle cx="735.1" cy="516.6" r="2.2"/>
</g>
<g>
	<line fill="none" stroke="#999999" x1="532" y1="503.1" x2="532" y2="516.1"/>
	<circle cx="532.1" cy="516.6" r="2.2"/>
</g>
<g>
	<line fill="none" stroke="#999999" x1="389" y1="503.1" x2="389" y2="516.1"/>
	<circle cx="389.1" cy="516.6" r="2.2"/>
</g>
<g>
	<line fill="none" stroke="#999999" x1="128" y1="503.1" x2="128" y2="516.1"/>
	<circle cx="128.1" cy="516.6" r="2.2"/>
</g>
<polygon fill="#FFFFFF" points="744.5,468.1 726.5,468.1 535.5,468.1 529.5,468.1 439.5,468.1 436.5,468.1 390.5,468.1 387.5,468.1 
	166.5,468.1 130.5,468.1 129.5,468.1 126.5,468.1 126.5,503.1 129.5,503.1 130.5,503.1 166.5,503.1 387.5,503.1 390.5,503.1 
	436.5,503.1 439.5,503.1 529.5,503.1 535.5,503.1 726.5,503.1 744.5,503.1 750.5,503.1 750.5,468.1 "/>
<g>
	<rect x="126.5" y="468.1" fill="#999999" width="3" height="35"/>
	<rect x="129.5" y="468.1" fill="#DFDFDF" width="1" height="35"/>
	<rect x="130.5" y="468.1" fill="#4D4D4D" width="36" height="35"/>
	<rect x="166.5" y="468.1" fill="#999999" width="221" height="35"/>
	<rect x="390.5" y="468.1" fill="#4D4D4D" width="46" height="35"/>
	<rect x="436.5" y="468.1" fill="#999999" width="3" height="35"/>
	<rect x="439.5" y="468.1" fill="#DFDFDF" width="90" height="35"/>
	<rect x="535.5" y="468.1" fill="#999999" width="191" height="35"/>
	<rect x="726.5" y="468.1" fill="#DFDFDF" width="18" height="35"/>
	<rect x="744.5" y="468.1" fill="#4D4D4D" width="6" height="35"/>
	<rect x="387.5" y="468.1" fill="#DFDFDF" width="3" height="35"/>
	<rect x="529.5" y="468.1" fill="#4D4D4D" width="6" height="35"/>
</g>
<rect x="311" y="475" fill="none" width="66.6" height="27.8"/>
<text transform="matrix(1 0 0 1 358.1907 484.7956)"><tspan x="0" y="0" font-family="'FeSaDisHeavyCond'" font-size="13">135</tspan><tspan x="-41" y="11" font-family="'FedraSerifAStd-BookItalic'" font-size="11">hip-hop, RnB</tspan></text>
<rect x="373.8" y="425.2" fill="none" width="66.6" height="27.8"/>
<text transform="matrix(1 0 0 1 433.9487 434.9841)"><tspan x="0" y="0" font-family="'FeSaDisHeavyCond'" font-size="13">2</tspan><tspan x="-53.1" y="11" font-family="'FedraSerifAStd-BookItalic'" font-size="11">experimental</tspan></text>
<rect x="682.1" y="425.2" fill="none" width="66.6" height="27.8"/>
<text transform="matrix(1 0 0 1 742.1782 434.9841)"><tspan x="0" y="0" font-family="'FeSaDisHeavyCond'" font-size="13">2</tspan><tspan x="-49.6" y="11" font-family="'FedraSerifAStd-BookItalic'" font-size="11">spoken word</tspan></text>
<rect x="64.5" y="425.2" fill="none" width="66.6" height="27.8"/>
<text transform="matrix(1 0 0 1 124.5708 434.9841)"><tspan x="0" y="0" font-family="'FeSaDisHeavyCond'" font-size="13">1</tspan><tspan x="-29.7" y="11" font-family="'FedraSerifAStd-BookItalic'" font-size="11">easy list</tspan></text>
<rect x="63.8" y="524.2" fill="none" width="66.6" height="27.8"/>
<text transform="matrix(1 0 0 1 123.8823 533.9841)"><tspan x="0" y="0" font-family="'FeSaDisHeavyCond'" font-size="13">2</tspan><tspan x="-31.9" y="11" font-family="'FedraSerifAStd-BookItalic'" font-size="11">classical</tspan></text>
<rect x="671.4" y="524.2" fill="none" width="66.6" height="27.8"/>
<text transform="matrix(1 0 0 1 725.0212 533.9841)"><tspan x="0" y="0" font-family="'FeSaDisHeavyCond'" font-size="13">11</tspan><tspan x="-37.6" y="11" font-family="'FedraSerifAStd-BookItalic'" font-size="11">soundtrack</tspan></text>
<rect x="470.7" y="524.2" fill="none" width="66.6" height="27.8"/>
<text transform="matrix(1 0 0 1 530.7935 533.9841)"><tspan x="0" y="0" font-family="'FeSaDisHeavyCond'" font-size="13">4</tspan><tspan x="-48.2" y="11" font-family="'FedraSerifAStd-BookItalic'" font-size="11">world music</tspan></text>
<rect x="325.8" y="524.2" fill="none" width="66.6" height="27.8"/>
<text transform="matrix(1 0 0 1 385.9087 533.9841)"><tspan x="0" y="0" font-family="'FeSaDisHeavyCond'" font-size="13">1</tspan><tspan x="-57.5" y="11" font-family="'FedraSerifAStd-BookItalic'" font-size="11">tv commercial</tspan></text>
<rect x="131.5" y="475" fill="none" width="29.9" height="27.8"/>
<text transform="matrix(1 0 0 1 148.5789 484.7946)"><tspan x="0" y="0" fill="#FFFFFF" font-family="'FeSaDisHeavyCond'" font-size="13">22</tspan><tspan x="-13.9" y="11" fill="#FFFFFF" font-family="'FedraSerifAStd-BookItalic'" font-size="11">dance</tspan></text>
<rect x="447.7" y="475" fill="none" width="71.6" height="27.8"/>
<text transform="matrix(1 0 0 1 506.3625 484.7956)"><tspan x="0" y="0" fill="#666666" font-family="'FeSaDisHeavyCond'" font-size="13">22</tspan><tspan x="-27.3" y="11" fill="#666666" font-family="'FedraSerifAStd-BookItalic'" font-size="11">rock, pop</tspan></text>
<rect x="600.2" y="475" fill="none" width="115.2" height="27.8"/>
<text transform="matrix(1 0 0 1 696.0017 484.7956)"><tspan x="0" y="0" font-family="'FeSaDisHeavyCond'" font-size="13">117</tspan><tspan x="-52.6" y="11" font-family="'FedraSerifAStd-BookItalic'" font-size="11">soul, funk, disco</tspan></text>
<rect x="400.7" y="475" fill="none" width="32.3" height="27.8"/>
<text transform="matrix(1 0 0 1 420.1042 484.7946)"><tspan x="0" y="0" fill="#FFFFFF" font-family="'FeSaDisHeavyCond'" font-size="13">28</tspan><tspan x="-4.9" y="11" fill="#FFFFFF" font-family="'FedraSerifAStd-BookItalic'" font-size="11">jazz</tspan></text>
<polyline fill="none" stroke="#000000" stroke-width="2" stroke-miterlimit="10" points="1340.3,274.3 1314.9,299.7 1339,323.8 "/>
<polyline fill="none" stroke="#000000" stroke-width="2" stroke-miterlimit="10" points="2500.9,323.8 2526.3,298.4 2502.3,274.3 
	"/>
<rect x="1279.5" y="652.8" width="1280" height="14.8"/>
<g>
	<path d="M1337.4,63.4c0-2.1-0.6-3.6-1.8-4.6c-1.2-0.9-2.6-1.4-4.1-1.4h-2v-0.7h39.1v0.7h-2c-1.5,0-2.9,0.5-4.1,1.4
		c-1.2,1-1.8,2.5-1.8,4.5v44.1c0,2.3-0.4,4.6-1.2,6.8c-0.8,2.2-2.3,4.2-4.3,5.9c-2,1.7-4.8,3.2-8.1,4.3c-3.4,1.1-7.6,1.6-12.8,1.6
		c-4,0-7.4-0.5-10.2-1.5c-2.8-1-5.1-2.2-6.8-3.8c-1.7-1.5-3-3.2-3.8-5.1c-0.8-1.9-1.2-3.7-1.2-5.5c0-2.2,0.7-4.1,2.2-5.8
		c1.5-1.7,3.5-2.6,6.2-2.6c1.2,0,2.3,0.2,3.2,0.7c1,0.5,1.7,1.1,2.4,1.8c0.6,0.7,1.1,1.5,1.4,2.3c0.3,0.8,0.5,1.6,0.5,2.2
		c-0.3,0.9-0.5,1.9-0.8,3.1c-0.3,1.1-0.4,2.8-0.4,5c0,2.7,0.5,4.8,1.6,6.1c1.1,1.4,2.4,2.1,3.8,2.1c1.5,0,2.7-0.5,3.6-1.4
		c1-1,1.4-2.6,1.4-5V63.4z"/>
	<path d="M1391.9,124.1v-0.6h2c1.5,0,2.9-0.5,4.1-1.5c1.2-1,1.8-2.5,1.8-4.5V63.4c0-1.9-0.6-3.4-1.8-4.4c-1.2-1-2.6-1.5-4.1-1.5h-2
		v-0.7h40.1c5.4,0,10.2,0.8,14.4,2.5c4.2,1.7,7.6,4,10.4,6.9c2.8,3,4.9,6.5,6.3,10.6c1.4,4.1,2.1,8.7,2.1,13.6c0,5-0.8,9.5-2.3,13.6
		c-1.5,4.1-3.7,7.7-6.6,10.6c-2.9,3-6.5,5.3-10.7,6.9c-4.3,1.7-9.1,2.5-14.5,2.5H1391.9z M1423.1,57.6v60.3c0,1.6,0.3,2.9,1,3.9
		c0.7,1,2,1.5,3.9,1.5c1.6,0,3.2-0.6,4.8-1.7c1.6-1.1,3.1-3,4.5-5.5c1.4-2.6,2.4-6,3.3-10.1c0.8-4.2,1.2-9.4,1.2-15.5
		c0-5.9-0.4-11-1.1-15.1c-0.7-4.2-1.7-7.5-3-10.1c-1.3-2.6-2.7-4.5-4.3-5.7c-1.6-1.2-3.3-1.8-5.1-1.8H1423.1z"/>
	<path d="M1463.2,124.1v-0.6h2c1.5,0,2.9-0.5,4.1-1.5c1.2-1,1.8-2.5,1.8-4.4V63.4c0-2-0.6-3.5-1.8-4.5c-1.2-1-2.6-1.5-4.1-1.5h-2
		v-0.7h39.1v0.7h-2c-1.5,0-2.9,0.5-4.1,1.5c-1.2,1-1.8,2.5-1.8,4.5v54.2c0,2.1,0.6,3.6,1.8,4.6c1.2,0.9,2.6,1.4,4.1,1.4h2v0.6
		H1463.2z"/>
	<path d="M1504.2,124.1v-0.6h2c1.5,0,2.9-0.5,4.1-1.4c1.2-0.9,1.8-2.4,1.8-4.6V63.4c0-2-0.6-3.5-1.8-4.5c-1.2-1-2.6-1.5-4.1-1.5h-2
		v-0.7h39.1v0.7h-2c-1.5,0-2.9,0.5-4.1,1.4c-1.2,1-1.8,2.5-1.8,4.5v54.5c0,1.7,0.5,3.1,1.4,4c0.9,1,2.3,1.4,4.3,1.4
		c2.2,0,4.4-0.5,6.7-1.6c2.3-1.1,4.5-2.5,6.7-4.3c2.2-1.8,4.2-3.9,6.2-6.4c1.9-2.4,3.7-5,5.2-7.8h0.8l-5.9,20.9H1504.2z"/>
	<path d="M1564.1,124.1v-0.6h2c1.5,0,2.9-0.5,4.1-1.4c1.2-0.9,1.8-2.4,1.8-4.6V63.4c0-2-0.6-3.5-1.8-4.5c-1.2-1-2.6-1.5-4.1-1.5h-2
		v-0.7h39.1v0.7h-2c-1.5,0-2.9,0.5-4.1,1.4c-1.2,1-1.8,2.5-1.8,4.5v54.5c0,1.7,0.5,3.1,1.4,4c0.9,1,2.3,1.4,4.3,1.4
		c2.2,0,4.4-0.5,6.7-1.6c2.3-1.1,4.5-2.5,6.7-4.3c2.2-1.8,4.2-3.9,6.2-6.4c1.9-2.4,3.7-5,5.2-7.8h0.8l-5.9,20.9H1564.1z"/>
	<path d="M1658.1,124.1v-0.6h2c2.3,0,3.9-0.4,4.9-1.2c1-0.8,1.4-2,1.4-3.5c0-0.9-0.2-1.9-0.5-3.2c-0.3-1.3-0.7-2.7-1.2-4.1
		c-0.5-1.5-1-2.9-1.5-4.4c-0.5-1.5-1-2.9-1.4-4.2h-22.6l-1.6,3.9c-0.7,1.6-1.3,3.4-2,5.6c-0.7,2.1-1,4.1-1.1,5.8
		c0,1.6,0.4,2.9,1.3,3.9c0.9,1,2.5,1.5,4.8,1.5h1.3v0.6h-19.4v-0.6h1.5c1.5,0,3.1-0.5,4.8-1.4c1.6-1,3-2.8,4.1-5.5l17.9-46.8
		l-1.8-5.4c1.2-0.5,2.7-1.2,4.4-2c1.7-0.8,3.5-1.7,5.4-2.7c1.8-1,3.6-1.9,5.4-2.8c1.7-0.9,3.2-1.7,4.4-2.5l21.2,62.3
		c0.9,2.6,2,4.5,3.3,5.4c1.3,1,2.7,1.5,4.2,1.5h1.5v0.6H1658.1z M1651.2,71.1l-11.7,31h22L1651.2,71.1z"/>
</g>
<g opacity="0.52">
	<circle cx="1844.2" cy="605.5" r="6.6"/>
	<circle fill="#666666" cx="1869.6" cy="605.5" r="6.6"/>
	<circle fill="#666666" cx="1895.1" cy="605.5" r="6.6"/>
	<circle fill="#666666" cx="1920.5" cy="605.5" r="6.6"/>
	<circle fill="#666666" cx="1945.9" cy="605.5" r="6.6"/>
	<circle fill="#666666" cx="1971.4" cy="605.5" r="6.6"/>
	<circle fill="#666666" cx="1996.8" cy="605.5" r="6.6"/>
</g>
<rect x="2225.2" y="435.6" fill="none" width="230.3" height="224.6"/>
<text transform="matrix(1 0 0 1 2225.1755 452.1544)"><tspan x="0" y="0" font-family="'FedraSerifAStd-Bold'" font-size="21.6692">JAMES DEWITT </tspan><tspan x="0" y="26" font-family="'FedraSerifAStd-Bold'" font-size="21.6692">YANCEY</tspan><tspan x="0" y="54.7" font-family="'FedraSerifAStd-BookItalic'" font-size="18.5819">Probably the most famous </tspan><tspan x="0" y="77" font-family="'FedraSerifAStd-BookItalic'" font-size="18.5819">and prolific beats producer </tspan><tspan x="0" y="99.3" font-family="'FedraSerifAStd-BookItalic'" font-size="18.5819">(deceased in 2006) at 32.</tspan></text>
<g transform="translate(0,560)">
	<line fill="none" stroke="#666666" stroke-width="0.5" x1="1358.5" y1="-259.6" x2="1672.8" y2="-259.6"/>
</g>
<g transform="translate(0,560)">
	<line fill="none" stroke="#666666" stroke-width="0.5" x1="1492.2" y1="-91.2" x2="1492.2" y2="-143.1"/>
</g>
<path opacity="0.74" fill="#999999" fill-opacity="0.9" stroke="#FFFFFF" stroke-miterlimit="10" d="M1670.8,297.4l16.5-0.4
	c16.5-0.4,49.5-1.3,74.2-1.6c24.7-0.2,41.2,0.2,57.7,0.9c16.5,0.7,33,1.6,49.5,0c16.5-1.6,33-5.5,49.5-6.5c16.5-1,33,1,49.5-0.9
	s24.1-7.7,40.5-7.2c16.5,0.4,25,7.1,41.5-1c16.5-8.1,33-31,49.5-40.3s33-5.1,49.5,4.8c16.5,9.9,49.8,25.4,66.3,35.2s33,5.8,49.5,4.1
	s33-9,49.5-9s33,15.3,57.7,18.8c24.7,3.4,57.7,3,82.5,3.1c24.7,0.1,41.2,0.8,49.5,1.1l8.2,0.3v4l-8.2,0.3c-8.2,0.3-24.7,1-49.5,1.1
	c-24.7,0.1-57.7-0.3-82.5,3.1c-24.7,3.4-41.2,18.8-57.7,18.8s-33-7.3-49.5-9s-33-5.7-49.5,4.1c-16.5,9.8-49.8,25.3-66.3,35.2
	c-16.5,9.9-33,14.1-49.5,4.8s-33-32.2-49.5-40.3c-16.5-8.1-25-1.4-41.5-1c-16.5,0.4-24.1-5.3-40.5-7.2s-33,0.1-49.5-0.9
	c-16.5-1-33-5-49.5-6.5c-16.5-1.6-33-0.7-49.5,0c-16.5,0.7-33,1.1-57.7,0.9c-24.7-0.2-57.7-1.1-74.2-1.6l-16.5-0.4"/>
<g>
	<circle fill="#BF6969" fill-opacity="0.9" cx="1952" cy="300.6" r="7"/>
</g>
<g>
	<circle fill="#BF6969" fill-opacity="0.9" cx="1952" cy="300.6" r="5.8"/>
</g>
<g>
	<circle fill="#BF6969" fill-opacity="0.9" cx="1952" cy="300.6" r="4.1"/>
</g>
<g>
	<circle fill="#BF6969" fill-opacity="0.9" cx="2185.8" cy="300.6" r="4.1"/>
</g>
<g>
	<circle fill="#BF6969" fill-opacity="0.9" cx="1765" cy="300.6" r="4.1"/>
</g>
<g>
	<circle fill="#BF6969" fill-opacity="0.9" cx="1765" cy="300.6" r="10.7"/>
</g>
<g>
	<circle fill="#BF6969" fill-opacity="0.9" cx="1998.8" cy="300.6" r="9"/>
</g>
<g>
	<circle fill="#BF6969" fill-opacity="0.9" cx="2092.3" cy="300.6" r="30.7"/>
</g>
<g>
	<circle fill="#BF6969" fill-opacity="0.9" cx="2092.3" cy="300.6" r="17"/>
</g>
<g>
	<circle fill="#BF6969" fill-opacity="0.9" cx="2092.3" cy="300.6" r="19.7"/>
</g>
<g>
	<circle fill="#BF6969" fill-opacity="0.9" cx="2092.3" cy="300.6" r="4.1"/>
</g>
<g>
	<circle fill="#BF6969" fill-opacity="0.9" cx="1952" cy="300.6" r="4.1"/>
</g>
<g>
	<circle fill="#BF6969" fill-opacity="0.9" cx="2045.6" cy="300.6" r="4.1"/>
</g>
<g>
	<circle fill="#BF6969" fill-opacity="0.9" cx="1858.5" cy="300.6" r="4.1"/>
</g>
<g>
	<circle fill="#BF6969" fill-opacity="0.9" cx="1952" cy="300.6" r="5.8"/>
</g>
<g>
	<circle fill="#BF6969" fill-opacity="0.9" cx="2326.1" cy="300.6" r="5.8"/>
</g>
<g>
	<circle fill="#BF6969" fill-opacity="0.9" cx="2139.1" cy="300.6" r="34.3"/>
</g>
<g>
	<circle fill="#BF6969" fill-opacity="0.9" cx="2139.1" cy="300.6" r="5.8"/>
</g>
<g>
	<circle fill="#BF6969" fill-opacity="0.9" cx="2185.8" cy="300.6" r="5.8"/>
</g>
<g>
	<circle fill="#BF6969" fill-opacity="0.9" cx="2139.1" cy="300.6" r="4.1"/>
</g>
<g>
	<circle fill="#BF6969" fill-opacity="0.9" cx="2419.6" cy="300.6" r="5.8"/>
</g>
<g>
	<circle fill="#BF6969" fill-opacity="0.9" cx="2185.8" cy="300.6" r="13.9"/>
</g>
<g>
	<g>
		<g>
			<circle opacity="0.9" fill="#BF6969" cx="2279.3" cy="300.6" r="24.4"/>
		</g>
	</g>
</g>
<g>
	<circle fill="#BF6969" fill-opacity="0.9" cx="2185.8" cy="300.6" r="4.1"/>
</g>
<g>
	<circle fill="#BF6969" fill-opacity="0.9" cx="1811.8" cy="300.6" r="4.1"/>
</g>
<g>
	<circle fill="#BF6969" fill-opacity="0.9" cx="1952" cy="300.6" r="5.8"/>
</g>
<g>
	<circle fill="#BF6969" fill-opacity="0.9" cx="1858.5" cy="300.6" r="4.1"/>
</g>
<g>
	<circle fill="#BF6969" fill-opacity="0.9" cx="2232.6" cy="300.6" r="8.1"/>
</g>
<g>
	<circle fill="#BF6969" fill-opacity="0.9" cx="2419.6" cy="300.6" r="8.1"/>
</g>
<g>
	<circle fill="#BF6969" fill-opacity="0.9" cx="1998.8" cy="300.6" r="19.3"/>
</g>
<g>
	<circle fill="#BF6969" fill-opacity="0.9" cx="2185.8" cy="300.6" r="9.9"/>
</g>
<g>
	<circle fill="#BF6969" fill-opacity="0.9" cx="1858.5" cy="300.6" r="4.1"/>
</g>
<g>
	<circle fill="#BF6969" fill-opacity="0.9" cx="2045.6" cy="300.6" r="4.1"/>
</g>
<g>
	<circle fill="#BF6969" fill-opacity="0.9" cx="1671.5" cy="300.6" r="9"/>
</g>
<g>
	<circle fill="#BF6969" fill-opacity="0.9" cx="2045.6" cy="300.6" r="7"/>
</g>
<g>
	<circle fill="#BF6969" fill-opacity="0.9" cx="2466.4" cy="300.6" r="4.1"/>
</g>
<g>
	<circle fill="#BF6969" fill-opacity="0.9" cx="1811.8" cy="300.6" r="9.9"/>
</g>
<g>
	<circle fill="#BF6969" fill-opacity="0.9" cx="1998.8" cy="300.6" r="5.8"/>
</g>
<g>
	<circle fill="#BF6969" fill-opacity="0.9" cx="1998.8" cy="300.6" r="11.4"/>
</g>
<g>
	<circle fill="#BF6969" fill-opacity="0.9" cx="2045.6" cy="300.6" r="7"/>
</g>
<g>
	<circle fill="#BF6969" fill-opacity="0.9" cx="2139.1" cy="300.6" r="16.1"/>
</g>
<g>
	<circle fill="#BF6969" fill-opacity="0.9" cx="2466.4" cy="300.6" r="5.8"/>
</g>
<g>
	<circle fill="#BF6969" fill-opacity="0.9" cx="1952" cy="300.6" r="4.1"/>
</g>
<g>
	<circle fill="#BF6969" fill-opacity="0.9" cx="2326.1" cy="300.6" r="4.1"/>
</g>
<g>
	<circle fill="#BF6969" fill-opacity="0.9" cx="1765" cy="300.6" r="4.1"/>
</g>
<g>
	<circle fill="#BF6969" fill-opacity="0.9" cx="1905.3" cy="300.6" r="5.8"/>
</g>
<g>
	<circle fill="#BF6969" fill-opacity="0.9" cx="2326.1" cy="300.6" r="4.1"/>
</g>
<g>
	<circle fill="#BF6969" fill-opacity="0.9" cx="1905.3" cy="300.6" r="17.5"/>
</g>
<g>
	<circle cx="1952" cy="300.6" r="1.9"/>
</g>
<g>
	<circle cx="1952" cy="300.6" r="1.9"/>
</g>
<g>
	<circle cx="1952" cy="300.6" r="1.9"/>
</g>
<g>
	<circle cx="2185.8" cy="300.6" r="1.9"/>
</g>
<g>
	<circle cx="1765" cy="300.6" r="1.9"/>
</g>
<g>
	<circle cx="1765" cy="300.6" r="1.9"/>
</g>
<g>
	<circle cx="1998.8" cy="300.6" r="1.9"/>
</g>
<g>
	<circle cx="2092.3" cy="300.6" r="1.9"/>
</g>
<g>
	<circle cx="2092.3" cy="300.6" r="1.9"/>
</g>
<g>
	<circle cx="2092.3" cy="300.6" r="1.9"/>
</g>
<g>
	<circle cx="2092.3" cy="300.6" r="1.9"/>
</g>
<g>
	<circle cx="1952" cy="300.6" r="1.9"/>
</g>
<g>
	<circle cx="2045.6" cy="300.6" r="1.9"/>
</g>
<g>
	<circle cx="1858.5" cy="300.6" r="1.9"/>
</g>
<g>
	<circle cx="1952" cy="300.6" r="1.9"/>
</g>
<g>
	<circle cx="2326.1" cy="300.6" r="1.9"/>
</g>
<g>
	<circle cx="2139.1" cy="300.6" r="1.9"/>
</g>
<g>
	<circle cx="2139.1" cy="300.6" r="1.9"/>
</g>
<g>
	<circle cx="2185.8" cy="300.6" r="1.9"/>
</g>
<g>
	<circle cx="2139.1" cy="300.6" r="1.9"/>
</g>
<g>
	<circle cx="2419.6" cy="300.6" r="1.9"/>
</g>
<g>
	<circle cx="2185.8" cy="300.6" r="1.9"/>
</g>
<g>
	<circle cx="2279.3" cy="300.6" r="1.9"/>
</g>
<g>
	<circle cx="2185.8" cy="300.6" r="1.9"/>
</g>
<g>
	<circle cx="1811.8" cy="300.6" r="1.9"/>
</g>
<g>
	<circle cx="1952" cy="300.6" r="1.9"/>
</g>
<g>
	<circle cx="1858.5" cy="300.6" r="1.9"/>
</g>
<g>
	<circle cx="2232.6" cy="300.6" r="1.9"/>
</g>
<g>
	<circle cx="2419.6" cy="300.6" r="1.9"/>
</g>
<g>
	<circle cx="1998.8" cy="300.6" r="1.9"/>
</g>
<g>
	<circle cx="2185.8" cy="300.6" r="1.9"/>
</g>
<g>
	<circle cx="1858.5" cy="300.6" r="1.9"/>
</g>
<g>
	<circle cx="2045.6" cy="300.6" r="1.9"/>
</g>
<g>
	<circle cx="1671.5" cy="300.6" r="1.9"/>
</g>
<g>
	<circle cx="2045.6" cy="300.6" r="1.9"/>
</g>
<g>
	<circle cx="2466.4" cy="300.6" r="1.9"/>
</g>
<g>
	<circle cx="1811.8" cy="300.6" r="1.9"/>
</g>
<g>
	<circle cx="1998.8" cy="300.6" r="1.9"/>
</g>
<g>
	<circle cx="1998.8" cy="300.6" r="1.9"/>
</g>
<g>
	<circle cx="2045.6" cy="300.6" r="1.9"/>
</g>
<g>
	<circle cx="2139.1" cy="300.6" r="1.9"/>
</g>
<g>
	<circle cx="2466.4" cy="300.6" r="1.9"/>
</g>
<g>
	<circle cx="1952" cy="300.6" r="1.9"/>
</g>
<g>
	<circle cx="2326.1" cy="300.6" r="1.9"/>
</g>
<g>
	<circle cx="1765" cy="300.6" r="1.9"/>
</g>
<g>
	<circle cx="1905.3" cy="300.6" r="1.9"/>
</g>
<g>
	<circle cx="2326.1" cy="300.6" r="1.9"/>
</g>
<g>
	<circle cx="1905.3" cy="300.6" r="1.9"/>
</g>
<line fill="none" stroke="#999999" x1="2419" y1="287.1" x2="2419" y2="173.1"/>
<rect x="2296.5" y="169.4" fill="none" width="112.1" height="78.7"/>
<text transform="matrix(1 0 0 1 2322.5244 179.1758)"><tspan x="0" y="0" font-family="'FedraSerifAStd-Bold'" font-size="12.8276">REBIRTH OF </tspan><tspan x="22.9" y="15.4" font-family="'FedraSerifAStd-Bold'" font-size="12.8276">DETROIT</tspan><tspan x="57.7" y="30.8" font-family="'FedraSerifAStd-Bold'" font-size="12.8276">2012</tspan><tspan x="34.2" y="44" font-family="'FedraSerifAStd-BookItalic'" font-size="11">(4 samples)</tspan></text>
<circle cx="2419.1" cy="172.2" r="2.2"/>
<line fill="none" stroke="#999999" x1="1905" y1="284.1" x2="1905" y2="173.1"/>
<rect x="1781.5" y="169.4" fill="none" width="112.1" height="78.7"/>
<text transform="matrix(1 0 0 1 1796.8394 179.1765)"><tspan x="0" y="0" font-family="'FedraSerifAStd-Bold'" font-size="12.8276">WELCOME TO </tspan><tspan x="33.6" y="15.4" font-family="'FedraSerifAStd-Bold'" font-size="12.8276">DETROIT</tspan><tspan x="66.5" y="30.8" font-family="'FedraSerifAStd-Bold'" font-size="12.8276">2001</tspan><tspan x="41.2" y="44" font-family="'FedraSerifAStd-BookItalic'" font-size="11">(19 samples)</tspan></text>
<circle cx="1905.1" cy="172.2" r="2.2"/>
<line fill="none" stroke="#999999" x1="1999" y1="284.1" x2="1999" y2="173.1"/>
<rect x="1876.3" y="171.2" fill="none" width="112.1" height="78.7"/>
<text transform="matrix(1 0 0 1 1951.4995 180.9719)"><tspan x="0" y="0" font-family="'FedraSerifAStd-Bold'" font-size="12.8276">RUFF </tspan><tspan x="-10.7" y="15.4" font-family="'FedraSerifAStd-Bold'" font-size="12.8276">DRAFT</tspan><tspan x="6.4" y="30.8" font-family="'FedraSerifAStd-Bold'" font-size="12.8276">2003</tspan><tspan x="-18.4" y="44" font-family="'FedraSerifAStd-BookItalic'" font-size="11">(23 samples)</tspan></text>
<circle cx="1999.1" cy="172.2" r="2.2"/>
<line fill="none" stroke="#999999" x1="2138" y1="273.1" x2="2138" y2="173.1"/>
<rect x="2014.3" y="171.2" fill="none" width="112.1" height="78.7"/>
<text transform="matrix(1 0 0 1 2066.2686 180.9719)"><tspan x="0" y="0" font-family="'FedraSerifAStd-Bold'" font-size="12.8276">DONUTS</tspan><tspan x="28.4" y="15.4" font-family="'FedraSerifAStd-Bold'" font-size="12.8276">2006</tspan><tspan x="5" y="28.6" font-family="'FedraSerifAStd-BookItalic'" font-size="11">(73 samples)</tspan></text>
<circle cx="2138.1" cy="172.2" r="2.2"/>
<line fill="none" stroke="#999999" x1="2277" y1="287.1" x2="2277" y2="173.1"/>
<rect x="2154.3" y="171.2" fill="none" width="112.1" height="78.7"/>
<text transform="matrix(1 0 0 1 2163.6047 180.9721)"><tspan x="0" y="0" font-family="'FedraSerifAStd-Bold'" font-size="12.8276">JAY STAY PAID</tspan><tspan x="71.1" y="15.4" font-family="'FedraSerifAStd-Bold'" font-size="12.8276">2009</tspan><tspan x="47.6" y="28.6" font-family="'FedraSerifAStd-BookItalic'" font-size="11">(37 samples)</tspan></text>
<circle cx="2277.1" cy="172.2" r="2.2"/>
<circle stroke="#FFFFFF" stroke-width="4" stroke-miterlimit="10" cx="1492.2" cy="301.8" r="115.4"/>
<rect x="1438.7" y="281.1" fill="none" width="106.9" height="75"/>
<text transform="matrix(1 0 0 1 1476.5464 296.9055)"><tspan x="0" y="0" fill="#FFFFFF" font-family="'FeSaDisHeavyCond'" font-size="20.9787">382</tspan><tspan x="-14.4" y="18.1" fill="#FFFFFF" font-family="'FedraSerifAStd-BookItalic'" font-size="18">samples</tspan></text>
<g>
	<line fill="none" stroke="#999999" x1="1410" y1="469.1" x2="1410" y2="456.1"/>
	<circle cx="1410.1" cy="455.2" r="2.2"/>
</g>
<g>
	<line fill="none" stroke="#999999" x1="1718" y1="469.1" x2="1718" y2="456.1"/>
	<circle cx="1718.1" cy="455.2" r="2.2"/>
</g>
<g>
	<line fill="none" stroke="#999999" x1="2027" y1="469.1" x2="2027" y2="456.1"/>
	<circle cx="2027.1" cy="455.2" r="2.2"/>
</g>
<g>
	<line fill="none" stroke="#999999" x1="2015" y1="503.1" x2="2015" y2="516.1"/>
	<circle cx="2015.1" cy="516.6" r="2.2"/>
</g>
<g>
	<line fill="none" stroke="#999999" x1="1812" y1="503.1" x2="1812" y2="516.1"/>
	<circle cx="1812.1" cy="516.6" r="2.2"/>
</g>
<g>
	<line fill="none" stroke="#999999" x1="1669" y1="503.1" x2="1669" y2="516.1"/>
	<circle cx="1669.1" cy="516.6" r="2.2"/>
</g>
<g>
	<line fill="none" stroke="#999999" x1="1408" y1="503.1" x2="1408" y2="516.1"/>
	<circle cx="1408.1" cy="516.6" r="2.2"/>
</g>
<polygon fill="#FFFFFF" points="2024.5,468.1 2006.5,468.1 1815.5,468.1 1809.5,468.1 1719.5,468.1 1716.5,468.1 1670.5,468.1 
	1667.5,468.1 1446.5,468.1 1410.5,468.1 1409.5,468.1 1406.5,468.1 1406.5,503.1 1409.5,503.1 1410.5,503.1 1446.5,503.1 
	1667.5,503.1 1670.5,503.1 1716.5,503.1 1719.5,503.1 1809.5,503.1 1815.5,503.1 2006.5,503.1 2024.5,503.1 2030.5,503.1 
	2030.5,468.1 "/>
<g>
	<rect x="1406.5" y="468.1" fill="#999999" width="3" height="35"/>
	<rect x="1409.5" y="468.1" fill="#DFDFDF" width="1" height="35"/>
	<rect x="1410.5" y="468.1" fill="#4D4D4D" width="36" height="35"/>
	<rect x="1446.5" y="468.1" fill="#999999" width="221" height="35"/>
	<rect x="1670.5" y="468.1" fill="#4D4D4D" width="46" height="35"/>
	<rect x="1716.5" y="468.1" fill="#999999" width="3" height="35"/>
	<rect x="1719.5" y="468.1" fill="#DFDFDF" width="90" height="35"/>
	<rect x="1815.5" y="468.1" fill="#999999" width="191" height="35"/>
	<rect x="2006.5" y="468.1" fill="#DFDFDF" width="18" height="35"/>
	<rect x="2024.5" y="468.1" fill="#4D4D4D" width="6" height="35"/>
	<rect x="1667.5" y="468.1" fill="#DFDFDF" width="3" height="35"/>
	<rect x="1809.5" y="468.1" fill="#4D4D4D" width="6" height="35"/>
</g>
<rect x="1591" y="475" fill="none" width="66.6" height="27.8"/>
<text transform="matrix(1 0 0 1 1638.1907 484.7956)"><tspan x="0" y="0" font-family="'FeSaDisHeavyCond'" font-size="13">135</tspan><tspan x="-41" y="11" font-family="'FedraSerifAStd-BookItalic'" font-size="11">hip-hop, RnB</tspan></text>
<rect x="1653.8" y="425.2" fill="none" width="66.6" height="27.8"/>
<text transform="matrix(1 0 0 1 1713.9487 434.9841)"><tspan x="0" y="0" font-family="'FeSaDisHeavyCond'" font-size="13">2</tspan><tspan x="-53.1" y="11" font-family="'FedraSerifAStd-BookItalic'" font-size="11">experimental</tspan></text>
<rect x="1962.1" y="425.2" fill="none" width="66.6" height="27.8"/>
<text transform="matrix(1 0 0 1 2022.1782 434.9841)"><tspan x="0" y="0" font-family="'FeSaDisHeavyCond'" font-size="13">2</tspan><tspan x="-49.6" y="11" font-family="'FedraSerifAStd-BookItalic'" font-size="11">spoken word</tspan></text>
<rect x="1344.5" y="425.2" fill="none" width="66.6" height="27.8"/>
<text transform="matrix(1 0 0 1 1404.5708 434.9841)"><tspan x="0" y="0" font-family="'FeSaDisHeavyCond'" font-size="13">1</tspan><tspan x="-29.7" y="11" font-family="'FedraSerifAStd-BookItalic'" font-size="11">easy list</tspan></text>
<rect x="1343.8" y="524.2" fill="none" width="66.6" height="27.8"/>
<text transform="matrix(1 0 0 1 1403.8823 533.9841)"><tspan x="0" y="0" font-family="'FeSaDisHeavyCond'" font-size="13">2</tspan><tspan x="-31.9" y="11" font-family="'FedraSerifAStd-BookItalic'" font-size="11">classical</tspan></text>
<rect x="1951.4" y="524.2" fill="none" width="66.6" height="27.8"/>
<text transform="matrix(1 0 0 1 2005.0212 533.9841)"><tspan x="0" y="0" font-family="'FeSaDisHeavyCond'" font-size="13">11</tspan><tspan x="-37.6" y="11" font-family="'FedraSerifAStd-BookItalic'" font-size="11">soundtrack</tspan></text>
<rect x="1750.7" y="524.2" fill="none" width="66.6" height="27.8"/>
<text transform="matrix(1 0 0 1 1810.7935 533.9841)"><tspan x="0" y="0" font-family="'FeSaDisHeavyCond'" font-size="13">4</tspan><tspan x="-48.2" y="11" font-family="'FedraSerifAStd-BookItalic'" font-size="11">world music</tspan></text>
<rect x="1605.8" y="524.2" fill="none" width="66.6" height="27.8"/>
<text transform="matrix(1 0 0 1 1665.9087 533.9841)"><tspan x="0" y="0" font-family="'FeSaDisHeavyCond'" font-size="13">1</tspan><tspan x="-57.5" y="11" font-family="'FedraSerifAStd-BookItalic'" font-size="11">tv commercial</tspan></text>
<rect x="1411.5" y="475" fill="none" width="29.9" height="27.8"/>
<text transform="matrix(1 0 0 1 1428.5789 484.7946)"><tspan x="0" y="0" fill="#FFFFFF" font-family="'FeSaDisHeavyCond'" font-size="13">22</tspan><tspan x="-13.9" y="11" fill="#FFFFFF" font-family="'FedraSerifAStd-BookItalic'" font-size="11">dance</tspan></text>
<rect x="1727.7" y="475" fill="none" width="71.6" height="27.8"/>
<text transform="matrix(1 0 0 1 1786.3625 484.7956)"><tspan x="0" y="0" fill="#666666" font-family="'FeSaDisHeavyCond'" font-size="13">22</tspan><tspan x="-27.3" y="11" fill="#666666" font-family="'FedraSerifAStd-BookItalic'" font-size="11">rock, pop</tspan></text>
<rect x="1880.2" y="475" fill="none" width="115.2" height="27.8"/>
<text transform="matrix(1 0 0 1 1976.0017 484.7956)"><tspan x="0" y="0" font-family="'FeSaDisHeavyCond'" font-size="13">117</tspan><tspan x="-52.6" y="11" font-family="'FedraSerifAStd-BookItalic'" font-size="11">soul, funk, disco</tspan></text>
<rect x="1680.7" y="475" fill="none" width="32.3" height="27.8"/>
<text transform="matrix(1 0 0 1 1700.1042 484.7946)"><tspan x="0" y="0" fill="#FFFFFF" font-family="'FeSaDisHeavyCond'" font-size="13">28</tspan><tspan x="-4.9" y="11" fill="#FFFFFF" font-family="'FedraSerifAStd-BookItalic'" font-size="11">jazz</tspan></text>
</g>
</g>
</svg>
