<?xml version="1.0" encoding="UTF-8" standalone="no"?>
<!-- Generator: Adobe Illustrator 16.0.4, SVG Export Plug-In . SVG Version: 6.00 Build 0)  -->

<svg
   xmlns:dc="http://purl.org/dc/elements/1.1/"
   xmlns:cc="http://creativecommons.org/ns#"
   xmlns:rdf="http://www.w3.org/1999/02/22-rdf-syntax-ns#"
   xmlns:svg="http://www.w3.org/2000/svg"
   xmlns="http://www.w3.org/2000/svg"
   xmlns:sodipodi="http://sodipodi.sourceforge.net/DTD/sodipodi-0.dtd"
   xmlns:inkscape="http://www.inkscape.org/namespaces/inkscape"
   version="1.1"
   id="Capa_1"
   x="0px"
   y="0px"
   width="148.282"
   height="104.285"
   viewBox="0 0 148.282 104.285"
   enable-background="new 0 0 216 146"
   xml:space="preserve"
   inkscape:version="0.48.4 r9939"
   sodipodi:docname="road16.svg"><metadata
     id="metadata9"><rdf:RDF><cc:Work
         rdf:about=""><dc:format>image/svg+xml</dc:format><dc:type
           rdf:resource="http://purl.org/dc/dcmitype/StillImage" /></cc:Work></rdf:RDF></metadata><defs
     id="defs7" /><sodipodi:namedview
     pagecolor="#ffffff"
     bordercolor="#666666"
     borderopacity="1"
     objecttolerance="10"
     gridtolerance="10"
     guidetolerance="10"
     inkscape:pageopacity="0"
     inkscape:pageshadow="2"
     inkscape:window-width="1103"
     inkscape:window-height="750"
     id="namedview5"
     showgrid="false"
     fit-margin-top="0"
     fit-margin-left="0"
     fit-margin-right="0"
     fit-margin-bottom="0"
     inkscape:zoom="1.6164384"
     inkscape:cx="74.141"
     inkscape:cy="52.142"
     inkscape:window-x="0"
     inkscape:window-y="0"
     inkscape:window-maximized="0"
     inkscape:current-layer="Capa_1" /><path
     d="M 146.162,88.887 112.187,3.829 C 111.753,2.797 111.047,1.901 110.07,1.141 109.091,0.38 108.059,0 106.973,0 H 79.353 C 80.059,0 80.684,0.257 81.227,0.773 81.769,1.29 82.068,1.9 82.123,2.606 L 83.346,18.25 C 83.401,19.01 83.183,19.635 82.696,20.123 82.206,20.612 81.609,20.856 80.902,20.856 H 67.378 C 66.672,20.856 66.075,20.612 65.586,20.123 65.097,19.635 64.88,19.01 64.935,18.25 L 66.157,2.606 C 66.211,1.9 66.509,1.29 67.053,0.773 67.596,0.258 68.22,0 68.927,0 H 41.307 C 40.221,0 39.189,0.38 38.211,1.141 37.234,1.9 36.528,2.797 36.093,3.829 L 2.118,88.887 C 0.706,92.254 0,95.404 0,98.338 0,102.303 1.249,104.285 3.748,104.285 H 61.105 C 60.399,104.285 59.802,104.027 59.313,103.512 58.824,102.994 58.607,102.385 58.662,101.678 L 60.291,80.823 C 60.345,80.116 60.644,79.506 61.187,78.989 61.73,78.473 62.355,78.216 63.061,78.216 H 85.221 C 85.927,78.216 86.551,78.473 87.095,78.989 87.638,79.506 87.937,80.116 87.991,80.823 L 89.622,101.678 C 89.677,102.385 89.458,102.994 88.971,103.512 88.482,104.027 87.885,104.285 87.178,104.285 H 144.534 C 147.032,104.285 148.282,102.303 148.282,98.338 148.282,95.405 147.575,92.255 146.162,88.887 z M 86.444,60.289 C 86.497,60.941 86.28,61.484 85.792,61.918 85.304,62.353 84.732,62.57 84.081,62.57 H 64.201 C 63.549,62.57 62.978,62.353 62.49,61.918 62.001,61.483 61.784,60.94 61.838,60.289 V 59.963 L 63.794,33.893 C 63.848,33.187 64.147,32.576 64.69,32.06 65.233,31.544 65.858,31.286 66.564,31.286 H 81.717 C 82.424,31.286 83.048,31.543 83.592,32.06 84.135,32.576 84.434,33.187 84.488,33.893 L 86.443,59.963 V 60.289 z"
     id="path3"
     style="fill:#94b7b9;fill-opacity:1"
     inkscape:connector-curvature="0" /></svg>