<?xml version="1.0" encoding="UTF-8" standalone="no"?>
<svg
   xmlns:dc="http://purl.org/dc/elements/1.1/"
   xmlns:cc="http://creativecommons.org/ns#"
   xmlns:rdf="http://www.w3.org/1999/02/22-rdf-syntax-ns#"
   xmlns:svg="http://www.w3.org/2000/svg"
   xmlns="http://www.w3.org/2000/svg"
   xmlns:sodipodi="http://sodipodi.sourceforge.net/DTD/sodipodi-0.dtd"
   xmlns:inkscape="http://www.inkscape.org/namespaces/inkscape"
   version="1.1"
   width="46.708302"
   height="60.0536"
   viewBox="0 0 46.708302 60.0536"
   enable-background="new 0 0 76.00 76.00"
   xml:space="preserve"
   id="svg2"
   inkscape:version="0.48.4 r9939"
   sodipodi:docname="choice3.svg"><metadata
     id="metadata10"><rdf:RDF><cc:Work
         rdf:about=""><dc:format>image/svg+xml</dc:format><dc:type
           rdf:resource="http://purl.org/dc/dcmitype/StillImage" /></cc:Work></rdf:RDF></metadata><defs
     id="defs8" /><sodipodi:namedview
     pagecolor="#ffffff"
     bordercolor="#666666"
     borderopacity="1"
     objecttolerance="10"
     gridtolerance="10"
     guidetolerance="10"
     inkscape:pageopacity="0"
     inkscape:pageshadow="2"
     inkscape:window-width="1920"
     inkscape:window-height="1058"
     id="namedview6"
     showgrid="false"
     fit-margin-top="0"
     fit-margin-left="0"
     fit-margin-right="0"
     fit-margin-bottom="0"
     inkscape:zoom="3.1052632"
     inkscape:cx="-39.120377"
     inkscape:cy="29.930047"
     inkscape:window-x="0"
     inkscape:window-y="0"
     inkscape:window-maximized="1"
     inkscape:current-layer="svg2" /><path
     d="M 6.7540867,14.677418 40.92045,14.677418 C 42.099726,14.677418 42.521859,19.48205 42.521859,19.48205 L 5.1525424,19.48205 C 5.1525424,19.48205 5.5748102,14.677418 6.7540867,14.677418 z M 20.63418,9.338983 27.040356,9.338983 C 27.629994,9.338983 29.175704,10.884692 29.175704,11.474331 29.175704,12.063969 27.629994,13.609812 27.040356,13.609812 L 20.63418,13.609812 C 20.044542,13.609812 18.498698,12.063969 18.498698,11.474331 18.498698,10.884692 20.044542,9.338983 20.63418,9.338983 z M 9.9571746,21.083594 37.717227,21.083594 C 38.896638,21.083594 39.852709,22.039666 39.852709,23.219077 L 37.717227,55.249958 C 37.717227,56.429235 36.76129,57.385306 35.581879,57.385306 L 12.092656,57.385306 C 10.913245,57.385306 9.9571746,56.429235 9.9571746,55.249958 L 7.821828,23.219077 C 7.821828,22.039666 8.7778989,21.083594 9.9571746,21.083594 z M 13.160263,25.354424 13.694201,53.114476 17.431091,53.114476 16.897289,25.354424 13.160263,25.354424 z M 21.70192,25.354424 21.70192,53.114476 25.972615,53.114476 25.972615,25.354424 21.70192,25.354424 z M 30.777247,25.354424 30.243444,53.114476 33.980335,53.114476 34.514273,25.354424 30.777247,25.354424 z"
     id="path4"
     style="fill:#fdcd67;fill-opacity:1;stroke-width:0.2;stroke-linejoin:round"
     inkscape:connector-curvature="0" /></svg>