<?xml version="1.0" encoding="UTF-8" standalone="no"?>
<!-- Generator: Adobe Illustrator 15.0.0, SVG Export Plug-In . SVG Version: 6.00 Build 0)  -->

<svg
   xmlns:dc="http://purl.org/dc/elements/1.1/"
   xmlns:cc="http://creativecommons.org/ns#"
   xmlns:rdf="http://www.w3.org/1999/02/22-rdf-syntax-ns#"
   xmlns:svg="http://www.w3.org/2000/svg"
   xmlns="http://www.w3.org/2000/svg"
   xmlns:sodipodi="http://sodipodi.sourceforge.net/DTD/sodipodi-0.dtd"
   xmlns:inkscape="http://www.inkscape.org/namespaces/inkscape"
   version="1.1"
   id="Layer_1"
   x="0px"
   y="0px"
   width="33.91"
   height="87.269997"
   viewBox="0 0 33.91 87.27"
   enable-background="new 0 0 64 64"
   xml:space="preserve"
   inkscape:version="0.48.4 r9939"
   sodipodi:docname="tmp.svg"><metadata
     id="metadata13"><rdf:RDF><cc:Work
         rdf:about=""><dc:format>image/svg+xml</dc:format><dc:type
           rdf:resource="http://purl.org/dc/dcmitype/StillImage" /></cc:Work></rdf:RDF></metadata><defs
     id="defs11" /><sodipodi:namedview
     pagecolor="#ffffff"
     bordercolor="#666666"
     borderopacity="1"
     objecttolerance="10"
     gridtolerance="10"
     guidetolerance="10"
     inkscape:pageopacity="0"
     inkscape:pageshadow="2"
     inkscape:window-width="967"
     inkscape:window-height="835"
     id="namedview9"
     showgrid="false"
     fit-margin-top="0"
     fit-margin-left="0"
     fit-margin-right="0"
     fit-margin-bottom="0"
     inkscape:zoom="3.6875"
     inkscape:cx="32.54822"
     inkscape:cy="28.133"
     inkscape:window-x="0"
     inkscape:window-y="0"
     inkscape:window-maximized="0"
     inkscape:current-layer="Layer_1" /><g
     id="g3"
     style="fill:#ae9e9f;fill-opacity:1"
     transform="translate(-15.045,-3.506755)"><g
       id="g5"
       style="fill:#ae9e9f;fill-opacity:1"><path
         d="M 32,3.867 C 22.65,3.867 15.045,11.474 15.045,20.822 15.045,29.813 30.586,57.614 31.248,58.793 L 32,60.133 32.753,58.793 C 33.414,57.613 48.955,29.813 48.955,20.822 48.955,11.474 41.348,3.867 32,3.867 z M 32,25.912 C 28.478,25.912 25.612,23.046 25.612,19.523 25.612,15.999 28.478,13.133 32,13.133 35.524,13.133 38.39,15.999 38.39,19.523 38.39,23.046 35.523,25.912 32,25.912 z"
         id="path7"
         style="fill:#ae9e9f;fill-opacity:1"
         inkscape:connector-curvature="0" /></g></g></svg>