<?xml version="1.0" encoding="UTF-8" standalone="no"?>
<svg
   xmlns:xhtml="http://www.w3.org/1999/xhtml"
   xmlns:dc="http://purl.org/dc/elements/1.1/"
   xmlns:cc="http://creativecommons.org/ns#"
   xmlns:rdf="http://www.w3.org/1999/02/22-rdf-syntax-ns#"
   xmlns:svg="http://www.w3.org/2000/svg"
   xmlns="http://www.w3.org/2000/svg"
   xmlns:sodipodi="http://sodipodi.sourceforge.net/DTD/sodipodi-0.dtd"
   xmlns:inkscape="http://www.inkscape.org/namespaces/inkscape"
   id="testGraph"
   viewBox="0 0 700 700.30581"
   preserveAspectRatio="xMidYMid"
   width="916"
   height="916"
   version="1.1"
   inkscape:version="0.48.5 r10040"
   sodipodi:docname="02.svg"
   inkscape:export-filename="/home/riccardo/Git/eidogram/eidogram.jekyll/img/snapshots/02.png"
   inkscape:export-xdpi="200"
   inkscape:export-ydpi="200">
  <metadata
     id="metadata100">
    <rdf:RDF>
      <cc:Work
         rdf:about="">
        <dc:format>image/svg+xml</dc:format>
        <dc:type
           rdf:resource="http://purl.org/dc/dcmitype/StillImage" />
        <dc:title />
      </cc:Work>
    </rdf:RDF>
  </metadata>
  <defs
     id="defs98" />
  <sodipodi:namedview
     pagecolor="#ffffff"
     bordercolor="#666666"
     borderopacity="1"
     objecttolerance="10"
     gridtolerance="10"
     guidetolerance="10"
     inkscape:pageopacity="0"
     inkscape:pageshadow="2"
     inkscape:window-width="1920"
     inkscape:window-height="1058"
     id="namedview96"
     showgrid="false"
     inkscape:zoom="5.7737003"
     inkscape:cx="483.19941"
     inkscape:cy="186.91403"
     inkscape:window-x="0"
     inkscape:window-y="0"
     inkscape:window-maximized="1"
     inkscape:current-layer="testGraph" />
  <xhtml:defs>
    <xhtml:style
       type="text/css" />
  </xhtml:defs>
  <g
     transform="translate(78.008475,148.01767)"
     id="g3">
    <defs
       id="defs5">
      <pattern
         id="diagonalHatch"
         patternUnits="userSpaceOnUse"
         width="4"
         height="4">
        <path
           d="M-1,1 l2,-2 M0,4 l4,-4 M3,5 l2,-2"
           stroke="rgb(166, 192, 214)"
           stroke-width="1"
           id="path8" />
      </pattern>
    </defs>
    <g
       id="g10">
      <path
         d="M 349.58613,8.1433029 352.104,21.322579 334.36228,43.605575 337.95318,55.709257 334.10448,65.288613 339.13238,72.842325 345.61671,74.014661 345.42349,81.725995 350.71162,82.37121 351.83056,87.966198 348.3641,88.410365 354.18151,94.488739 355.12518,101.71839 357.80912,110.85388 365.75295,113.73975 373.57679,129.20096 367.94156,132.23839 358.62498,132.89558 364.49872,137.34917 359.39928,146.02334 353.27287,148.47956 351.69997,142.70741 345.97471,138.23701 338.74145,137.31473 334.35263,145.92791 332.71821,149.89197 337.56237,152.19885 336.6183,161.99887 343.84503,164.7502 340.30406,170.87601 348.44177,178.22986 355.57868,196.40627 361.03227,192.37238 369.75748,197.23917 375.69412,189.71314 384.73415,188.65958 385.71141,196.10038 389.09167,200.11991 393.26408,198.80222 394.99385,206.3923 399.75904,213.15229 408.15085,219.03502 406.01276,222.03634 410.15771,228.23097 419.61031,228.34102 422.00237,234.6637 427.53199,237.49948 426.78261,249.13941 427.88738,261.86139 422.49873,268.97358 417.1071,268.15551 415.73141,263.58244 409.25298,262.02871 404.89276,255.03269 393.1114,253.65535 388.00196,260.72951 391.67835,264.5292 393.38067,273.75548 382.15499,274.15452 378.06307,287.45385 368.66799,271.85672 357.62024,272.62671 353.64077,277.16883 351.54362,285.44186 339.15595,286.28572 336.06124,288.72989 330.30708,286.88058 329.3578,292.63397 312.50222,286.43199 311.37741,285.0832 308.11723,287.32729 305.00576,296.46934 308.6079,301.72256 306.70742,306.72321 299.30569,313.90689 295.16253,325.75715 289.83564,326.09521 293.84372,330.71964 291.58248,339.60459 295.9367,347.25747 292.6028,353.36579 285.35675,351.78916 281.54247,355.07771 286.60699,359.84421 270.04882,361.88908 254.6684,356.31757 249.97866,360.05481 252.09619,368.06088 249.25923,370.46701 249.63568,366.78466 242.73589,358.45226 244.6891,351.22161 238.2771,350.99052 236.32601,355.78034 221.43616,358.26987 212.80908,363.63994 204.02847,363.72724 202.41001,358.73619 192.14956,358.89745 182.61551,350.47557 176.66273,350.39001 167.3071,344.99599 159.13448,345.01911 157.69571,337.37431 152.50275,334.59683 144.58443,322.00483 143.55851,313.52808 150.42209,311.55126 140.94305,302.89991 137.88476,295.13746 145.13127,289.2872 151.16069,277.20348 148.2678,272.68507 153.22314,265.7311 163.89797,266.5912 162.28411,261.19719 157.047,257.00854 153.65072,248.4615 156.28331,242.44041 144.46822,236.15701 142.27404,239.3123 136.05303,238.6153 121.76395,229.59668 123.20934,220.19701 120.09893,210.82201 111.56973,210.63293 109.50528,201.4088 104.84894,196.16194 111.10929,189.17003 118.45287,189.41716 121.77241,185.40194 131.85573,190.57089 137.71933,187.63795 136.897,183.01847 143.60113,182.26903 145.60503,175.68028 155.9647,172.09914 158.01307,174.8282 166.05333,166.29415 162.18444,154.14107 167.85935,148.16447 170.66188,140.51797 161.47415,135.34013 160.29933,129.732 163.76341,120.83924 166.23802,126.17389 174.52848,128.35783 179.92737,120.36666 192.99219,119.23599 206.42531,106.72895 215.36039,104.99849 229.40612,110.85752 236.25939,110.85455 249.79901,100.92222 255.74268,102.7858 260.38218,92.980525 255.76458,86.583466 259.24222,79.281965 249.37239,67.743378 250.22315,55.547825 248.34178,46.152523 249.84474,44.644105 249.46993,36.169842 252.97515,31.908322 261.32061,30.986005 267.62103,22.90413 266.98672,12.831195 275.66032,10.461443 281.04742,4.2519177 282.07253,-2.2848902 278.12878,-9.7147666 271.28658,-15.140861 277.70865,-23.029489 286.11815,-24.582286 291.57158,-33.830288 297.55677,-37.052463 294.461,-42.507155 302.03752,-49.877391 311.59313,-53.344285 315.10539,-50.347842 316.29222,-30.621303 312.37724,-24.495353 318.02137,-13.552754 325.83262,-11.251701 336.74936,4.5853648 349.58613,8.1433029"
         style="stroke:#a6c0d6;stroke-width:3px"
         id="path12"
         inkscape:connector-curvature="0" />
      <path
         d="M 309.08977,67.378894 314.59607,80.176272 305.03094,80.810262 310.93036,90.750458 315.66909,94.081739 319.77506,122.78512 319.40397,132.53987 323.43573,129.43172 326.43608,134.90629 331.60047,135.57086 332.3523,140.18328 328.08174,144.12211 334.35263,145.92791 332.71821,149.89197 337.56237,152.19885 336.6183,161.99887 343.84503,164.7502 340.30406,170.87601 333.66786,166.05346 322.22651,166.01253 316.90538,167.58403 313.41606,172.48039 310.99916,171.42279 305.40942,171.18116 294.10524,175.56574 291.5177,174.10955 284.73801,171.29795 279.83602,172.62288 272.40721,166.39841 269.6175,159.2736 270.27971,151.123 265.79551,144.91602 273.82944,147.04894 271.68179,138.46792 273.62522,134.49508 285.86042,138.38101 290.44099,127.75041 296.88544,123.48314 304.94859,106.13733 299.23287,96.787108 305.90763,94.12105 305.37737,88.281546 289.31625,76.367204 288.62148,72.362312 281.19659,72.231539 277.04389,75.533106 269.36589,76.018165 267.10516,79.399529 259.24222,79.281965 249.37239,67.743378 250.22315,55.547825 248.34178,46.152523 249.84474,44.644105 260.5231,48.43589 266.31496,43.622136 275.15297,43.468825 288.56397,37.752442 291.18814,42.439221 301.99955,48.006962 306.40807,55.408434 305.10281,68.654956 z M 337.95318,55.709257 334.10448,65.288613 339.13238,72.842325 345.61671,74.014661 345.42349,81.725995 350.71162,82.37121 351.83056,87.966198 348.3641,88.410365 354.18151,94.488739 355.12518,101.71839 357.80912,110.85388 365.75295,113.73975 373.57679,129.20096 367.94156,132.23839 358.62498,132.89558 364.49872,137.34917 359.39928,146.02334 353.27287,148.47956 351.69997,142.70741 345.97471,138.23701 338.74145,137.31473 334.35263,145.92791 328.08174,144.12211 332.3523,140.18328 331.60047,135.57086 326.43608,134.90629 323.43573,129.43172 319.40397,132.53987 319.77506,122.78512 315.66909,94.081739 310.93036,90.750458 305.03094,80.810262 314.59607,80.176272 309.08977,67.378894 311.99562,65.160994 311.66781,55.869211 315.81157,57.009801 321.09414,49.164163 326.60415,55.472548 z M 255.74268,102.7858 255.08036,113.35949 265.38286,121.83913 274.66142,127.74214 273.62522,134.49508 271.68179,138.46792 273.82944,147.04894 265.79551,144.91602 270.27971,151.123 269.6175,159.2736 272.40721,166.39841 279.83602,172.62288 284.73801,171.29795 291.5177,174.10955 290.78,178.61904 289.24594,182.16549 285.52694,181.38861 283.52139,186.78993 276.27945,181.36513 261.04819,189.00574 261.12854,195.08588 266.73975,195.55079 268.93118,200.08061 264.89413,201.34515 266.19785,208.16248 261.13929,216.79325 266.03083,219.73865 264.90095,225.28764 269.58227,231.89857 264.85252,236.45339 253.06602,231.69388 248.03592,238.69525 237.8135,240.32077 228.23849,235.40548 226.9184,240.55603 222.36412,240.82107 216.19443,248.88915 197.17208,251.59005 196.33563,247.17218 173.48521,252.68575 169.10354,259.00847 162.28411,261.19719 157.047,257.00854 153.65072,248.4615 156.28331,242.44041 144.46822,236.15701 142.27404,239.3123 136.05303,238.6153 121.76395,229.59668 123.20934,220.19701 120.09893,210.82201 111.56973,210.63293 109.50528,201.4088 104.84894,196.16194 111.10929,189.17003 118.45287,189.41716 121.77241,185.40194 131.85573,190.57089 137.71933,187.63795 136.897,183.01847 143.60113,182.26903 145.60503,175.68028 155.9647,172.09914 158.01307,174.8282 166.05333,166.29415 162.18444,154.14107 167.85935,148.16447 170.66188,140.51797 161.47415,135.34013 160.29933,129.732 163.76341,120.83924 166.23802,126.17389 174.52848,128.35783 179.92737,120.36666 192.99219,119.23599 206.42531,106.72895 215.36039,104.99849 229.40612,110.85752 236.25939,110.85455 249.79901,100.92222 z M 291.11877,243.73864 296.91136,253.52032 300.19657,247.21703 303.96037,250.62865 309.62862,249.24443 310.33231,255.49396 306.03505,259.8358 302.87933,268.16459 309.85722,277.66525 308.62303,279.16771 311.37741,285.0832 308.11723,287.32729 305.00576,296.46934 308.6079,301.72256 306.70742,306.72321 299.30569,313.90689 295.16253,325.75715 289.83564,326.09521 293.84372,330.71964 291.58248,339.60459 295.9367,347.25747 292.6028,353.36579 285.35675,351.78916 281.54247,355.07771 286.60699,359.84421 270.04882,361.88908 254.6684,356.31757 249.97866,360.05481 252.09619,368.06088 249.25923,370.46701 249.63568,366.78466 242.73589,358.45226 244.6891,351.22161 238.2771,350.99052 236.32601,355.78034 221.43616,358.26987 212.80908,363.63994 204.02847,363.72724 202.41001,358.73619 192.14956,358.89745 182.61551,350.47557 176.66273,350.39001 167.3071,344.99599 159.13448,345.01911 157.69571,337.37431 152.50275,334.59683 144.58443,322.00483 143.55851,313.52808 150.42209,311.55126 140.94305,302.89991 137.88476,295.13746 145.13127,289.2872 151.16069,277.20348 148.2678,272.68507 153.22314,265.7311 163.89797,266.5912 162.28411,261.19719 169.10354,259.00847 173.48521,252.68575 196.33563,247.17218 197.17208,251.59005 216.19443,248.88915 222.36412,240.82107 226.9184,240.55603 228.23849,235.40548 237.8135,240.32077 248.03592,238.69525 253.06602,231.69388 264.85252,236.45339 269.58227,231.89857 282.71732,239.19622 288.936,234.94501 293.20279,237.10877 z M 289.24594,182.16549 287.38813,187.55821 293.97841,198.70025 297.60182,195.62622 302.05399,200.81627 303.68436,191.9854 311.61143,191.8722 318.73033,197.2862 318.1736,202.19356 322.77039,207.16469 320.07069,215.26026 324.30178,223.50465 323.01101,228.46315 328.84067,227.46456 328.76624,232.95164 336.24364,234.47869 339.14735,238.14027 336.88642,243.97985 329.90245,247.69965 331.08299,252.08868 326.92775,256.22588 321.09678,255.19186 322.39586,265.87111 318.25912,270.41055 325.12933,275.84725 314.73223,279.78443 312.50222,286.43199 311.37741,285.0832 308.62303,279.16771 309.85722,277.66525 302.87933,268.16459 306.03505,259.8358 310.33231,255.49396 309.62862,249.24443 303.96037,250.62865 300.19657,247.21703 296.91136,253.52032 291.11877,243.73864 293.20279,237.10877 288.936,234.94501 282.71732,239.19622 269.58227,231.89857 264.90095,225.28764 266.03083,219.73865 261.13929,216.79325 266.19785,208.16248 264.89413,201.34515 268.93118,200.08061 266.73975,195.55079 261.12854,195.08588 261.04819,189.00574 276.27945,181.36513 283.52139,186.78993 285.52694,181.38861 z M 340.30406,170.87601 348.44177,178.22986 355.57868,196.40627 361.03227,192.37238 369.75748,197.23917 375.69412,189.71314 384.73415,188.65958 385.71141,196.10038 389.09167,200.11991 393.26408,198.80222 394.99385,206.3923 399.75904,213.15229 408.15085,219.03502 406.01276,222.03634 410.15771,228.23097 419.61031,228.34102 422.00237,234.6637 427.53199,237.49948 426.78261,249.13941 427.88738,261.86139 422.49873,268.97358 417.1071,268.15551 415.73141,263.58244 409.25298,262.02871 404.89276,255.03269 393.1114,253.65535 388.00196,260.72951 391.67835,264.5292 393.38067,273.75548 382.15499,274.15452 378.06307,287.45385 368.66799,271.85672 357.62024,272.62671 353.64077,277.16883 351.54362,285.44186 339.15595,286.28572 336.06124,288.72989 330.30708,286.88058 329.3578,292.63397 312.50222,286.43199 314.73223,279.78443 325.12933,275.84725 318.25912,270.41055 322.39586,265.87111 321.09678,255.19186 326.92775,256.22588 331.08299,252.08868 329.90245,247.69965 336.88642,243.97985 339.14735,238.14027 336.24364,234.47869 328.76624,232.95164 328.84067,227.46456 323.01101,228.46315 324.30178,223.50465 320.07069,215.26026 322.77039,207.16469 318.1736,202.19356 318.73033,197.2862 311.61143,191.8722 303.68436,191.9854 302.05399,200.81627 297.60182,195.62622 293.97841,198.70025 287.38813,187.55821 289.24594,182.16549 290.78,178.61904 291.5177,174.10955 294.10524,175.56574 305.40942,171.18116 310.99916,171.42279 313.41606,172.48039 316.90538,167.58403 322.22651,166.01253 333.66786,166.05346 z M 273.62522,134.49508 274.66142,127.74214 265.38286,121.83913 255.08036,113.35949 255.74268,102.7858 260.38218,92.980525 255.76458,86.583466 259.24222,79.281965 267.10516,79.399529 269.36589,76.018165 277.04389,75.533106 281.19659,72.231539 288.62148,72.362312 289.31625,76.367204 305.37737,88.281546 305.90763,94.12105 299.23287,96.787108 304.94859,106.13733 296.88544,123.48314 290.44099,127.75041 285.86042,138.38101 z M 349.58613,8.1433029 352.104,21.322579 334.36228,43.605575 337.95318,55.709257 326.60415,55.472548 321.09414,49.164163 315.81157,57.009801 311.66781,55.869211 311.99562,65.160994 309.08977,67.378894 305.10281,68.654956 306.40807,55.408434 301.99955,48.006962 291.18814,42.439221 288.56397,37.752442 275.15297,43.468825 266.31496,43.622136 260.5231,48.43589 249.84474,44.644105 249.46993,36.169842 252.97515,31.908322 261.32061,30.986005 267.62103,22.90413 266.98672,12.831195 275.66032,10.461443 281.04742,4.2519177 282.07253,-2.2848902 278.12878,-9.7147666 271.28658,-15.140861 277.70865,-23.029489 286.11815,-24.582286 291.57158,-33.830288 297.55677,-37.052463 294.461,-42.507155 302.03752,-49.877391 311.59313,-53.344285 315.10539,-50.347842 316.29222,-30.621303 312.37724,-24.495353 318.02137,-13.552754 325.83262,-11.251701 336.74936,4.5853648 z"
         style="fill:#d0e1ef;stroke:#a6c0d6;stroke-width:0.69999999px"
         id="path14"
         inkscape:connector-curvature="0" />
      <path
         id="provcode-2"
         d="M 309.08977,67.378894 314.59607,80.176272 305.03094,80.810262 310.93036,90.750458 315.66909,94.081739 319.77506,122.78512 319.40397,132.53987 323.43573,129.43172 326.43608,134.90629 331.60047,135.57086 332.3523,140.18328 328.08174,144.12211 334.35263,145.92791 332.71821,149.89197 337.56237,152.19885 336.6183,161.99887 343.84503,164.7502 340.30406,170.87601 333.66786,166.05346 322.22651,166.01253 316.90538,167.58403 313.41606,172.48039 310.99916,171.42279 305.40942,171.18116 294.10524,175.56574 291.5177,174.10955 284.73801,171.29795 279.83602,172.62288 272.40721,166.39841 269.6175,159.2736 270.27971,151.123 265.79551,144.91602 273.82944,147.04894 271.68179,138.46792 273.62522,134.49508 285.86042,138.38101 290.44099,127.75041 296.88544,123.48314 304.94859,106.13733 299.23287,96.787108 305.90763,94.12105 305.37737,88.281546 289.31625,76.367204 288.62148,72.362312 281.19659,72.231539 277.04389,75.533106 269.36589,76.018165 267.10516,79.399529 259.24222,79.281965 249.37239,67.743378 250.22315,55.547825 248.34178,46.152523 249.84474,44.644105 260.5231,48.43589 266.31496,43.622136 275.15297,43.468825 288.56397,37.752442 291.18814,42.439221 301.99955,48.006962 306.40807,55.408434 305.10281,68.654956 z"
         style="fill:#d0e1ef;stroke:#a6c0d6;stroke-width:0.69999999px"
         inkscape:connector-curvature="0" />
      <path
         id="provcode-3"
         d="M 337.95318,55.709257 334.10448,65.288613 339.13238,72.842325 345.61671,74.014661 345.42349,81.725995 350.71162,82.37121 351.83056,87.966198 348.3641,88.410365 354.18151,94.488739 355.12518,101.71839 357.80912,110.85388 365.75295,113.73975 373.57679,129.20096 367.94156,132.23839 358.62498,132.89558 364.49872,137.34917 359.39928,146.02334 353.27287,148.47956 351.69997,142.70741 345.97471,138.23701 338.74145,137.31473 334.35263,145.92791 328.08174,144.12211 332.3523,140.18328 331.60047,135.57086 326.43608,134.90629 323.43573,129.43172 319.40397,132.53987 319.77506,122.78512 315.66909,94.081739 310.93036,90.750458 305.03094,80.810262 314.59607,80.176272 309.08977,67.378894 311.99562,65.160994 311.66781,55.869211 315.81157,57.009801 321.09414,49.164163 326.60415,55.472548 z"
         style="fill:#d0e1ef;stroke:#a6c0d6;stroke-width:0.69999999px"
         inkscape:connector-curvature="0" />
      <path
         id="provcode-1"
         d="M 255.74268,102.7858 255.08036,113.35949 265.38286,121.83913 274.66142,127.74214 273.62522,134.49508 271.68179,138.46792 273.82944,147.04894 265.79551,144.91602 270.27971,151.123 269.6175,159.2736 272.40721,166.39841 279.83602,172.62288 284.73801,171.29795 291.5177,174.10955 290.78,178.61904 289.24594,182.16549 285.52694,181.38861 283.52139,186.78993 276.27945,181.36513 261.04819,189.00574 261.12854,195.08588 266.73975,195.55079 268.93118,200.08061 264.89413,201.34515 266.19785,208.16248 261.13929,216.79325 266.03083,219.73865 264.90095,225.28764 269.58227,231.89857 264.85252,236.45339 253.06602,231.69388 248.03592,238.69525 237.8135,240.32077 228.23849,235.40548 226.9184,240.55603 222.36412,240.82107 216.19443,248.88915 197.17208,251.59005 196.33563,247.17218 173.48521,252.68575 169.10354,259.00847 162.28411,261.19719 157.047,257.00854 153.65072,248.4615 156.28331,242.44041 144.46822,236.15701 142.27404,239.3123 136.05303,238.6153 121.76395,229.59668 123.20934,220.19701 120.09893,210.82201 111.56973,210.63293 109.50528,201.4088 104.84894,196.16194 111.10929,189.17003 118.45287,189.41716 121.77241,185.40194 131.85573,190.57089 137.71933,187.63795 136.897,183.01847 143.60113,182.26903 145.60503,175.68028 155.9647,172.09914 158.01307,174.8282 166.05333,166.29415 162.18444,154.14107 167.85935,148.16447 170.66188,140.51797 161.47415,135.34013 160.29933,129.732 163.76341,120.83924 166.23802,126.17389 174.52848,128.35783 179.92737,120.36666 192.99219,119.23599 206.42531,106.72895 215.36039,104.99849 229.40612,110.85752 236.25939,110.85455 249.79901,100.92222 z"
         style="fill:#d0e1ef;stroke:#a6c0d6;stroke-width:0.69999999px"
         inkscape:connector-curvature="0" />
      <path
         id="provcode-4"
         d="M 291.11877,243.73864 296.91136,253.52032 300.19657,247.21703 303.96037,250.62865 309.62862,249.24443 310.33231,255.49396 306.03505,259.8358 302.87933,268.16459 309.85722,277.66525 308.62303,279.16771 311.37741,285.0832 308.11723,287.32729 305.00576,296.46934 308.6079,301.72256 306.70742,306.72321 299.30569,313.90689 295.16253,325.75715 289.83564,326.09521 293.84372,330.71964 291.58248,339.60459 295.9367,347.25747 292.6028,353.36579 285.35675,351.78916 281.54247,355.07771 286.60699,359.84421 270.04882,361.88908 254.6684,356.31757 249.97866,360.05481 252.09619,368.06088 249.25923,370.46701 249.63568,366.78466 242.73589,358.45226 244.6891,351.22161 238.2771,350.99052 236.32601,355.78034 221.43616,358.26987 212.80908,363.63994 204.02847,363.72724 202.41001,358.73619 192.14956,358.89745 182.61551,350.47557 176.66273,350.39001 167.3071,344.99599 159.13448,345.01911 157.69571,337.37431 152.50275,334.59683 144.58443,322.00483 143.55851,313.52808 150.42209,311.55126 140.94305,302.89991 137.88476,295.13746 145.13127,289.2872 151.16069,277.20348 148.2678,272.68507 153.22314,265.7311 163.89797,266.5912 162.28411,261.19719 169.10354,259.00847 173.48521,252.68575 196.33563,247.17218 197.17208,251.59005 216.19443,248.88915 222.36412,240.82107 226.9184,240.55603 228.23849,235.40548 237.8135,240.32077 248.03592,238.69525 253.06602,231.69388 264.85252,236.45339 269.58227,231.89857 282.71732,239.19622 288.936,234.94501 293.20279,237.10877 z"
         style="fill:url(#diagonalHatch);stroke:#a6c0d6;stroke-width:0.69999999px"
         inkscape:connector-curvature="0" />
      <path
         id="provcode-5"
         d="M 289.24594,182.16549 287.38813,187.55821 293.97841,198.70025 297.60182,195.62622 302.05399,200.81627 303.68436,191.9854 311.61143,191.8722 318.73033,197.2862 318.1736,202.19356 322.77039,207.16469 320.07069,215.26026 324.30178,223.50465 323.01101,228.46315 328.84067,227.46456 328.76624,232.95164 336.24364,234.47869 339.14735,238.14027 336.88642,243.97985 329.90245,247.69965 331.08299,252.08868 326.92775,256.22588 321.09678,255.19186 322.39586,265.87111 318.25912,270.41055 325.12933,275.84725 314.73223,279.78443 312.50222,286.43199 311.37741,285.0832 308.62303,279.16771 309.85722,277.66525 302.87933,268.16459 306.03505,259.8358 310.33231,255.49396 309.62862,249.24443 303.96037,250.62865 300.19657,247.21703 296.91136,253.52032 291.11877,243.73864 293.20279,237.10877 288.936,234.94501 282.71732,239.19622 269.58227,231.89857 264.90095,225.28764 266.03083,219.73865 261.13929,216.79325 266.19785,208.16248 264.89413,201.34515 268.93118,200.08061 266.73975,195.55079 261.12854,195.08588 261.04819,189.00574 276.27945,181.36513 283.52139,186.78993 285.52694,181.38861 z"
         style="fill:#d0e1ef;stroke:#a6c0d6;stroke-width:0.69999999px"
         inkscape:connector-curvature="0" />
      <path
         id="provcode-6"
         d="M 340.30406,170.87601 348.44177,178.22986 355.57868,196.40627 361.03227,192.37238 369.75748,197.23917 375.69412,189.71314 384.73415,188.65958 385.71141,196.10038 389.09167,200.11991 393.26408,198.80222 394.99385,206.3923 399.75904,213.15229 408.15085,219.03502 406.01276,222.03634 410.15771,228.23097 419.61031,228.34102 422.00237,234.6637 427.53199,237.49948 426.78261,249.13941 427.88738,261.86139 422.49873,268.97358 417.1071,268.15551 415.73141,263.58244 409.25298,262.02871 404.89276,255.03269 393.1114,253.65535 388.00196,260.72951 391.67835,264.5292 393.38067,273.75548 382.15499,274.15452 378.06307,287.45385 368.66799,271.85672 357.62024,272.62671 353.64077,277.16883 351.54362,285.44186 339.15595,286.28572 336.06124,288.72989 330.30708,286.88058 329.3578,292.63397 312.50222,286.43199 314.73223,279.78443 325.12933,275.84725 318.25912,270.41055 322.39586,265.87111 321.09678,255.19186 326.92775,256.22588 331.08299,252.08868 329.90245,247.69965 336.88642,243.97985 339.14735,238.14027 336.24364,234.47869 328.76624,232.95164 328.84067,227.46456 323.01101,228.46315 324.30178,223.50465 320.07069,215.26026 322.77039,207.16469 318.1736,202.19356 318.73033,197.2862 311.61143,191.8722 303.68436,191.9854 302.05399,200.81627 297.60182,195.62622 293.97841,198.70025 287.38813,187.55821 289.24594,182.16549 290.78,178.61904 291.5177,174.10955 294.10524,175.56574 305.40942,171.18116 310.99916,171.42279 313.41606,172.48039 316.90538,167.58403 322.22651,166.01253 333.66786,166.05346 z"
         style="fill:#d0e1ef;stroke:#a6c0d6;stroke-width:0.69999999px"
         inkscape:connector-curvature="0" />
      <path
         id="provcode-96"
         d="M 273.62522,134.49508 274.66142,127.74214 265.38286,121.83913 255.08036,113.35949 255.74268,102.7858 260.38218,92.980525 255.76458,86.583466 259.24222,79.281965 267.10516,79.399529 269.36589,76.018165 277.04389,75.533106 281.19659,72.231539 288.62148,72.362312 289.31625,76.367204 305.37737,88.281546 305.90763,94.12105 299.23287,96.787108 304.94859,106.13733 296.88544,123.48314 290.44099,127.75041 285.86042,138.38101 z"
         style="fill:#d0e1ef;stroke:#a6c0d6;stroke-width:0.69999999px"
         inkscape:connector-curvature="0" />
      <path
         id="provcode-103"
         d="M 349.58613,8.1433029 352.104,21.322579 334.36228,43.605575 337.95318,55.709257 326.60415,55.472548 321.09414,49.164163 315.81157,57.009801 311.66781,55.869211 311.99562,65.160994 309.08977,67.378894 305.10281,68.654956 306.40807,55.408434 301.99955,48.006962 291.18814,42.439221 288.56397,37.752442 275.15297,43.468825 266.31496,43.622136 260.5231,48.43589 249.84474,44.644105 249.46993,36.169842 252.97515,31.908322 261.32061,30.986005 267.62103,22.90413 266.98672,12.831195 275.66032,10.461443 281.04742,4.2519177 282.07253,-2.2848902 278.12878,-9.7147666 271.28658,-15.140861 277.70865,-23.029489 286.11815,-24.582286 291.57158,-33.830288 297.55677,-37.052463 294.461,-42.507155 302.03752,-49.877391 311.59313,-53.344285 315.10539,-50.347842 316.29222,-30.621303 312.37724,-24.495353 318.02137,-13.552754 325.83262,-11.251701 336.74936,4.5853648 z"
         style="fill:#d0e1ef;stroke:#a6c0d6;stroke-width:0.69999999px"
         inkscape:connector-curvature="0" />
      <g
         id="circle-provcode-2"
         style="fill-opacity:0.7">
        <circle
           transform="translate(305.06262,142.12174)"
           r="13.2665"
           style="fill:#86a2ba"
           id="circle25"
           d="M 13.2665,0 C 13.2665,7.3268859 7.3268859,13.2665 0,13.2665 -7.3268859,13.2665 -13.2665,7.3268859 -13.2665,0 -13.2665,-7.3268859 -7.3268859,-13.2665 0,-13.2665 7.3268859,-13.2665 13.2665,-7.3268859 13.2665,0 z"
           cx="0"
           cy="0"
           sodipodi:cx="0"
           sodipodi:cy="0"
           sodipodi:rx="13.2665"
           sodipodi:ry="13.2665" />
        <circle
           transform="translate(305.06262,142.12174)"
           r="8.944272"
           style="fill:#535353"
           id="circle27"
           d="M 8.944272,0 C 8.944272,4.939785 4.939785,8.944272 0,8.944272 -4.939785,8.944272 -8.944272,4.939785 -8.944272,0 -8.944272,-4.939785 -4.939785,-8.944272 0,-8.944272 4.939785,-8.944272 8.944272,-4.939785 8.944272,0 z"
           cx="0"
           cy="0"
           sodipodi:cx="0"
           sodipodi:cy="0"
           sodipodi:rx="8.944272"
           sodipodi:ry="8.944272" />
      </g>
      <g
         id="circle-provcode-3"
         style="fill-opacity:0.7">
        <circle
           transform="translate(336.5126,102.30466)"
           r="20"
           style="fill:#86a2ba"
           id="circle30"
           d="M 20,0 C 20,11.045695 11.045695,20 0,20 -11.045695,20 -20,11.045695 -20,0 -20,-11.045695 -11.045695,-20 0,-20 11.045695,-20 20,-11.045695 20,0 z"
           cx="0"
           cy="0"
           sodipodi:cx="0"
           sodipodi:cy="0"
           sodipodi:rx="20"
           sodipodi:ry="20" />
        <circle
           transform="translate(336.5126,102.30466)"
           r="11.775681"
           style="fill:#535353"
           id="circle32"
           d="M 11.775681,0 C 11.775681,6.5035288 6.5035288,11.775681 0,11.775681 -6.5035288,11.775681 -11.775681,6.5035288 -11.775681,0 -11.775681,-6.5035288 -6.5035288,-11.775681 0,-11.775681 6.5035288,-11.775681 11.775681,-6.5035288 11.775681,0 z"
           cx="0"
           cy="0"
           sodipodi:cx="0"
           sodipodi:cy="0"
           sodipodi:rx="11.775681"
           sodipodi:ry="11.775681" />
      </g>
      <g
         id="circle-provcode-1"
         style="fill-opacity:0.7">
        <circle
           transform="translate(204.26077,183.81041)"
           r="19.183327"
           style="fill:#86a2ba"
           id="circle35"
           d="M 19.183327,0 C 19.183327,10.594659 10.594659,19.183327 0,19.183327 -10.594659,19.183327 -19.183327,10.594659 -19.183327,0 -19.183327,-10.594659 -10.594659,-19.183327 0,-19.183327 10.594659,-19.183327 19.183327,-10.594659 19.183327,0 z"
           cx="0"
           cy="0"
           sodipodi:cx="0"
           sodipodi:cy="0"
           sodipodi:rx="19.183327"
           sodipodi:ry="19.183327" />
        <circle
           transform="translate(204.26077,183.81041)"
           r="9.2376041"
           style="fill:#535353"
           id="circle37"
           d="M 9.2376041,0 C 9.2376041,5.1017879 5.1017879,9.2376041 0,9.2376041 -5.1017879,9.2376041 -9.2376041,5.1017879 -9.2376041,0 -9.2376041,-5.1017879 -5.1017879,-9.2376041 0,-9.2376041 5.1017879,-9.2376041 9.2376041,-5.1017879 9.2376041,0 z"
           cx="0"
           cy="0"
           sodipodi:cx="0"
           sodipodi:cy="0"
           sodipodi:rx="9.2376041"
           sodipodi:ry="9.2376041" />
      </g>
      <g
         id="circle-provcode-4"
         style="fill-opacity:1">
        <circle
           transform="translate(229.42404,299.19621)"
           r="13.466006"
           style="fill:#86a2ba"
           id="circle40"
           d="M 13.466006,0 C 13.466006,7.4370699 7.4370699,13.466006 0,13.466006 -7.4370699,13.466006 -13.466006,7.4370699 -13.466006,0 -13.466006,-7.4370699 -7.4370699,-13.466006 0,-13.466006 7.4370699,-13.466006 13.466006,-7.4370699 13.466006,0 z"
           cx="0"
           cy="0"
           sodipodi:cx="0"
           sodipodi:cy="0"
           sodipodi:rx="13.466006"
           sodipodi:ry="13.466006" />
        <circle
           transform="translate(229.42404,299.19621)"
           r="5.1639776"
           style="fill:#535353"
           id="circle42"
           d="M 5.1639776,0 C 5.1639776,2.8519861 2.8519861,5.1639776 0,5.1639776 -2.8519861,5.1639776 -5.1639776,2.8519861 -5.1639776,0 -5.1639776,-2.8519861 -2.8519861,-5.1639776 0,-5.1639776 2.8519861,-5.1639776 5.1639776,-2.8519861 5.1639776,0 z"
           cx="0"
           cy="0"
           sodipodi:cx="0"
           sodipodi:cy="0"
           sodipodi:rx="5.1639776"
           sodipodi:ry="5.1639776" />
      </g>
      <g
         id="circle-provcode-5"
         style="fill-opacity:0.7">
        <circle
           transform="translate(299.12842,224.73367)"
           r="13.063946"
           style="fill:#86a2ba"
           id="circle45"
           d="M 13.063946,0 C 13.063946,7.215018 7.215018,13.063946 0,13.063946 -7.215018,13.063946 -13.063946,7.215018 -13.063946,0 -13.063946,-7.215018 -7.215018,-13.063946 0,-13.063946 7.215018,-13.063946 13.063946,-7.215018 13.063946,0 z"
           cx="0"
           cy="0"
           sodipodi:cx="0"
           sodipodi:cy="0"
           sodipodi:rx="13.063946"
           sodipodi:ry="13.063946" />
        <circle
           transform="translate(299.12842,224.73367)"
           r="7.3029675"
           style="fill:#535353"
           id="circle47"
           d="M 7.3029675,0 C 7.3029675,4.0333176 4.0333176,7.3029675 0,7.3029675 -4.0333176,7.3029675 -7.3029675,4.0333176 -7.3029675,0 -7.3029675,-4.0333176 -4.0333176,-7.3029675 0,-7.3029675 4.0333176,-7.3029675 7.3029675,-4.0333176 7.3029675,0 z"
           cx="0"
           cy="0"
           sodipodi:cx="0"
           sodipodi:cy="0"
           sodipodi:rx="7.3029675"
           sodipodi:ry="7.3029675" />
      </g>
      <g
         id="circle-provcode-6"
         style="fill-opacity:0.7">
        <circle
           transform="translate(358.44852,229.03523)"
           r="17.738846"
           style="fill:#86a2ba"
           id="circle50"
           d="M 17.738846,0 C 17.738846,9.796894 9.796894,17.738846 0,17.738846 -9.796894,17.738846 -17.738846,9.796894 -17.738846,0 -17.738846,-9.796894 -9.796894,-17.738846 0,-17.738846 9.796894,-17.738846 17.738846,-9.796894 17.738846,0 z"
           cx="0"
           cy="0"
           sodipodi:cx="0"
           sodipodi:cy="0"
           sodipodi:rx="17.738846"
           sodipodi:ry="17.738846" />
        <circle
           transform="translate(358.44852,229.03523)"
           r="9.5219049"
           style="fill:#535353"
           id="circle52"
           d="M 9.5219049,0 C 9.5219049,5.2588029 5.2588029,9.5219049 0,9.5219049 -5.2588029,9.5219049 -9.5219049,5.2588029 -9.5219049,0 -9.5219049,-5.2588029 -5.2588029,-9.5219049 0,-9.5219049 5.2588029,-9.5219049 9.5219049,-5.2588029 9.5219049,0 z"
           cx="0"
           cy="0"
           sodipodi:cx="0"
           sodipodi:cy="0"
           sodipodi:rx="9.5219049"
           sodipodi:ry="9.5219049" />
      </g>
      <g
         id="circle-provcode-96"
         style="fill-opacity:0.7">
        <circle
           transform="translate(280.10991,102.59416)"
           r="13.063946"
           style="fill:#86a2ba"
           id="circle55"
           d="M 13.063946,0 C 13.063946,7.215018 7.215018,13.063946 0,13.063946 -7.215018,13.063946 -13.063946,7.215018 -13.063946,0 -13.063946,-7.215018 -7.215018,-13.063946 0,-13.063946 7.215018,-13.063946 13.063946,-7.215018 13.063946,0 z"
           cx="0"
           cy="0"
           sodipodi:cx="0"
           sodipodi:cy="0"
           sodipodi:rx="13.063946"
           sodipodi:ry="13.063946" />
        <circle
           transform="translate(280.10991,102.59416)"
           r="8.6409874"
           style="fill:#535353"
           id="circle57"
           d="M 8.6409874,0 C 8.6409874,4.7722856 4.7722856,8.6409874 0,8.6409874 -4.7722856,8.6409874 -8.6409874,4.7722856 -8.6409874,0 -8.6409874,-4.7722856 -4.7722856,-8.6409874 0,-8.6409874 4.7722856,-8.6409874 8.6409874,-4.7722856 8.6409874,0 z"
           cx="0"
           cy="0"
           sodipodi:cx="0"
           sodipodi:cy="0"
           sodipodi:rx="8.6409874"
           sodipodi:ry="8.6409874" />
      </g>
      <g
         id="circle-provcode-103"
         style="fill-opacity:0.7">
        <circle
           transform="translate(304.43697,12.571507)"
           r="16.165808"
           style="fill:#86a2ba"
           id="circle60"
           d="M 16.165808,0 C 16.165808,8.9281291 8.9281291,16.165808 0,16.165808 -8.9281291,16.165808 -16.165808,8.9281291 -16.165808,0 -16.165808,-8.9281291 -8.9281291,-16.165808 0,-16.165808 8.9281291,-16.165808 16.165808,-8.9281291 16.165808,0 z"
           cx="0"
           cy="0"
           sodipodi:cx="0"
           sodipodi:cy="0"
           sodipodi:rx="16.165808"
           sodipodi:ry="16.165808" />
        <circle
           transform="translate(304.43697,12.571507)"
           r="8.944272"
           style="fill:#535353"
           id="circle62"
           d="M 8.944272,0 C 8.944272,4.939785 4.939785,8.944272 0,8.944272 -4.939785,8.944272 -8.944272,4.939785 -8.944272,0 -8.944272,-4.939785 -4.939785,-8.944272 0,-8.944272 4.939785,-8.944272 8.944272,-4.939785 8.944272,0 z"
           cx="0"
           cy="0"
           sodipodi:cx="0"
           sodipodi:cy="0"
           sodipodi:rx="8.944272"
           sodipodi:ry="8.944272" />
      </g>
      <path
         d="M 309.08977,67.378894 314.59607,80.176272 305.03094,80.810262 310.93036,90.750458 315.66909,94.081739 319.77506,122.78512 319.40397,132.53987 323.43573,129.43172 326.43608,134.90629 331.60047,135.57086 332.3523,140.18328 328.08174,144.12211 334.35263,145.92791 332.71821,149.89197 337.56237,152.19885 336.6183,161.99887 343.84503,164.7502 340.30406,170.87601 333.66786,166.05346 322.22651,166.01253 316.90538,167.58403 313.41606,172.48039 310.99916,171.42279 305.40942,171.18116 294.10524,175.56574 291.5177,174.10955 284.73801,171.29795 279.83602,172.62288 272.40721,166.39841 269.6175,159.2736 270.27971,151.123 265.79551,144.91602 273.82944,147.04894 271.68179,138.46792 273.62522,134.49508 285.86042,138.38101 290.44099,127.75041 296.88544,123.48314 304.94859,106.13733 299.23287,96.787108 305.90763,94.12105 305.37737,88.281546 289.31625,76.367204 288.62148,72.362312 281.19659,72.231539 277.04389,75.533106 269.36589,76.018165 267.10516,79.399529 259.24222,79.281965 249.37239,67.743378 250.22315,55.547825 248.34178,46.152523 249.84474,44.644105 260.5231,48.43589 266.31496,43.622136 275.15297,43.468825 288.56397,37.752442 291.18814,42.439221 301.99955,48.006962 306.40807,55.408434 305.10281,68.654956 z"
         style="fill-opacity:0;stroke-opacity:0"
         id="path64"
         inkscape:connector-curvature="0" />
      <path
         d="M 337.95318,55.709257 334.10448,65.288613 339.13238,72.842325 345.61671,74.014661 345.42349,81.725995 350.71162,82.37121 351.83056,87.966198 348.3641,88.410365 354.18151,94.488739 355.12518,101.71839 357.80912,110.85388 365.75295,113.73975 373.57679,129.20096 367.94156,132.23839 358.62498,132.89558 364.49872,137.34917 359.39928,146.02334 353.27287,148.47956 351.69997,142.70741 345.97471,138.23701 338.74145,137.31473 334.35263,145.92791 328.08174,144.12211 332.3523,140.18328 331.60047,135.57086 326.43608,134.90629 323.43573,129.43172 319.40397,132.53987 319.77506,122.78512 315.66909,94.081739 310.93036,90.750458 305.03094,80.810262 314.59607,80.176272 309.08977,67.378894 311.99562,65.160994 311.66781,55.869211 315.81157,57.009801 321.09414,49.164163 326.60415,55.472548 z"
         style="fill-opacity:0;stroke-opacity:0"
         id="path66"
         inkscape:connector-curvature="0" />
      <path
         d="M 255.74268,102.7858 255.08036,113.35949 265.38286,121.83913 274.66142,127.74214 273.62522,134.49508 271.68179,138.46792 273.82944,147.04894 265.79551,144.91602 270.27971,151.123 269.6175,159.2736 272.40721,166.39841 279.83602,172.62288 284.73801,171.29795 291.5177,174.10955 290.78,178.61904 289.24594,182.16549 285.52694,181.38861 283.52139,186.78993 276.27945,181.36513 261.04819,189.00574 261.12854,195.08588 266.73975,195.55079 268.93118,200.08061 264.89413,201.34515 266.19785,208.16248 261.13929,216.79325 266.03083,219.73865 264.90095,225.28764 269.58227,231.89857 264.85252,236.45339 253.06602,231.69388 248.03592,238.69525 237.8135,240.32077 228.23849,235.40548 226.9184,240.55603 222.36412,240.82107 216.19443,248.88915 197.17208,251.59005 196.33563,247.17218 173.48521,252.68575 169.10354,259.00847 162.28411,261.19719 157.047,257.00854 153.65072,248.4615 156.28331,242.44041 144.46822,236.15701 142.27404,239.3123 136.05303,238.6153 121.76395,229.59668 123.20934,220.19701 120.09893,210.82201 111.56973,210.63293 109.50528,201.4088 104.84894,196.16194 111.10929,189.17003 118.45287,189.41716 121.77241,185.40194 131.85573,190.57089 137.71933,187.63795 136.897,183.01847 143.60113,182.26903 145.60503,175.68028 155.9647,172.09914 158.01307,174.8282 166.05333,166.29415 162.18444,154.14107 167.85935,148.16447 170.66188,140.51797 161.47415,135.34013 160.29933,129.732 163.76341,120.83924 166.23802,126.17389 174.52848,128.35783 179.92737,120.36666 192.99219,119.23599 206.42531,106.72895 215.36039,104.99849 229.40612,110.85752 236.25939,110.85455 249.79901,100.92222 z"
         style="fill-opacity:0;stroke-opacity:0"
         id="path68"
         inkscape:connector-curvature="0" />
      <path
         d="M 291.11877,243.73864 296.91136,253.52032 300.19657,247.21703 303.96037,250.62865 309.62862,249.24443 310.33231,255.49396 306.03505,259.8358 302.87933,268.16459 309.85722,277.66525 308.62303,279.16771 311.37741,285.0832 308.11723,287.32729 305.00576,296.46934 308.6079,301.72256 306.70742,306.72321 299.30569,313.90689 295.16253,325.75715 289.83564,326.09521 293.84372,330.71964 291.58248,339.60459 295.9367,347.25747 292.6028,353.36579 285.35675,351.78916 281.54247,355.07771 286.60699,359.84421 270.04882,361.88908 254.6684,356.31757 249.97866,360.05481 252.09619,368.06088 249.25923,370.46701 249.63568,366.78466 242.73589,358.45226 244.6891,351.22161 238.2771,350.99052 236.32601,355.78034 221.43616,358.26987 212.80908,363.63994 204.02847,363.72724 202.41001,358.73619 192.14956,358.89745 182.61551,350.47557 176.66273,350.39001 167.3071,344.99599 159.13448,345.01911 157.69571,337.37431 152.50275,334.59683 144.58443,322.00483 143.55851,313.52808 150.42209,311.55126 140.94305,302.89991 137.88476,295.13746 145.13127,289.2872 151.16069,277.20348 148.2678,272.68507 153.22314,265.7311 163.89797,266.5912 162.28411,261.19719 169.10354,259.00847 173.48521,252.68575 196.33563,247.17218 197.17208,251.59005 216.19443,248.88915 222.36412,240.82107 226.9184,240.55603 228.23849,235.40548 237.8135,240.32077 248.03592,238.69525 253.06602,231.69388 264.85252,236.45339 269.58227,231.89857 282.71732,239.19622 288.936,234.94501 293.20279,237.10877 z"
         style="fill-opacity:0;stroke-opacity:0"
         id="path70"
         inkscape:connector-curvature="0" />
      <path
         d="M 289.24594,182.16549 287.38813,187.55821 293.97841,198.70025 297.60182,195.62622 302.05399,200.81627 303.68436,191.9854 311.61143,191.8722 318.73033,197.2862 318.1736,202.19356 322.77039,207.16469 320.07069,215.26026 324.30178,223.50465 323.01101,228.46315 328.84067,227.46456 328.76624,232.95164 336.24364,234.47869 339.14735,238.14027 336.88642,243.97985 329.90245,247.69965 331.08299,252.08868 326.92775,256.22588 321.09678,255.19186 322.39586,265.87111 318.25912,270.41055 325.12933,275.84725 314.73223,279.78443 312.50222,286.43199 311.37741,285.0832 308.62303,279.16771 309.85722,277.66525 302.87933,268.16459 306.03505,259.8358 310.33231,255.49396 309.62862,249.24443 303.96037,250.62865 300.19657,247.21703 296.91136,253.52032 291.11877,243.73864 293.20279,237.10877 288.936,234.94501 282.71732,239.19622 269.58227,231.89857 264.90095,225.28764 266.03083,219.73865 261.13929,216.79325 266.19785,208.16248 264.89413,201.34515 268.93118,200.08061 266.73975,195.55079 261.12854,195.08588 261.04819,189.00574 276.27945,181.36513 283.52139,186.78993 285.52694,181.38861 z"
         style="fill-opacity:0;stroke-opacity:0"
         id="path72"
         inkscape:connector-curvature="0" />
      <path
         d="M 340.30406,170.87601 348.44177,178.22986 355.57868,196.40627 361.03227,192.37238 369.75748,197.23917 375.69412,189.71314 384.73415,188.65958 385.71141,196.10038 389.09167,200.11991 393.26408,198.80222 394.99385,206.3923 399.75904,213.15229 408.15085,219.03502 406.01276,222.03634 410.15771,228.23097 419.61031,228.34102 422.00237,234.6637 427.53199,237.49948 426.78261,249.13941 427.88738,261.86139 422.49873,268.97358 417.1071,268.15551 415.73141,263.58244 409.25298,262.02871 404.89276,255.03269 393.1114,253.65535 388.00196,260.72951 391.67835,264.5292 393.38067,273.75548 382.15499,274.15452 378.06307,287.45385 368.66799,271.85672 357.62024,272.62671 353.64077,277.16883 351.54362,285.44186 339.15595,286.28572 336.06124,288.72989 330.30708,286.88058 329.3578,292.63397 312.50222,286.43199 314.73223,279.78443 325.12933,275.84725 318.25912,270.41055 322.39586,265.87111 321.09678,255.19186 326.92775,256.22588 331.08299,252.08868 329.90245,247.69965 336.88642,243.97985 339.14735,238.14027 336.24364,234.47869 328.76624,232.95164 328.84067,227.46456 323.01101,228.46315 324.30178,223.50465 320.07069,215.26026 322.77039,207.16469 318.1736,202.19356 318.73033,197.2862 311.61143,191.8722 303.68436,191.9854 302.05399,200.81627 297.60182,195.62622 293.97841,198.70025 287.38813,187.55821 289.24594,182.16549 290.78,178.61904 291.5177,174.10955 294.10524,175.56574 305.40942,171.18116 310.99916,171.42279 313.41606,172.48039 316.90538,167.58403 322.22651,166.01253 333.66786,166.05346 z"
         style="fill-opacity:0;stroke-opacity:0"
         id="path74"
         inkscape:connector-curvature="0" />
      <path
         d="M 273.62522,134.49508 274.66142,127.74214 265.38286,121.83913 255.08036,113.35949 255.74268,102.7858 260.38218,92.980525 255.76458,86.583466 259.24222,79.281965 267.10516,79.399529 269.36589,76.018165 277.04389,75.533106 281.19659,72.231539 288.62148,72.362312 289.31625,76.367204 305.37737,88.281546 305.90763,94.12105 299.23287,96.787108 304.94859,106.13733 296.88544,123.48314 290.44099,127.75041 285.86042,138.38101 z"
         style="fill-opacity:0;stroke-opacity:0"
         id="path76"
         inkscape:connector-curvature="0" />
      <path
         d="M 349.58613,8.1433029 352.104,21.322579 334.36228,43.605575 337.95318,55.709257 326.60415,55.472548 321.09414,49.164163 315.81157,57.009801 311.66781,55.869211 311.99562,65.160994 309.08977,67.378894 305.10281,68.654956 306.40807,55.408434 301.99955,48.006962 291.18814,42.439221 288.56397,37.752442 275.15297,43.468825 266.31496,43.622136 260.5231,48.43589 249.84474,44.644105 249.46993,36.169842 252.97515,31.908322 261.32061,30.986005 267.62103,22.90413 266.98672,12.831195 275.66032,10.461443 281.04742,4.2519177 282.07253,-2.2848902 278.12878,-9.7147666 271.28658,-15.140861 277.70865,-23.029489 286.11815,-24.582286 291.57158,-33.830288 297.55677,-37.052463 294.461,-42.507155 302.03752,-49.877391 311.59313,-53.344285 315.10539,-50.347842 316.29222,-30.621303 312.37724,-24.495353 318.02137,-13.552754 325.83262,-11.251701 336.74936,4.5853648 z"
         style="fill-opacity:0;stroke-opacity:0"
         id="path78"
         inkscape:connector-curvature="0" />
    </g>
    <g
       transform="translate(400,400)"
       style="font-size:10px;font-weight:bold;text-transform:capitalize;text-anchor:end;fill:#535353;font-family:Lato"
       id="g80">
      <text
         style="font-size:15px;font-weight:bold"
         id="text82">Cuneo</text>
      <text
         dy="18"
         id="text84">Tassi di incidenza HIV (anno 2011)</text>
      <text
         id="text86"
         y="32.574154"
         style="font-size:10px">Tassi di incidenza AIDS (anni 2007-2011)</text>
      <circle
         r="6"
         cx="12"
         cy="15"
         style="fill:#86a2ba"
         id="circle88"
         d="M 18,15 C 18,18.313708 15.313708,21 12,21 8.6862915,21 6,18.313708 6,15 6,11.686292 8.6862915,9 12,9 15.313708,9 18,11.686292 18,15 z"
         sodipodi:cx="12"
         sodipodi:cy="15"
         sodipodi:rx="6"
         sodipodi:ry="6" />
      <circle
         r="6"
         cx="12"
         cy="29"
         style="fill:#535353;display:inline"
         id="circle90"
         d="M 18,29 C 18,32.313708 15.313708,35 12,35 8.6862915,35 6,32.313708 6,29 6,25.686292 8.6862915,23 12,23 15.313708,23 18,25.686292 18,29 z"
         sodipodi:cx="12"
         sodipodi:cy="29"
         sodipodi:rx="6"
         sodipodi:ry="6" />
      <text
         dy="18"
         dx="24"
         style="text-anchor:start"
         id="text92">3.4</text>
      <text
         dy="33"
         dx="24"
         style="text-anchor:start"
         id="text94">0.5</text>
    </g>
  </g>
  <path
     inkscape:connector-curvature="0"
     style="fill:#535353;fill-opacity:1;fill-rule:evenodd;stroke:none;display:inline"
     id="rect1430"
     d="M 354.87568,451.7759 354.87568,464.13813 355.60297,464.13813 355.60297,463.41081 356.33028,463.41081 356.33028,462.68416 355.60297,462.68416 355.60297,453.22986 356.33028,453.22986 356.33028,452.50319 355.60297,452.50319 355.60297,451.7759 354.87568,451.7759 z M 356.33028,453.22986 356.33028,453.95716 357.05694,453.95716 357.05694,453.22986 356.33028,453.22986 z M 357.05694,453.95716 357.05694,454.68447 357.78425,454.68447 357.78425,453.95716 357.05694,453.95716 z M 357.78425,454.68447 357.78425,455.41177 358.51155,455.41177 358.51155,454.68447 357.78425,454.68447 z M 358.51155,455.41177 358.51155,456.13907 359.23885,456.13907 359.23885,455.41177 358.51155,455.41177 z M 359.23885,456.13907 359.23885,456.86639 359.96617,456.86639 359.96617,456.13907 359.23885,456.13907 z M 359.96617,456.86639 359.96617,457.59368 360.69346,457.59368 360.69346,456.86639 359.96617,456.86639 z M 360.69346,457.59368 360.69346,458.32033 361.42078,458.32033 361.42078,457.59368 360.69346,457.59368 z M 361.42078,458.32033 361.42078,459.04765 362.14743,459.04765 362.14743,458.32033 361.42078,458.32033 z M 362.14743,459.04765 362.14743,459.77495 359.96617,459.77495 359.96617,460.50226 359.96617,461.95686 360.69346,461.95686 360.69346,460.50226 363.60204,460.50226 363.60204,459.77495 362.87471,459.77495 362.87471,459.04765 362.14743,459.04765 z M 360.69346,461.95686 360.69346,463.41081 361.42078,463.41081 361.42078,461.95686 360.69346,461.95686 z M 361.42078,463.41081 361.42078,464.86543 362.14743,464.86543 362.14743,463.41081 361.42078,463.41081 z M 362.14743,464.86543 362.14743,466.32004 362.87471,466.32004 362.87471,464.86543 362.14743,464.86543 z M 362.14743,466.32004 360.69346,466.32004 360.69346,467.04733 362.14743,467.04733 362.14743,466.32004 z M 360.69346,466.32004 360.69346,464.86543 359.96617,464.86543 359.96617,466.32004 360.69346,466.32004 z M 359.96617,464.86543 359.96617,463.41081 359.23885,463.41081 359.23885,464.86543 359.96617,464.86543 z M 359.23885,463.41081 359.23885,461.95686 358.51155,461.95686 358.51155,463.41081 359.23885,463.41081 z M 358.51155,461.95686 358.51155,460.50226 357.78425,460.50226 357.78425,461.22955 357.05694,461.22955 357.05694,461.95686 357.78425,461.95686 358.51155,461.95686 z M 357.05694,461.95686 356.33028,461.95686 356.33028,462.68416 357.05694,462.68416 357.05694,461.95686 z" />
  <path
     inkscape:connector-curvature="0"
     style="fill:#ffffff;fill-opacity:1;stroke:none;display:inline"
     id="rect3779"
     d="M 355.60297,453.22986 355.60297,462.68416 356.33028,462.68416 356.33028,461.95686 357.05694,461.95686 357.05694,461.22955 357.78425,461.22955 357.78425,460.50226 358.51155,460.50226 358.51155,461.95686 359.23885,461.95686 359.23885,463.41081 359.96617,463.41081 359.96617,464.86543 360.69346,464.86543 360.69346,466.32004 361.42078,466.32004 362.14743,466.32004 362.14743,464.86543 361.42078,464.86543 361.42078,463.41081 360.69346,463.41081 360.69346,461.95686 359.96617,461.95686 359.96617,459.77495 360.69346,459.77495 361.42078,459.77495 362.14743,459.77495 362.14743,459.04765 361.42078,459.04765 361.42078,458.32033 360.69346,458.32033 360.69346,457.59368 359.96617,457.59368 359.96617,456.86639 359.23885,456.86639 359.23885,456.13907 358.51155,456.13907 358.51155,455.41177 357.78425,455.41177 357.78425,454.68447 357.05694,454.68447 357.05694,453.95716 356.33028,453.95716 356.33028,453.22986 355.60297,453.22986 z" />
</svg>
