<?xml version="1.0" standalone="no"?><!DOCTYPE svg PUBLIC "-//W3C//DTD SVG 1.1//EN" "http://www.w3.org/Graphics/SVG/1.1/DTD/svg11.dtd"><svg class="gauge" width="200" height="200" version="1.1" xmlns="http://www.w3.org/2000/svg" xmlns:xlink="http://www.w3.org/1999/xlink"><defs xmlns="http://www.w3.org/1999/xhtml"><style type="text/css"><![CDATA[
.text { font-family: Lato, sans-serif; }]]></style></defs><circle cx="100" cy="100" r="97" style="fill: rgb(232, 228, 225); stroke: rgb(217, 211, 206); stroke-width: 6.5px;"/><circle cx="100" cy="100" r="6.790000000000001" style="fill: rgb(98, 98, 98); stroke: rgb(224, 224, 224); stroke-width: 0px;"/><path d="M64.82072463470375,33.027808856052026A72.75,72.75 0 0,1 -51.44201833132132,51.442018331321336L-48.01255044256656,48.01255044256657A67.89999999999999,67.89999999999999 0 0,0 60.49934299239017,30.82595493231522Z" transform="translate(100, 100) rotate(270)" style="fill: rgb(119, 221, 119); opacity: 0.9;"/><path d="M64.82072463470375,-33.027808856052026A72.75,72.75 0 0,1 64.82072463470375,33.027808856052026L60.49934299239017,30.82595493231522A67.89999999999999,67.89999999999999 0 0,0 60.49934299239017,-30.82595493231522Z" transform="translate(100, 100) rotate(270)" style="fill: rgb(253, 253, 150); opacity: 0.9;"/><path d="M-51.44201833132132,-51.442018331321336A72.75,72.75 0 0,1 64.82072463470375,-33.027808856052026L60.49934299239017,-30.82595493231522A67.89999999999999,67.89999999999999 0 0,0 -48.01255044256656,-48.01255044256657Z" transform="translate(100, 100) rotate(270)" style="fill: rgb(255, 105, 97); opacity: 0.9;"/><text x="100" y="59" dy="9" text-anchor="middle" class="text" style="font-size: 18px; fill: rgb(98, 98, 98); stroke-width: 0px;"/><line x1="37.97042804323979" y1="138.01177058308528" x2="33.835123246122436" y2="140.54588862195763" style="stroke: rgb(98, 98, 98); stroke-width: 1px;"/><line x1="30.81063843952758" y1="122.48098634077742" x2="26.198014335496083" y2="123.97971876349592" style="stroke: rgb(98, 98, 98); stroke-width: 1px;"/><line x1="27.474263970914947" y1="105.70789921420072" x2="22.639214902309263" y2="106.08842582848077" style="stroke: rgb(98, 98, 98); stroke-width: 1px;"/><line x1="28.14567322170373" y1="88.6193926683232" x2="23.355384769817306" y2="87.86068551287808" style="stroke: rgb(98, 98, 98); stroke-width: 1px;"/><line x1="51.987449557433436" y1="148.01255044256655" x2="45.128513779923914" y2="154.87148622007606" style="stroke: rgb(98, 98, 98); stroke-width: 2px;"/><text x="56.788704601690085" y="143.21129539830991" dy="6.5" text-anchor="start" class="text" style="font-size: 13px; fill: rgb(98, 98, 98); stroke-width: 0px;">-10</text><line x1="41.14401365922257" y1="57.23862289572258" x2="37.22028123650407" y2="54.38786442210408" style="stroke: rgb(98, 98, 98); stroke-width: 1px;"/><line x1="52.75265448397915" y1="44.68046600259775" x2="49.60283144957775" y2="40.99249706943759" style="stroke: rgb(98, 98, 98); stroke-width: 1px;"/><line x1="66.97219114394798" y1="35.17927536529625" x2="64.77033722021116" y2="30.857893722982652" style="stroke: rgb(98, 98, 98); stroke-width: 1px;"/><line x1="83.01684977948288" y1="29.260088291069025" x2="81.88463976478174" y2="24.544094177140295" style="stroke: rgb(98, 98, 98); stroke-width: 1px;"/><line x1="37.26857974248364" y1="74.01579494241041" x2="28.306948277124135" y2="70.30376564846902" style="stroke: rgb(98, 98, 98); stroke-width: 2px;"/><text x="43.54172176823527" y="76.61421544816936" dy="6.5" text-anchor="start" class="text" style="font-size: 13px; fill: rgb(98, 98, 98); stroke-width: 0px;">-5</text><line x1="116.9831502205171" y1="29.260088291069025" x2="118.11536023521823" y2="24.54409417714028" style="stroke: rgb(98, 98, 98); stroke-width: 1px;"/><line x1="133.02780885605202" y1="35.17927536529625" x2="135.22966277978884" y2="30.857893722982652" style="stroke: rgb(98, 98, 98); stroke-width: 1px;"/><line x1="147.24734551602086" y1="44.68046600259775" x2="150.39716855042224" y2="40.99249706943759" style="stroke: rgb(98, 98, 98); stroke-width: 1px;"/><line x1="158.8559863407774" y1="57.23862289572257" x2="162.7797187634959" y2="54.38786442210407" style="stroke: rgb(98, 98, 98); stroke-width: 1px;"/><line x1="100" y1="32.10000000000001" x2="100" y2="22.39999999999999" style="stroke: rgb(98, 98, 98); stroke-width: 2px;"/><text x="100" y="38.89" dy="6.5" text-anchor="middle" class="text" style="font-size: 13px; fill: rgb(98, 98, 98); stroke-width: 0px;">0</text><line x1="171.85432677829627" y1="88.6193926683232" x2="176.6446152301827" y2="87.86068551287808" style="stroke: rgb(98, 98, 98); stroke-width: 1px;"/><line x1="172.52573602908507" y1="105.70789921420071" x2="177.36078509769072" y2="106.08842582848077" style="stroke: rgb(98, 98, 98); stroke-width: 1px;"/><line x1="169.1893615604724" y1="122.48098634077745" x2="173.8019856645039" y2="123.97971876349595" style="stroke: rgb(98, 98, 98); stroke-width: 1px;"/><line x1="162.0295719567602" y1="138.01177058308525" x2="166.16487675387756" y2="140.54588862195763" style="stroke: rgb(98, 98, 98); stroke-width: 1px;"/><line x1="162.73142025751636" y1="74.01579494241041" x2="171.69305172287585" y2="70.30376564846902" style="stroke: rgb(98, 98, 98); stroke-width: 2px;"/><text x="156.45827823176472" y="76.61421544816936" dy="6.5" text-anchor="end" class="text" style="font-size: 13px; fill: rgb(98, 98, 98); stroke-width: 0px;">5</text><line x1="148.01255044256658" y1="148.01255044256655" x2="154.8714862200761" y2="154.87148622007606" style="stroke: rgb(98, 98, 98); stroke-width: 2px;"/><text x="143.21129539830991" y="143.21129539830991" dy="6.5" text-anchor="end" class="text" style="font-size: 13px; fill: rgb(98, 98, 98); stroke-width: 0px;">10</text><g class="pointerContainer"><path d="M0,-63.050000000000004L-0.39470466532210935,-54.44108979677037C-0.7894093306442187,-45.83217959354074,-1.5788186612884374,-28.61435918708148,-1.973523326610549,-16.206602723644444C-2.3682279919326605,-3.7988462602074073,-2.3682279919326654,3.7988462602074073,-1.973523326610556,5.698269390311111C-1.5788186612884467,7.597692520414815,-0.7894093306442234,3.7988462602074073,-2.3314683517128287e-15,3.7988462602074096C0.7894093306442187,3.7988462602074122,1.5788186612884374,7.5976925204148245,1.9735233266105467,5.698269390311121C2.368227991932656,3.798846260207417,2.368227991932656,-3.7988462602074025,1.9735233266105467,-16.20660272364444C1.5788186612884374,-28.61435918708148,0.7894093306442187,-45.83217959354074,0.39470466532210935,-54.44108979677037L0,-63.050000000000004" transform="translate(100, 100) rotate(40.868181818181824)" style="fill: rgb(98, 98, 98); stroke: rgb(98, 98, 98); fill-opacity: 1;"/><text x="100" y="155" dy="20" text-anchor="middle" class="text" style="font-size: 18px; font-weight: bold; fill: rgb(98, 98, 98); stroke-width: 0px;">3.03</text></g></svg>