<?xml version="1.0" encoding="UTF-8" standalone="no"?>
<!-- Generator: Adobe Illustrator 16.0.4, SVG Export Plug-In . SVG Version: 6.00 Build 0)  -->

<svg
   xmlns:dc="http://purl.org/dc/elements/1.1/"
   xmlns:cc="http://creativecommons.org/ns#"
   xmlns:rdf="http://www.w3.org/1999/02/22-rdf-syntax-ns#"
   xmlns:svg="http://www.w3.org/2000/svg"
   xmlns="http://www.w3.org/2000/svg"
   xmlns:sodipodi="http://sodipodi.sourceforge.net/DTD/sodipodi-0.dtd"
   xmlns:inkscape="http://www.inkscape.org/namespaces/inkscape"
   version="1.1"
   id="Capa_1"
   x="0px"
   y="0px"
   width="148.282"
   height="131.28999"
   viewBox="0 0 148.282 131.28999"
   enable-background="new 0 0 216 146"
   xml:space="preserve"
   inkscape:version="0.48.4 r9939"
   sodipodi:docname="choice2.svg"><metadata
     id="metadata9"><rdf:RDF><cc:Work
         rdf:about=""><dc:format>image/svg+xml</dc:format><dc:type
           rdf:resource="http://purl.org/dc/dcmitype/StillImage" /></cc:Work></rdf:RDF></metadata><defs
     id="defs7" /><sodipodi:namedview
     pagecolor="#ffffff"
     bordercolor="#666666"
     borderopacity="1"
     objecttolerance="10"
     gridtolerance="10"
     guidetolerance="10"
     inkscape:pageopacity="0"
     inkscape:pageshadow="2"
     inkscape:window-width="1103"
     inkscape:window-height="750"
     id="namedview5"
     showgrid="false"
     fit-margin-top="0"
     fit-margin-left="0"
     fit-margin-right="0"
     fit-margin-bottom="0"
     inkscape:zoom="1.6164384"
     inkscape:cx="74.141"
     inkscape:cy="52.142"
     inkscape:window-x="0"
     inkscape:window-y="0"
     inkscape:window-maximized="0"
     inkscape:current-layer="Capa_1" /><path
     d="M 146.162,115.89201 112.187,30.833993 C 111.753,29.801993 111.047,28.905993 110.07,28.145993 109.091,27.384993 108.059,27.004993 106.973,27.004993 H 79.353 C 80.059,27.004993 80.684,27.261993 81.227,27.777993 81.769,28.294993 82.068,28.904993 82.123,29.610993 L 83.346,45.254992 C 83.401,46.014992 83.183,46.639992 82.696,47.127992 82.206,47.616992 81.609,47.860992 80.902,47.860992 H 67.378 C 66.672,47.860992 66.075,47.616992 65.586,47.127992 65.097,46.639992 64.88,46.014992 64.935,45.254992 L 66.157,29.610993 C 66.211,28.904993 66.509,28.294993 67.053,27.777993 67.596,27.262993 68.22,27.004993 68.927,27.004993 H 41.307 C 40.221,27.004993 39.189,27.384993 38.211,28.145993 37.234,28.904993 36.528,29.801993 36.093,30.833993 L 2.118,115.89201 C 0.706,119.25902 0,122.40902 0,125.34302 0,129.30803 1.249,131.29003 3.748,131.29003 H 61.105 C 60.399,131.29003 59.802,131.03203 59.313,130.51703 58.824,129.99903 58.607,129.39003 58.662,128.68303 L 60.291,107.82801 C 60.345,107.12101 60.644,106.51101 61.187,105.994 61.73,105.478 62.355,105.221 63.061,105.221 H 85.221 C 85.927,105.221 86.551,105.478 87.095,105.994 87.638,106.51101 87.937,107.12101 87.991,107.82801 L 89.622,128.68303 C 89.677,129.39003 89.458,129.99903 88.971,130.51703 88.482,131.03203 87.885,131.29003 87.178,131.29003 H 144.534 C 147.032,131.29003 148.282,129.30803 148.282,125.34302 148.282,122.41002 147.575,119.26002 146.162,115.89201 z M 86.444,87.293992 C 86.497,87.945992 86.28,88.488992 85.792,88.922992 85.304,89.357992 84.732,89.574992 84.081,89.574992 H 64.201 C 63.549,89.574992 62.978,89.357992 62.49,88.922992 62.001,88.487992 61.784,87.944992 61.838,87.293992 V 86.967992 L 63.794,60.897992 C 63.848,60.191992 64.147,59.580992 64.69,59.064992 65.233,58.548992 65.858,58.290992 66.564,58.290992 H 81.717 C 82.424,58.290992 83.048,58.547992 83.592,59.064992 84.135,59.580992 84.434,60.191992 84.488,60.897992 L 86.443,86.967992 V 87.293992 z"
     id="path3"
     style="fill:#f5f5f5;fill-opacity:1"
     inkscape:connector-curvature="0" /></svg>