<?xml version="1.0" encoding="UTF-8" standalone="no"?>
<svg
   xmlns:dc="http://purl.org/dc/elements/1.1/"
   xmlns:cc="http://creativecommons.org/ns#"
   xmlns:rdf="http://www.w3.org/1999/02/22-rdf-syntax-ns#"
   xmlns:svg="http://www.w3.org/2000/svg"
   xmlns="http://www.w3.org/2000/svg"
   xmlns:sodipodi="http://sodipodi.sourceforge.net/DTD/sodipodi-0.dtd"
   xmlns:inkscape="http://www.inkscape.org/namespaces/inkscape"
   version="1.1"
   width="46.708302"
   height="60.0536"
   viewBox="0 0 46.708302 60.0536"
   enable-background="new 0 0 76.00 76.00"
   xml:space="preserve"
   id="svg2"
   inkscape:version="0.48.4 r9939"
   sodipodi:docname="choice3.svg"><metadata
     id="metadata10"><rdf:RDF><cc:Work
         rdf:about=""><dc:format>image/svg+xml</dc:format><dc:type
           rdf:resource="http://purl.org/dc/dcmitype/StillImage" /></cc:Work></rdf:RDF></metadata><defs
     id="defs8" /><sodipodi:namedview
     pagecolor="#ffffff"
     bordercolor="#666666"
     borderopacity="1"
     objecttolerance="10"
     gridtolerance="10"
     guidetolerance="10"
     inkscape:pageopacity="0"
     inkscape:pageshadow="2"
     inkscape:window-width="1920"
     inkscape:window-height="1058"
     id="namedview6"
     showgrid="false"
     fit-margin-top="0"
     fit-margin-left="0"
     fit-margin-right="0"
     fit-margin-bottom="0"
     inkscape:zoom="3.1052632"
     inkscape:cx="-39.120377"
     inkscape:cy="29.930047"
     inkscape:window-x="0"
     inkscape:window-y="0"
     inkscape:window-maximized="1"
     inkscape:current-layer="svg2" /><path
     d="M 6.7540867,7.9147062 40.92045,7.9147062 C 42.099726,7.9147062 42.521859,12.719339 42.521859,12.719339 L 5.1525424,12.719339 C 5.1525424,12.719339 5.5748102,7.9147062 6.7540867,7.9147062 z M 20.63418,2.5762711 27.040356,2.5762711 C 27.629994,2.5762711 29.175704,4.1219802 29.175704,4.7116192 29.175704,5.3012572 27.629994,6.8471002 27.040356,6.8471002 L 20.63418,6.8471002 C 20.044542,6.8471002 18.498698,5.3012572 18.498698,4.7116192 18.498698,4.1219802 20.044542,2.5762711 20.63418,2.5762711 z M 9.9571746,14.320883 37.717227,14.320883 C 38.896638,14.320883 39.852709,15.276955 39.852709,16.456366 L 37.717227,48.487247 C 37.717227,49.666524 36.76129,50.622595 35.581879,50.622595 L 12.092656,50.622595 C 10.913245,50.622595 9.9571746,49.666524 9.9571746,48.487247 L 7.821828,16.456366 C 7.821828,15.276955 8.7778989,14.320883 9.9571746,14.320883 z M 13.160263,18.591713 13.694201,46.351765 17.431091,46.351765 16.897289,18.591713 13.160263,18.591713 z M 21.70192,18.591713 21.70192,46.351765 25.972615,46.351765 25.972615,18.591713 21.70192,18.591713 z M 30.777247,18.591713 30.243444,46.351765 33.980335,46.351765 34.514273,18.591713 30.777247,18.591713 z"
     id="path4"
     style="fill:#f5f5f5;fill-opacity:1;stroke-width:0.2;stroke-linejoin:round"
     inkscape:connector-curvature="0" /></svg>