<?xml version="1.0" encoding="UTF-8" standalone="no"?>
<!-- Generator: Adobe Illustrator 16.0.4, SVG Export Plug-In . SVG Version: 6.00 Build 0)  -->

<svg
   xmlns:dc="http://purl.org/dc/elements/1.1/"
   xmlns:cc="http://creativecommons.org/ns#"
   xmlns:rdf="http://www.w3.org/1999/02/22-rdf-syntax-ns#"
   xmlns:svg="http://www.w3.org/2000/svg"
   xmlns="http://www.w3.org/2000/svg"
   xmlns:sodipodi="http://sodipodi.sourceforge.net/DTD/sodipodi-0.dtd"
   xmlns:inkscape="http://www.inkscape.org/namespaces/inkscape"
   version="1.1"
   id="Capa_1"
   x="0px"
   y="0px"
   width="13.7"
   height="18"
   viewBox="0 0 13.7 18"
   xml:space="preserve"
   inkscape:version="0.48.4 r9939"
   sodipodi:docname="choice1.svg"><metadata
     id="metadata39"><rdf:RDF><cc:Work
         rdf:about=""><dc:format>image/svg+xml</dc:format><dc:type
           rdf:resource="http://purl.org/dc/dcmitype/StillImage" /></cc:Work></rdf:RDF></metadata><defs
     id="defs37" /><sodipodi:namedview
     pagecolor="#ffffff"
     bordercolor="#666666"
     borderopacity="1"
     objecttolerance="10"
     gridtolerance="10"
     guidetolerance="10"
     inkscape:pageopacity="0"
     inkscape:pageshadow="2"
     inkscape:window-width="1044"
     inkscape:window-height="748"
     id="namedview35"
     showgrid="false"
     inkscape:zoom="15.733333"
     inkscape:cx="6.8499997"
     inkscape:cy="7.4999996"
     inkscape:window-x="0"
     inkscape:window-y="-18"
     inkscape:window-maximized="0"
     inkscape:current-layer="Capa_1" /><path
     style="fill:#f5f5f5;fill-opacity:1"
     d="M 12.226,9.6974234 C 10.059,12.299423 7.809,10.821423 7.076,10.216423 7.642,9.5984237 7.901,9.2624237 8.884,8.4524237 9.9,8.8674237 11.717,8.0794237 11.717,8.0794237 10.494,8.3994237 9.56,8.2184237 9.228,8.1304237 9.299,8.0744237 10.505,7.2014237 10.87,6.6964237 11.88,6.7274237 12.714,5.8604237 12.714,5.8604237 12.686,5.8374237 12.176,6.2284237 11.21,6.2754237 12.21,4.8064237 12.164,3.4554237 12.164,3.4554237 12.164,3.4554237 11.795,4.6884237 10.856,6.0414237 10.663,5.0814237 10.908,4.4284237 10.88,4.4064237 10.88,4.4064237 10.226,5.4844237 10.528,6.4754237 10.014,7.0624237 9.204,7.5694237 8.906,7.7964237 8.884,7.7354237 8.572,6.7114237 8.875,5.1984237 8.875,5.1984237 8.052,7.1004237 8.567,8.0874237 7.936,8.5724237 7.768,8.6914237 6.714,9.8694234 4.328,8.0834237 6.377,4.8894237 8.164,4.1444237 10.001,3.3784237 10.767,3.5324237 12.451,0.77542369 14.295,3.5074237 13.993,7.5764237 12.226,9.6974234 z M 2.043,9.4204237 C 3.128,9.9164234 3.881,10.590423 4.398,11.234423 4.404,11.215423 4.412,11.200423 4.418,11.178423 5.401,7.6424237 0,8.1344237 0,8.1344237 0,8.1344237 0.746,9.2824237 1.162,10.534423 1.643,11.985423 3.609,13.191423 4.315,11.468423 3.805,10.782423 3.076,10.031423 2.043,9.4204237 z M 7.076,10.215423 C 7.069,10.208423 6.703,9.8794234 6.708,9.8724234 5.782,10.892423 5.421,11.763423 5.333,12.873423 5.193,12.491423 4.913,11.880423 4.397,11.234423 4.373,11.319423 4.344,11.395423 4.314,11.468423 4.863,12.207423 5.075,13.214423 5.2,13.544423 5.2,14.466423 5.301,14.927423 5.382,15.696423 5.382,15.696423 5.878,15.989423 6.016,15.442423 5.738,14.980423 5.463,11.794423 7.076,10.215423 z"
     id="path3"
     inkscape:connector-curvature="0" /><g
     id="g5"
     transform="translate(0,3)" /><g
     id="g7"
     transform="translate(0,3)" /><g
     id="g9"
     transform="translate(0,3)" /><g
     id="g11"
     transform="translate(0,3)" /><g
     id="g13"
     transform="translate(0,3)" /><g
     id="g15"
     transform="translate(0,3)" /><g
     id="g17"
     transform="translate(0,3)" /><g
     id="g19"
     transform="translate(0,3)" /><g
     id="g21"
     transform="translate(0,3)" /><g
     id="g23"
     transform="translate(0,3)" /><g
     id="g25"
     transform="translate(0,3)" /><g
     id="g27"
     transform="translate(0,3)" /><g
     id="g29"
     transform="translate(0,3)" /><g
     id="g31"
     transform="translate(0,3)" /><g
     id="g33"
     transform="translate(0,3)" /></svg>