<?xml version="1.0" encoding="UTF-8" standalone="no"?>
<!-- Generator: Adobe Illustrator 17.1.0, SVG Export Plug-In . SVG Version: 6.00 Build 0)  -->

<svg
   xmlns:dc="http://purl.org/dc/elements/1.1/"
   xmlns:cc="http://creativecommons.org/ns#"
   xmlns:rdf="http://www.w3.org/1999/02/22-rdf-syntax-ns#"
   xmlns:svg="http://www.w3.org/2000/svg"
   xmlns="http://www.w3.org/2000/svg"
   xmlns:sodipodi="http://sodipodi.sourceforge.net/DTD/sodipodi-0.dtd"
   xmlns:inkscape="http://www.inkscape.org/namespaces/inkscape"
   version="1.1"
   id="svg3051"
   inkscape:version="0.48.4 r9939"
   sodipodi:docname="stradale.svg"
   x="0px"
   y="0px"
   viewBox="176.8 326.3 100 100"
   enable-background="new 176.8 326.3 100 100"
   xml:space="preserve"
   width="100%"
   height="100%"><metadata
     id="metadata37"><rdf:RDF><cc:Work
         rdf:about=""><dc:format>image/svg+xml</dc:format><dc:type
           rdf:resource="http://purl.org/dc/dcmitype/StillImage" /></cc:Work></rdf:RDF></metadata><defs
     id="defs35" /><sodipodi:namedview
     pagecolor="#ffffff"
     bordercolor="#666666"
     borderopacity="1"
     objecttolerance="10"
     gridtolerance="10"
     guidetolerance="10"
     inkscape:pageopacity="0"
     inkscape:pageshadow="2"
     inkscape:window-width="1920"
     inkscape:window-height="1058"
     id="namedview33"
     showgrid="false"
     inkscape:zoom="3.337544"
     inkscape:cx="48.883841"
     inkscape:cy="35.576947"
     inkscape:window-x="0"
     inkscape:window-y="0"
     inkscape:window-maximized="1"
     inkscape:current-layer="svg3051" /><g
     style="opacity:0.3"
     id="g5"><path
       inkscape:connector-curvature="0"
       id="path7"
       d="M 268.9,371.4 C 268.9,348.3 249.4,329.8 225.9,331.4 205.9,332.8 189.8,349.2 188.8,369.3 187.8,389.5 201.6,406.6 220.4,410.6 L 228.9,425.2 237.4,410.6 C 255.4,406.7 268.9,390.7 268.9,371.4 z" /></g><g
     id="g9"
     style="fill:#63df9b;fill-opacity:1"><path
       style="fill:#63df9b;fill-opacity:1"
       inkscape:connector-curvature="0"
       id="path11"
       d="M 266.9,369.4 C 266.9,346.3 247.4,327.8 223.9,329.4 203.9,330.8 187.8,347.2 186.8,367.3 185.8,387.5 199.6,404.6 218.4,408.6 L 226.9,423.2 235.4,408.6 C 253.4,404.7 266.9,388.7 266.9,369.4 z" /></g><g
     id="g13"><circle
       fill="#FFFFFF"
       cx="226.8"
       cy="369.4"
       r="30.8"
       id="circle15" /></g><path
     style="fill:none;stroke:#63df9b;stroke-width:2.7889297;stroke-linecap:round;stroke-linejoin:round;stroke-miterlimit:4;stroke-opacity:1;stroke-dasharray:none"
     d="M 201.30909,369.41549 209.78979,369.41549 210.24806,374.45661 212.08119,365.29096 214.83088,378.58114 216.66401,368.49893 218.95543,376.74802 221.70513,358.87502 223.53825,387.28852 226.74622,349.70937 229.49591,372.62348 231.32904,362.08298 234.53702,384.08053 236.82842,366.20753 239.57812,372.62348 240.95298,368.04067 244.33337,369.06136 250.40029,369.06136 253.00892,369.06136"
     id="path3018"
     inkscape:connector-curvature="0"
     sodipodi:nodetypes="ccccccccccccccccccc" /></svg>