<?xml version="1.0" encoding="UTF-8" standalone="no"?>
<!-- Generator: Adobe Illustrator 15.1.0, SVG Export Plug-In . SVG Version: 6.00 Build 0)  -->

<svg
   xmlns:dc="http://purl.org/dc/elements/1.1/"
   xmlns:cc="http://creativecommons.org/ns#"
   xmlns:rdf="http://www.w3.org/1999/02/22-rdf-syntax-ns#"
   xmlns:svg="http://www.w3.org/2000/svg"
   xmlns="http://www.w3.org/2000/svg"
   xmlns:xlink="http://www.w3.org/1999/xlink"
   xmlns:sodipodi="http://sodipodi.sourceforge.net/DTD/sodipodi-0.dtd"
   xmlns:inkscape="http://www.inkscape.org/namespaces/inkscape"
   version="1.1"
   id="Layer_1"
   x="0px"
   y="0px"
   width="900px"
   height="741px"
   viewBox="0 0 900 741"
   enable-background="new 0 0 900 741"
   xml:space="preserve"
   inkscape:version="0.48.5 r10040"
   sodipodi:docname="imac.svg"><metadata
     id="metadata45"><rdf:RDF><cc:Work
         rdf:about=""><dc:format>image/svg+xml</dc:format><dc:type
           rdf:resource="http://purl.org/dc/dcmitype/StillImage" /></cc:Work></rdf:RDF></metadata><defs
     id="defs43"><pattern
       inkscape:collect="always"
       xlink:href="#diagonalHatchBL80995"
       id="pattern3648"
       patternTransform="matrix(0.98164471,0,0,0.98164471,90.561479,112.53339)" /><pattern
       height="4"
       width="4"
       patternUnits="userSpaceOnUse"
       id="diagonalHatchBL80995"><path
         id="path3028"
         stroke-width="1"
         stroke="rgb(166, 192, 214)"
         d="M-1,1 l2,-2 M0,4 l4,-4 M3,5 l2,-2" /></pattern><pattern
       inkscape:collect="always"
       xlink:href="#diagonalHatchBL80995"
       id="pattern3653"
       patternTransform="matrix(0.98164471,0,0,0.98164471,90.561479,92.900491)" /><pattern
       height="4"
       width="4"
       patternUnits="userSpaceOnUse"
       id="pattern3846"><path
         id="path3848"
         stroke-width="1"
         stroke="rgb(166, 192, 214)"
         d="M-1,1 l2,-2 M0,4 l4,-4 M3,5 l2,-2" /></pattern><pattern
       inkscape:collect="always"
       xlink:href="#diagonalHatchBL80995"
       id="pattern3702"
       patternTransform="matrix(0.98164471,0,0,0.98164471,99.325346,334.91675)" /><pattern
       height="4"
       width="4"
       patternUnits="userSpaceOnUse"
       id="pattern3851"><path
         id="path3853"
         stroke-width="1"
         stroke="rgb(166, 192, 214)"
         d="M-1,1 l2,-2 M0,4 l4,-4 M3,5 l2,-2" /></pattern><pattern
       inkscape:collect="always"
       xlink:href="#diagonalHatchBL80995"
       id="pattern3705"
       patternTransform="matrix(0.98164471,0,0,0.98164471,99.325346,334.91675)" /><pattern
       height="4"
       width="4"
       patternUnits="userSpaceOnUse"
       id="pattern3856"><path
         id="path3858"
         stroke-width="1"
         stroke="rgb(166, 192, 214)"
         d="M-1,1 l2,-2 M0,4 l4,-4 M3,5 l2,-2" /></pattern><pattern
       inkscape:collect="always"
       xlink:href="#diagonalHatchBL80995"
       id="pattern3708"
       patternTransform="matrix(0.98164471,0,0,0.98164471,99.325346,334.91675)" /><pattern
       height="4"
       width="4"
       patternUnits="userSpaceOnUse"
       id="pattern3861"><path
         id="path3863"
         stroke-width="1"
         stroke="rgb(166, 192, 214)"
         d="M-1,1 l2,-2 M0,4 l4,-4 M3,5 l2,-2" /></pattern><pattern
       inkscape:collect="always"
       xlink:href="#diagonalHatchBL80995"
       id="pattern3711"
       patternTransform="matrix(0.98164471,0,0,0.98164471,99.325346,334.91675)" /><pattern
       height="4"
       width="4"
       patternUnits="userSpaceOnUse"
       id="pattern3866"><path
         id="path3868"
         stroke-width="1"
         stroke="rgb(166, 192, 214)"
         d="M-1,1 l2,-2 M0,4 l4,-4 M3,5 l2,-2" /></pattern><pattern
       inkscape:collect="always"
       xlink:href="#diagonalHatchBL80995"
       id="pattern3714"
       patternTransform="matrix(0.98164471,0,0,0.98164471,99.325346,334.91675)" /><pattern
       height="4"
       width="4"
       patternUnits="userSpaceOnUse"
       id="pattern3871"><path
         id="path3873"
         stroke-width="1"
         stroke="rgb(166, 192, 214)"
         d="M-1,1 l2,-2 M0,4 l4,-4 M3,5 l2,-2" /></pattern><pattern
       inkscape:collect="always"
       xlink:href="#diagonalHatchBL80995"
       id="pattern3717"
       patternTransform="matrix(0.98164471,0,0,0.98164471,99.325346,334.91675)" /><pattern
       height="4"
       width="4"
       patternUnits="userSpaceOnUse"
       id="pattern3876"><path
         id="path3878"
         stroke-width="1"
         stroke="rgb(166, 192, 214)"
         d="M-1,1 l2,-2 M0,4 l4,-4 M3,5 l2,-2" /></pattern><pattern
       inkscape:collect="always"
       xlink:href="#diagonalHatchBL80995"
       id="pattern3720"
       patternTransform="matrix(0.98164471,0,0,0.98164471,99.325346,334.91675)" /><pattern
       height="4"
       width="4"
       patternUnits="userSpaceOnUse"
       id="pattern3881"><path
         id="path3883"
         stroke-width="1"
         stroke="rgb(166, 192, 214)"
         d="M-1,1 l2,-2 M0,4 l4,-4 M3,5 l2,-2" /></pattern><pattern
       inkscape:collect="always"
       xlink:href="#diagonalHatchBL80995"
       id="pattern3723"
       patternTransform="matrix(0.98164471,0,0,0.98164471,99.325346,334.91675)" /><pattern
       height="4"
       width="4"
       patternUnits="userSpaceOnUse"
       id="pattern3886"><path
         id="path3888"
         stroke-width="1"
         stroke="rgb(166, 192, 214)"
         d="M-1,1 l2,-2 M0,4 l4,-4 M3,5 l2,-2" /></pattern><pattern
       inkscape:collect="always"
       xlink:href="#diagonalHatchBL80995"
       id="pattern3726"
       patternTransform="matrix(0.98164471,0,0,0.98164471,99.325346,334.91675)" /><pattern
       height="4"
       width="4"
       patternUnits="userSpaceOnUse"
       id="pattern3891"><path
         id="path3893"
         stroke-width="1"
         stroke="rgb(166, 192, 214)"
         d="M-1,1 l2,-2 M0,4 l4,-4 M3,5 l2,-2" /></pattern><pattern
       inkscape:collect="always"
       xlink:href="#diagonalHatchBL80995"
       id="pattern3729"
       patternTransform="matrix(0.98164471,0,0,0.98164471,99.325346,334.91675)" /><pattern
       height="4"
       width="4"
       patternUnits="userSpaceOnUse"
       id="pattern3896"><path
         id="path3898"
         stroke-width="1"
         stroke="rgb(166, 192, 214)"
         d="M-1,1 l2,-2 M0,4 l4,-4 M3,5 l2,-2" /></pattern><pattern
       inkscape:collect="always"
       xlink:href="#diagonalHatchBL80995"
       id="pattern3732"
       patternTransform="matrix(0.98164471,0,0,0.98164471,99.325346,334.91675)" /><pattern
       height="4"
       width="4"
       patternUnits="userSpaceOnUse"
       id="pattern3901"><path
         id="path3903"
         stroke-width="1"
         stroke="rgb(166, 192, 214)"
         d="M-1,1 l2,-2 M0,4 l4,-4 M3,5 l2,-2" /></pattern><pattern
       inkscape:collect="always"
       xlink:href="#diagonalHatchBL80995"
       id="pattern3735"
       patternTransform="matrix(0.98164471,0,0,0.98164471,99.325346,334.91675)" /><pattern
       height="4"
       width="4"
       patternUnits="userSpaceOnUse"
       id="pattern3906"><path
         id="path3908"
         stroke-width="1"
         stroke="rgb(166, 192, 214)"
         d="M-1,1 l2,-2 M0,4 l4,-4 M3,5 l2,-2" /></pattern><pattern
       inkscape:collect="always"
       xlink:href="#diagonalHatchBL80995"
       id="pattern3738"
       patternTransform="matrix(0.98164471,0,0,0.98164471,99.325346,334.91675)" /><pattern
       height="4"
       width="4"
       patternUnits="userSpaceOnUse"
       id="pattern3911"><path
         id="path3913"
         stroke-width="1"
         stroke="rgb(166, 192, 214)"
         d="M-1,1 l2,-2 M0,4 l4,-4 M3,5 l2,-2" /></pattern></defs><sodipodi:namedview
     pagecolor="#ffffff"
     bordercolor="#666666"
     borderopacity="1"
     objecttolerance="10"
     gridtolerance="10"
     guidetolerance="10"
     inkscape:pageopacity="0"
     inkscape:pageshadow="2"
     inkscape:window-width="1920"
     inkscape:window-height="1058"
     id="namedview41"
     showgrid="false"
     inkscape:zoom="1.2739542"
     inkscape:cx="540.59325"
     inkscape:cy="512.66397"
     inkscape:window-x="0"
     inkscape:window-y="0"
     inkscape:window-maximized="1"
     inkscape:current-layer="Layer_1" /><g
     id="Stand"><g
       id="g7"><path
         d="M 555.954,703.717 C 553.81,692.6 543.987,601.982 543.987,601.982 H 356.012 C 356.012,601.982 346.188,692.6 344.052,703.717 339.156,729.192 330.383,732.121 330.383,732.121 H 569.619 C 569.618,732.12 560.845,729.19 555.954,703.717 z"
         id="path9"
         inkscape:connector-curvature="0"
         style="fill:#dcdfe2" /></g></g><g
     id="Rectangle_1"><g
       id="g12"><rect
         x="293.68201"
         y="726.26501"
         width="315.00699"
         height="15.235"
         id="rect14"
         style="fill:#d1d6da" /></g></g><g
     id="Shadow_1_"><g
       id="g17"><polygon
         points="544.741,607.841 355.259,607.841 351.708,638.326 548.292,638.326 "
         id="polygon19"
         style="fill:#d1d6da" /></g></g><g
     id="Chin"><g
       id="g22"><path
         d="M 0,531.618 V 592.589 C 0,612.009 15.904,627.777 35.528,627.777 H 864.48 C 884.095,627.777 900.001,612.009 900.001,592.589 V 531.618 H 0 z"
         id="path24"
         inkscape:connector-curvature="0"
         style="fill:#dcdfe2" /></g></g><g
     id="Dark_Area"><g
       id="g27"><path
         d="M 864.479,0.5 H 35.528 C 15.904,0.5 0,16.247 0,35.669 V 548.037 H 899.998 V 35.669 C 899.998,16.247 884.095,0.5 864.479,0.5 z"
         id="path29"
         inkscape:connector-curvature="0"
         style="fill:#323843" /></g></g><g
     id="Camera"><g
       id="g32"><path
         d="M 450,12.226 C 445.426,12.226 441.719,15.896 441.719,20.426 441.719,24.965 445.426,28.635 450,28.635 454.574,28.635 458.281,24.964 458.281,20.426 458.28,15.896 454.573,12.226 450,12.226 z"
         id="path34"
         inkscape:connector-curvature="0"
         style="fill:#474c55" /></g></g><g
     id="Display"
     style="fill:#f2f5f7;fill-opacity:1"><g
       id="g37"
       style="fill:#f2f5f7;fill-opacity:1"><rect
         x="39.080002"
         y="38.02"
         width="821.84802"
         height="468.98099"
         id="rect39"
         style="fill:#f2f5f7;fill-opacity:1" /></g></g><g
     class="tick"
     transform="matrix(0.98164471,0,0,0.98164471,126.21377,311.21794)"
     id="g3032"><line
       y2="6"
       x2="0"
       style="fill:none;stroke:none"
       id="line3034"
       x1="0"
       y1="0" /><text
       y="9"
       x="0"
       dy="0"
       dx="0"
       style="font-size:11px;font-weight:bold;text-anchor:middle;fill:#535353;font-family:Lato"
       id="text3036">1999</text>
</g><g
     class="tick"
     transform="matrix(0.98164471,0,0,0.98164471,178.95075,311.21794)"
     id="g3038"><line
       y2="6"
       x2="0"
       style="fill:none;stroke:none"
       id="line3040"
       x1="0"
       y1="0" /><text
       y="9"
       x="0"
       dy="0"
       dx="0"
       style="font-size:11px;font-weight:bold;text-anchor:middle;fill:#535353;font-family:Lato"
       id="text3042">2000</text>
</g><g
     class="tick"
     transform="matrix(0.98164471,0,0,0.98164471,231.68772,311.21794)"
     id="g3044"><line
       y2="6"
       x2="0"
       style="fill:none;stroke:none"
       id="line3046"
       x1="0"
       y1="0" /><text
       y="9"
       x="0"
       dy="0"
       dx="0"
       style="font-size:11px;font-weight:bold;text-anchor:middle;fill:#535353;font-family:Lato"
       id="text3048">2001</text>
</g><g
     class="tick"
     transform="matrix(0.98164471,0,0,0.98164471,284.4247,311.21794)"
     id="g3050"><line
       y2="6"
       x2="0"
       style="fill:none;stroke:none"
       id="line3052"
       x1="0"
       y1="0" /><text
       y="9"
       x="0"
       dy="0"
       dx="0"
       style="font-size:11px;font-weight:bold;text-anchor:middle;fill:#535353;font-family:Lato"
       id="text3054">2002</text>
</g><g
     class="tick"
     transform="matrix(0.98164471,0,0,0.98164471,337.16168,311.21794)"
     id="g3056"><line
       y2="6"
       x2="0"
       style="fill:none;stroke:none"
       id="line3058"
       x1="0"
       y1="0" /><text
       y="9"
       x="0"
       dy="0"
       dx="0"
       style="font-size:11px;font-weight:bold;text-anchor:middle;fill:#535353;font-family:Lato"
       id="text3060">2003</text>
</g><g
     class="tick"
     transform="matrix(0.98164471,0,0,0.98164471,389.89865,311.21794)"
     id="g3062"><line
       y2="6"
       x2="0"
       style="fill:none;stroke:none"
       id="line3064"
       x1="0"
       y1="0" /><text
       y="9"
       x="0"
       dy="0"
       dx="0"
       style="font-size:11px;font-weight:bold;text-anchor:middle;fill:#535353;font-family:Lato"
       id="text3066">2004</text>
</g><g
     class="tick"
     transform="matrix(0.98164471,0,0,0.98164471,442.63562,311.21794)"
     id="g3068"><line
       y2="6"
       x2="0"
       style="fill:none;stroke:none"
       id="line3070"
       x1="0"
       y1="0" /><text
       y="9"
       x="0"
       dy="0"
       dx="0"
       style="font-size:11px;font-weight:bold;text-anchor:middle;fill:#535353;font-family:Lato"
       id="text3072">2005</text>
</g><g
     class="tick"
     transform="matrix(0.98164471,0,0,0.98164471,495.3726,311.21794)"
     id="g3074"><line
       y2="6"
       x2="0"
       style="fill:none;stroke:none"
       id="line3076"
       x1="0"
       y1="0" /><text
       y="9"
       x="0"
       dy="0"
       dx="0"
       style="font-size:11px;font-weight:bold;text-anchor:middle;fill:#535353;font-family:Lato"
       id="text3078">2006</text>
</g><g
     class="tick"
     transform="matrix(0.98164471,0,0,0.98164471,548.10957,311.21794)"
     id="g3080"><line
       y2="6"
       x2="0"
       style="fill:none;stroke:none"
       id="line3082"
       x1="0"
       y1="0" /><text
       y="9"
       x="0"
       dy="0"
       dx="0"
       style="font-size:11px;font-weight:bold;text-anchor:middle;fill:#535353;font-family:Lato"
       id="text3084">2007</text>
</g><g
     class="tick"
     transform="matrix(0.98164471,0,0,0.98164471,600.84655,311.21794)"
     id="g3086"><line
       y2="6"
       x2="0"
       style="fill:none;stroke:none"
       id="line3088"
       x1="0"
       y1="0" /><text
       y="9"
       x="0"
       dy="0"
       dx="0"
       style="font-size:11px;font-weight:bold;text-anchor:middle;fill:#535353;font-family:Lato"
       id="text3090">2008</text>
</g><g
     class="tick"
     transform="matrix(0.98164471,0,0,0.98164471,653.58352,311.21794)"
     id="g3092"><line
       y2="6"
       x2="0"
       style="fill:none;stroke:none"
       id="line3094"
       x1="0"
       y1="0" /><text
       y="9"
       x="0"
       dy="0"
       dx="0"
       style="font-size:11px;font-weight:bold;text-anchor:middle;fill:#535353;font-family:Lato"
       id="text3096">2009</text>
</g><g
     class="tick"
     transform="matrix(0.98164471,0,0,0.98164471,706.32049,311.21794)"
     id="g3098"><line
       y2="6"
       x2="0"
       style="fill:none;stroke:none"
       id="line3100"
       x1="0"
       y1="0" /><text
       y="9"
       x="0"
       dy="0"
       dx="0"
       style="font-size:11px;font-weight:bold;text-anchor:middle;fill:#535353;font-family:Lato"
       id="text3102">2010</text>
</g><g
     class="tick"
     transform="matrix(0.98164471,0,0,0.98164471,759.05747,311.21794)"
     id="g3104"><line
       y2="6"
       x2="0"
       style="fill:none;stroke:none"
       id="line3106"
       x1="0"
       y1="0" /><text
       y="9"
       x="0"
       dy="0"
       dx="0"
       style="font-size:11px;font-weight:bold;text-anchor:middle;fill:#535353;font-family:Lato"
       id="text3108">2011</text>
</g><path
     class="domain"
     d="M 99.845294,317.1078 V 311.21794 H 785.42596 V 317.1078"
     style="fill:none;stroke:#333333;stroke-width:0px"
     id="path3110"
     inkscape:connector-curvature="0" /><rect
     x="112.91737"
     class="g0"
     width="13.592004"
     y="184.51643"
     height="116.04276"
     style="fill:#a6c0d6"
     id="rect3114" /><text
     x="124.48728"
     dx="0"
     y="180.35693"
     dy="0"
     style="font-size:10.79809189px;font-weight:bold;text-anchor:end;fill:#a6c0d6;font-family:Lato"
     id="text3116">321</text>
<rect
     x="165.65431"
     class="g1"
     width="13.592004"
     y="191.74651"
     height="108.81268"
     style="fill:#a6c0d6"
     id="rect3120" /><text
     x="177.22423"
     dx="0"
     y="187.58701"
     dy="0"
     style="font-size:10.79809189px;font-weight:bold;text-anchor:end;fill:#a6c0d6;font-family:Lato"
     id="text3122">301</text>
<rect
     x="218.3913"
     class="g2"
     width="13.592004"
     y="180.90141"
     height="119.65779"
     style="fill:#a6c0d6"
     id="rect3126" /><text
     x="229.96121"
     dx="0"
     y="176.74188"
     dy="0"
     style="font-size:10.79809189px;font-weight:bold;text-anchor:end;fill:#a6c0d6;font-family:Lato"
     id="text3128">331</text>
<rect
     x="271.12827"
     class="g3"
     width="13.592004"
     y="188.85448"
     height="111.7047"
     style="fill:#a6c0d6;stroke:#ffffff;stroke-width:0px"
     id="rect3132" /><text
     x="282.69818"
     dx="0"
     y="184.69498"
     dy="0"
     style="font-size:10.79809189px;font-weight:bold;text-anchor:end;fill:#a6c0d6;font-family:Lato"
     id="text3134">309</text>
<rect
     x="323.86523"
     class="g4"
     width="13.592004"
     y="183.43192"
     height="117.12727"
     style="fill:#a6c0d6;stroke:#ffffff;stroke-width:0px"
     id="rect3138" /><text
     x="335.43512"
     dx="0"
     y="179.27242"
     dy="0"
     style="font-size:10.79809189px;font-weight:bold;text-anchor:end;fill:#a6c0d6;font-family:Lato"
     id="text3140">324</text>
<rect
     x="376.60223"
     class="g5"
     width="13.592004"
     y="199.6996"
     height="100.85958"
     style="fill:#a6c0d6;stroke:#ffffff;stroke-width:0px"
     id="rect3144" /><text
     x="388.17212"
     dx="0"
     y="195.54007"
     dy="0"
     style="font-size:10.79809189px;font-weight:bold;text-anchor:end;fill:#a6c0d6;font-family:Lato"
     id="text3146">279</text>
<rect
     x="429.33917"
     class="g6"
     width="13.592004"
     y="193.55405"
     height="107.00515"
     style="fill:#a6c0d6;stroke:#ffffff;stroke-width:0px"
     id="rect3150" /><text
     x="440.90909"
     dx="0"
     y="189.39452"
     dy="0"
     style="font-size:10.79809189px;font-weight:bold;text-anchor:end;fill:#a6c0d6;font-family:Lato"
     id="text3152">296</text>
<rect
     x="482.07614"
     class="g7"
     width="13.592004"
     y="196.08455"
     height="104.47462"
     style="fill:#a6c0d6;stroke:#ffffff;stroke-width:0px"
     id="rect3156" /><text
     x="493.64606"
     dx="0"
     y="191.92505"
     dy="0"
     style="font-size:10.79809189px;font-weight:bold;text-anchor:end;fill:#a6c0d6;font-family:Lato"
     id="text3158">289</text>
<rect
     x="534.81317"
     class="g8"
     width="13.592004"
     y="183.79344"
     height="116.76575"
     style="fill:#a6c0d6;stroke:#ffffff;stroke-width:0px"
     id="rect3162" /><text
     x="546.38306"
     dx="0"
     y="179.63391"
     dy="0"
     style="font-size:10.79809189px;font-weight:bold;text-anchor:end;fill:#a6c0d6;font-family:Lato"
     id="text3164">323</text>
<rect
     x="587.55017"
     class="g9"
     width="13.592004"
     y="179.81689"
     height="120.7423"
     style="fill:#a6c0d6;stroke:#ffffff;stroke-width:0px"
     id="rect3168" /><text
     x="599.12006"
     dx="0"
     y="175.65736"
     dy="0"
     style="font-size:10.79809189px;font-weight:bold;text-anchor:end;fill:#a6c0d6;font-family:Lato"
     id="text3170">334</text>
<rect
     x="640.28705"
     class="g10"
     width="13.592004"
     y="185.60095"
     height="114.95824"
     style="fill:#a6c0d6;stroke:#ffffff;stroke-width:0px"
     id="rect3174" /><text
     x="651.85706"
     dx="0"
     y="181.44142"
     dy="0"
     style="font-size:10.79809189px;font-weight:bold;text-anchor:end;fill:#a6c0d6;font-family:Lato"
     id="text3176">318</text>
<rect
     x="693.02405"
     class="g11"
     width="13.592004"
     y="192.46953"
     height="108.08966"
     style="fill:#a6c0d6;stroke:#ffffff;stroke-width:0px"
     id="rect3180" /><text
     x="704.59399"
     dx="0"
     y="188.31"
     dy="0"
     style="font-size:10.79809189px;font-weight:bold;text-anchor:end;fill:#a6c0d6;font-family:Lato"
     id="text3182">299</text>
<rect
     x="745.76105"
     class="g12"
     width="13.592004"
     y="205.84515"
     height="94.71402"
     style="fill:#a6c0d6;stroke:#ffffff;stroke-width:0px"
     id="rect3186" /><text
     x="757.33093"
     dx="0"
     y="201.68565"
     dy="0"
     style="font-size:10.79809189px;font-weight:bold;text-anchor:end;fill:#a6c0d6;font-family:Lato"
     id="text3188">262</text>
<rect
     x="126.50935"
     class="g0"
     width="13.592004"
     y="246.69511"
     height="53.864079"
     style="fill:#535353"
     id="rect3192" /><text
     x="128.58911"
     dx="0"
     y="242.5356"
     dy="0"
     style="font-size:10.79809189px;font-weight:bold;text-anchor:start;fill:#535353;font-family:Lato"
     id="text3194">149</text>
<rect
     x="179.24632"
     class="g1"
     width="13.592004"
     y="249.94862"
     height="50.610542"
     style="fill:#535353"
     id="rect3198" /><text
     x="181.32608"
     dx="0"
     y="245.78914"
     dy="0"
     style="font-size:10.79809189px;font-weight:bold;text-anchor:start;fill:#535353;font-family:Lato"
     id="text3200">140</text>
<rect
     x="231.98331"
     class="g2"
     width="13.592004"
     y="251.39467"
     height="49.164528"
     style="fill:#535353"
     id="rect3204" /><text
     x="234.06303"
     dx="0"
     y="247.23512"
     dy="0"
     style="font-size:10.79809189px;font-weight:bold;text-anchor:start;fill:#535353;font-family:Lato"
     id="text3206">136</text>
<rect
     x="284.72028"
     class="g3"
     width="13.592004"
     y="254.64821"
     height="45.910995"
     style="fill:#535353;stroke:#ffffff;stroke-width:0px"
     id="rect3210" /><text
     x="286.79999"
     dx="0"
     y="250.48869"
     dy="0"
     style="font-size:10.79809189px;font-weight:bold;text-anchor:start;fill:#535353;font-family:Lato"
     id="text3212">127</text>
<rect
     x="337.45721"
     class="g4"
     width="13.592004"
     y="267.66232"
     height="32.896851"
     style="fill:#535353;stroke:#ffffff;stroke-width:0px"
     id="rect3216" /><text
     x="339.53699"
     dx="0"
     y="263.50287"
     dy="0"
     style="font-size:10.79809189px;font-weight:bold;text-anchor:start;fill:#535353;font-family:Lato"
     id="text3218">91</text>
<rect
     x="390.19421"
     class="g5"
     width="13.592004"
     y="263.32431"
     height="37.234901"
     style="fill:#535353;stroke:#ffffff;stroke-width:0px"
     id="rect3222" /><text
     x="392.27396"
     dx="0"
     y="259.16479"
     dy="0"
     style="font-size:10.79809189px;font-weight:bold;text-anchor:start;fill:#535353;font-family:Lato"
     id="text3224">103</text>
<rect
     x="442.93118"
     class="g6"
     width="13.592004"
     y="264.77029"
     height="35.788887"
     style="fill:#535353;stroke:#ffffff;stroke-width:0px"
     id="rect3228" /><text
     x="445.01096"
     dx="0"
     y="260.61084"
     dy="0"
     style="font-size:10.79809189px;font-weight:bold;text-anchor:start;fill:#535353;font-family:Lato"
     id="text3230">99</text>
<rect
     x="495.66815"
     class="g7"
     width="13.592004"
     y="263.32431"
     height="37.234901"
     style="fill:#535353;stroke:#ffffff;stroke-width:0px"
     id="rect3234" /><text
     x="497.74792"
     dx="0"
     y="259.16479"
     dy="0"
     style="font-size:10.79809189px;font-weight:bold;text-anchor:start;fill:#535353;font-family:Lato"
     id="text3236">103</text>
<rect
     x="548.40515"
     class="g8"
     width="13.592004"
     y="276.33841"
     height="24.22076"
     style="fill:#535353;stroke:#ffffff;stroke-width:0px"
     id="rect3240" /><text
     x="550.48492"
     dx="0"
     y="272.17896"
     dy="0"
     style="font-size:10.79809189px;font-weight:bold;text-anchor:start;fill:#535353;font-family:Lato"
     id="text3242">67</text>
<rect
     x="601.14215"
     class="g9"
     width="13.592004"
     y="271.27734"
     height="29.281816"
     style="fill:#535353;stroke:#ffffff;stroke-width:0px"
     id="rect3246" /><text
     x="603.22186"
     dx="0"
     y="267.11789"
     dy="0"
     style="font-size:10.79809189px;font-weight:bold;text-anchor:start;fill:#535353;font-family:Lato"
     id="text3248">81</text>
<rect
     x="653.87909"
     class="g10"
     width="13.592004"
     y="275.97696"
     height="24.582264"
     style="fill:#535353;stroke:#ffffff;stroke-width:0px"
     id="rect3252" /><text
     x="655.95886"
     dx="0"
     y="271.81744"
     dy="0"
     style="font-size:10.79809189px;font-weight:bold;text-anchor:start;fill:#535353;font-family:Lato"
     id="text3254">68</text>
<rect
     x="706.61609"
     class="g11"
     width="13.592004"
     y="273.44638"
     height="27.112791"
     style="fill:#535353;stroke:#ffffff;stroke-width:0px"
     id="rect3258" /><text
     x="708.69586"
     dx="0"
     y="269.28693"
     dy="0"
     style="font-size:10.79809189px;font-weight:bold;text-anchor:start;fill:#535353;font-family:Lato"
     id="text3260">75</text>
<rect
     x="759.35303"
     class="g12"
     width="13.592004"
     y="278.14594"
     height="22.41324"
     style="fill:#535353;stroke:#ffffff;stroke-width:0px"
     id="rect3264" /><text
     x="761.4328"
     dx="0"
     y="273.98648"
     dy="0"
     style="font-size:10.79809189px;font-weight:bold;text-anchor:start;fill:#535353;font-family:Lato"
     id="text3266">62</text>
<rect
     class="gb0"
     x="112.91737"
     width="27.184008"
     y="334.91675"
     height="123.68723"
     style="opacity:0.7;fill:url(#pattern3738)"
     id="rect3270" /><rect
     class="gb1"
     x="165.65431"
     width="27.184008"
     y="334.91675"
     height="123.68723"
     style="opacity:0.7;fill:url(#pattern3735)"
     id="rect3272" /><rect
     class="gb2"
     x="218.3913"
     width="27.184008"
     y="334.91675"
     height="123.68723"
     style="opacity:0.7;fill:url(#pattern3732)"
     id="rect3274" /><rect
     class="gb3"
     x="271.12827"
     width="27.184008"
     y="334.91675"
     height="123.68723"
     style="opacity:0.7;fill:url(#pattern3729);stroke:#ffffff;stroke-width:0px"
     id="rect3276" /><rect
     class="gb4"
     x="323.86523"
     width="27.184008"
     y="334.91675"
     height="123.68723"
     style="opacity:0.7;fill:url(#pattern3726);stroke:#ffffff;stroke-width:0px"
     id="rect3278" /><rect
     class="gb5"
     x="376.60223"
     width="27.184008"
     y="334.91675"
     height="123.68723"
     style="opacity:0.7;fill:url(#pattern3723);stroke:#ffffff;stroke-width:0px"
     id="rect3280" /><rect
     class="gb6"
     x="429.33917"
     width="27.184008"
     y="334.91675"
     height="123.68723"
     style="opacity:0.7;fill:url(#pattern3720);stroke:#ffffff;stroke-width:0px"
     id="rect3282" /><rect
     class="gb7"
     x="482.07614"
     width="27.184008"
     y="334.91675"
     height="123.68723"
     style="opacity:0.7;fill:url(#pattern3717);stroke:#ffffff;stroke-width:0px"
     id="rect3284" /><rect
     class="gb8"
     x="534.81317"
     width="27.184008"
     y="334.91675"
     height="123.68723"
     style="opacity:0.7;fill:url(#pattern3714);stroke:#ffffff;stroke-width:0px"
     id="rect3286" /><rect
     class="gb9"
     x="587.55017"
     width="27.184008"
     y="334.91675"
     height="123.68723"
     style="opacity:0.7;fill:url(#pattern3711);stroke:#ffffff;stroke-width:0px"
     id="rect3288" /><rect
     class="gb10"
     x="640.28705"
     width="27.184008"
     y="334.91675"
     height="123.68723"
     style="opacity:0.7;fill:url(#pattern3708);stroke:#ffffff;stroke-width:0px"
     id="rect3290" /><rect
     class="gb11"
     x="693.02405"
     width="27.184008"
     y="334.91675"
     height="123.68723"
     style="opacity:0.7;fill:url(#pattern3705);stroke:#ffffff;stroke-width:0px"
     id="rect3292" /><rect
     class="gb12"
     x="745.76105"
     width="27.184008"
     y="334.91675"
     height="123.68723"
     style="opacity:0.7;fill:url(#pattern3702);stroke:#ffffff;stroke-width:0px"
     id="rect3294" /><path
     d="M 126.50935,375.98101 135.29885,375.41554 C 144.08834,374.85005 161.66733,373.71909 179.24633,372.46593 196.82532,371.21277 214.40432,369.83743 231.98331,372.26134 249.5623,374.68524 267.1413,380.90839 284.72028,385.36121 302.29927,389.81403 319.87826,392.49652 337.45726,390.43634 355.03625,388.37616 372.61524,381.57333 390.19423,374.73639 407.77322,367.89945 425.35222,361.02841 442.93121,356.98762 460.5102,352.94684 478.08919,351.7363 495.66818,353.24805 513.24717,354.75979 530.82616,358.99381 548.40515,363.2193 565.98415,367.44479 583.56314,371.66176 601.14213,375.89008 618.72112,380.11842 636.30011,384.35811 653.87911,382.91173 671.4581,381.46535 689.03709,374.33288 706.61607,367.26008 724.19507,360.18729 741.77406,353.17417 750.56355,349.66761 L 759.35305,346.16104"
     style="fill:none;stroke:#ffffff;stroke-width:6.87151289px;stroke-linecap:round;stroke-opacity:0.6"
     id="path3296"
     inkscape:connector-curvature="0" /><path
     d="M 126.50935,375.98101 135.29885,375.41554 C 144.08834,374.85005 161.66733,373.71909 179.24633,372.46593 196.82532,371.21277 214.40432,369.83743 231.98331,372.26134 249.5623,374.68524 267.1413,380.90839 284.72028,385.36121 302.29927,389.81403 319.87826,392.49652 337.45726,390.43634 355.03625,388.37616 372.61524,381.57333 390.19423,374.73639 407.77322,367.89945 425.35222,361.02841 442.93121,356.98762 460.5102,352.94684 478.08919,351.7363 495.66818,353.24805 513.24717,354.75979 530.82616,358.99381 548.40515,363.2193 565.98415,367.44479 583.56314,371.66176 601.14213,375.89008 618.72112,380.11842 636.30011,384.35811 653.87911,382.91173 671.4581,381.46535 689.03709,374.33288 706.61607,367.26008 724.19507,360.18729 741.77406,353.17417 750.56355,349.66761 L 759.35305,346.16104"
     style="fill:none;stroke:#a6c0d6;stroke-width:0.98164469px;stroke-linecap:round"
     id="path3298"
     inkscape:connector-curvature="0" /><path
     d="M 126.50935,410.18276 135.29885,412.84537 C 144.08834,415.50797 161.66733,420.83317 179.24633,423.31958 196.82532,425.806 214.40432,425.45364 231.98331,422.25397 249.5623,419.05431 267.1413,413.00734 284.72028,412.70613 302.29927,412.40491 319.87826,417.84946 337.45726,423.28548 355.03625,428.72151 372.61524,434.149 390.19423,433.91882 407.77322,433.68866 425.35222,427.80082 442.93121,419.03726 460.5102,410.2737 478.08919,398.63442 495.66818,395.52569 513.24717,392.41696 530.82616,397.83877 548.40515,400.37917 565.98415,402.91958 583.56314,402.57859 601.14213,405.09343 618.72112,407.60826 636.30011,412.97892 653.87911,415.49092 671.4581,418.00291 689.03709,417.65623 706.61607,417.33229 724.19507,417.00834 741.77406,416.70713 750.56355,416.55652 L 759.35305,416.40592"
     style="fill:none;stroke:#ffffff;stroke-width:6.87151289px;stroke-linecap:round;stroke-opacity:0.6"
     id="path3300"
     inkscape:connector-curvature="0" /><path
     d="M 126.50935,410.18276 135.29885,412.84537 C 144.08834,415.50797 161.66733,420.83317 179.24633,423.31958 196.82532,425.806 214.40432,425.45364 231.98331,422.25397 249.5623,419.05431 267.1413,413.00734 284.72028,412.70613 302.29927,412.40491 319.87826,417.84946 337.45726,423.28548 355.03625,428.72151 372.61524,434.149 390.19423,433.91882 407.77322,433.68866 425.35222,427.80082 442.93121,419.03726 460.5102,410.2737 478.08919,398.63442 495.66818,395.52569 513.24717,392.41696 530.82616,397.83877 548.40515,400.37917 565.98415,402.91958 583.56314,402.57859 601.14213,405.09343 618.72112,407.60826 636.30011,412.97892 653.87911,415.49092 671.4581,418.00291 689.03709,417.65623 706.61607,417.33229 724.19507,417.00834 741.77406,416.70713 750.56355,416.55652 L 759.35305,416.40592"
     style="fill:none;stroke:#535353;stroke-width:0.98164469px;stroke-linecap:round"
     id="path3302"
     inkscape:connector-curvature="0" /><g
     transform="matrix(0.98164471,0,0,0.98164471,770.18135,334.91675)"
     id="g3304"><g
       class="tick"
       transform="translate(0,126)"
       id="g3306"><line
         x2="5"
         y2="0"
         style="stroke:#aaaaaa;stroke-width:0px"
         id="line3308"
         x1="0"
         y1="0" /><text
         x="8"
         y="0"
         dy="0"
         style="font-size:10px;font-weight:bold;text-anchor:start;fill:#535353;font-family:Lato"
         id="text3310">0</text>
</g><g
       class="tick"
       transform="translate(0,108.63147)"
       id="g3312"><line
         x2="5"
         y2="0"
         style="stroke:#aaaaaa;stroke-width:0px"
         id="line3314"
         x1="0"
         y1="0" /><text
         x="8"
         y="0"
         dy="0"
         style="font-size:10px;font-weight:bold;text-anchor:start;fill:#535353;font-family:Lato"
         id="text3316">1,000</text>
</g><g
       class="tick"
       transform="translate(0,91.26294)"
       id="g3318"><line
         x2="5"
         y2="0"
         style="stroke:#aaaaaa;stroke-width:0px"
         id="line3320"
         x1="0"
         y1="0" /><text
         x="8"
         y="0"
         dy="0"
         style="font-size:10px;font-weight:bold;text-anchor:start;fill:#535353;font-family:Lato"
         id="text3322">2,000</text>
</g><g
       class="tick"
       transform="translate(0,73.89441)"
       id="g3324"><line
         x2="5"
         y2="0"
         style="stroke:#aaaaaa;stroke-width:0px"
         id="line3326"
         x1="0"
         y1="0" /><text
         x="8"
         y="0"
         dy="0"
         style="font-size:10px;font-weight:bold;text-anchor:start;fill:#535353;font-family:Lato"
         id="text3328">3,000</text>
</g><g
       class="tick"
       transform="translate(0,56.52588)"
       id="g3330"><line
         x2="5"
         y2="0"
         style="stroke:#aaaaaa;stroke-width:0px"
         id="line3332"
         x1="0"
         y1="0" /><text
         x="8"
         y="0"
         dy="0"
         style="font-size:10px;font-weight:bold;text-anchor:start;fill:#535353;font-family:Lato"
         id="text3334">4,000</text>
</g><g
       class="tick"
       transform="translate(0,39.157351)"
       id="g3336"><line
         x2="5"
         y2="0"
         style="stroke:#aaaaaa;stroke-width:0px"
         id="line3338"
         x1="0"
         y1="0" /><text
         x="8"
         y="0"
         dy="0"
         style="font-size:10px;font-weight:bold;text-anchor:start;fill:#535353;font-family:Lato"
         id="text3340">5,000</text>
</g><g
       class="tick"
       transform="translate(0,21.788821)"
       id="g3342"><line
         x2="5"
         y2="0"
         style="stroke:#aaaaaa;stroke-width:0px"
         id="line3344"
         x1="0"
         y1="0" /><text
         x="8"
         y="0"
         dy="0"
         style="font-size:10px;font-weight:bold;text-anchor:start;fill:#535353;font-family:Lato"
         id="text3346">6,000</text>
</g><g
       class="tick"
       transform="translate(0,4.4202909)"
       id="g3348"><line
         x2="5"
         y2="0"
         style="stroke:#aaaaaa;stroke-width:0px"
         id="line3350"
         x1="0"
         y1="0" /><text
         x="8"
         y="0"
         dy="0"
         style="font-size:10px;font-weight:bold;text-anchor:start;fill:#535353;font-family:Lato"
         id="text3352">7,000</text>
</g></g><rect
     x="112.91737"
     width="27.184008"
     y="148.78868"
     height="333.75922"
     style="opacity:0;fill:#eeeeee"
     id="rect3356" /><rect
     x="165.65431"
     width="27.184008"
     y="148.78868"
     height="333.75922"
     style="opacity:0;fill:#eeeeee"
     id="rect3360" /><rect
     x="218.3913"
     width="27.184008"
     y="148.78868"
     height="333.75922"
     style="opacity:0;fill:#eeeeee"
     id="rect3364" /><rect
     x="271.12827"
     width="27.184008"
     y="148.78868"
     height="333.75922"
     style="opacity:0;fill:#eeeeee"
     id="rect3368" /><rect
     x="323.86523"
     width="27.184008"
     y="148.78868"
     height="333.75922"
     style="opacity:0;fill:#eeeeee"
     id="rect3372" /><rect
     x="376.60223"
     width="27.184008"
     y="148.78868"
     height="333.75922"
     style="opacity:0;fill:#eeeeee"
     id="rect3376" /><rect
     x="429.33917"
     width="27.184008"
     y="148.78868"
     height="333.75922"
     style="opacity:0;fill:#eeeeee"
     id="rect3380" /><rect
     x="482.07614"
     width="27.184008"
     y="148.78868"
     height="333.75922"
     style="opacity:0;fill:#eeeeee"
     id="rect3384" /><rect
     x="534.81317"
     width="27.184008"
     y="148.78868"
     height="333.75922"
     style="opacity:0;fill:#eeeeee"
     id="rect3388" /><rect
     x="587.55017"
     width="27.184008"
     y="148.78868"
     height="333.75922"
     style="opacity:0;fill:#eeeeee"
     id="rect3392" /><rect
     x="640.28705"
     width="27.184008"
     y="148.78868"
     height="333.75922"
     style="opacity:0;fill:#eeeeee"
     id="rect3396" /><rect
     x="693.02405"
     width="27.184008"
     y="148.78868"
     height="333.75922"
     style="opacity:0;fill:#eeeeee"
     id="rect3400" /><rect
     x="745.76105"
     width="27.184008"
     y="148.78868"
     height="333.75922"
     style="opacity:0;fill:#eeeeee"
     id="rect3404" /><rect
     x="539.24573"
     width="17.669605"
     height="17.669605"
     style="fill:#a6c0d6"
     id="rect3408"
     y="92.775513" /><text
     x="533.3559"
     y="101.61031"
     dy="0"
     style="font-size:10.79809189px;font-weight:bold;text-anchor:end;fill:#535353;font-family:Lato"
     id="text3410">Nuove diagnosi di infezione da HIV</text>
<rect
     x="539.24573"
     width="17.669605"
     height="17.669605"
     style="fill:#535353"
     id="rect3414"
     y="112.40842" /><text
     x="533.3559"
     y="121.24322"
     dy="0"
     style="font-size:10.79809189px;font-weight:bold;text-anchor:end;fill:#535353;font-family:Lato"
     id="text3416">Nuove diagnosi di AIDS</text>
<rect
     x="779.67603"
     width="17.669605"
     height="17.669605"
     style="fill:url(#pattern3653)"
     id="rect3420"
     y="92.900505" /><text
     x="773.78619"
     y="101.73531"
     dy="0"
     style="font-size:10.79809189px;font-weight:bold;text-anchor:end;fill:#535353;font-family:Lato"
     id="text3424">Casi prevalenti di infezione da HIV/AIDS</text>
<rect
     x="779.67603"
     width="17.669605"
     height="17.669605"
     style="fill:url(#pattern3648)"
     id="rect3428"
     y="112.53339" /><text
     x="773.78619"
     y="121.3682"
     dy="0"
     style="font-size:10.79809189px;font-weight:bold;text-anchor:end;fill:#535353;font-family:Lato"
     id="text3432">Casi prevalenti con diagnosi di AIDS</text>
<rect
     x="780.98615"
     width="15.171885"
     height="3.5158591"
     style="fill:#535353"
     id="rect3414-8"
     y="119.44844" /><rect
     x="780.99152"
     width="15.033123"
     height="3.4548955"
     style="fill:#a6c0d6"
     id="rect3408-5"
     y="100.18823" /></svg>